G04*
G04 #@! TF.GenerationSoftware,Altium Limited,Altium Designer,19.1.7 (138)*
G04*
G04 Layer_Color=65535*
%FSLAX25Y25*%
%MOIN*%
G70*
G01*
G75*
%ADD10C,0.00984*%
%ADD11C,0.02362*%
%ADD12C,0.00394*%
%ADD13C,0.00787*%
%ADD14C,0.01575*%
%ADD15C,0.01000*%
%ADD16C,0.00600*%
D10*
X195055Y161980D02*
G03*
X195055Y161980I-492J0D01*
G01*
X325264Y169346D02*
G03*
X325264Y169346I-492J0D01*
G01*
X158122Y176720D02*
G03*
X158122Y176720I-492J0D01*
G01*
X95153Y173272D02*
G03*
X95153Y173272I-492J0D01*
G01*
X108209Y195276D02*
G03*
X108209Y195276I-492J0D01*
G01*
X317882Y231594D02*
G03*
X317882Y231594I-492J0D01*
G01*
D11*
X334319Y164406D02*
G03*
X334319Y164406I-1181J0D01*
G01*
X154283Y168846D02*
G03*
X154283Y168846I-1181J0D01*
G01*
X104110Y167071D02*
G03*
X104110Y167071I-1181J0D01*
G01*
D12*
X322445Y199177D02*
G03*
X322445Y199177I-197J0D01*
G01*
D13*
X291713Y157878D02*
X293287D01*
X291713Y155122D02*
X293287D01*
X304915Y174925D02*
X306490D01*
X304915Y172169D02*
X306490D01*
X99213Y188122D02*
X100787D01*
X99213Y190878D02*
X100787D01*
X210760Y153122D02*
X212335D01*
X210760Y155878D02*
X212335D01*
X201059Y148752D02*
Y151350D01*
X197850Y148752D02*
X201059D01*
Y157650D02*
Y160248D01*
X197850D02*
X201059D01*
X109878Y242760D02*
Y244335D01*
X107122Y242760D02*
Y244335D01*
X119878Y248760D02*
Y250335D01*
X117122Y248760D02*
Y250335D01*
X327213Y145378D02*
X328787D01*
X327213Y142622D02*
X328787D01*
X317878Y153213D02*
Y154787D01*
X315122Y153213D02*
Y154787D01*
X329201Y148658D02*
Y168342D01*
X341799Y148658D02*
Y168342D01*
X329201D02*
X341799D01*
X329201Y148658D02*
X341799D01*
X136961Y158217D02*
Y172784D01*
X157039Y158217D02*
Y172784D01*
X136961Y158217D02*
X157039D01*
X136961Y172784D02*
X157039D01*
X98992Y146992D02*
Y171008D01*
X123008Y146992D02*
Y171008D01*
X98992D02*
X123008D01*
X98992Y146992D02*
X123008D01*
X179878Y154213D02*
Y155787D01*
X177122Y154213D02*
Y155787D01*
X185713Y156622D02*
X187287D01*
X185713Y159378D02*
X187287D01*
X108898Y200591D02*
X121102D01*
X108898Y199409D02*
X121102D01*
Y200591D01*
X108898Y199409D02*
Y200591D01*
X322937Y185594D02*
Y197406D01*
X315063Y185594D02*
Y197406D01*
X322248D02*
X322937D01*
X322248Y185594D02*
X322937D01*
X315063Y197406D02*
X315752D01*
X315063Y185594D02*
X315752D01*
X318866Y234350D02*
X327134D01*
X318866Y240650D02*
X327134D01*
X318866Y234350D02*
Y240650D01*
X327134Y234350D02*
Y240650D01*
X335713Y198878D02*
X337287D01*
X335713Y196122D02*
X337287D01*
X329713Y191378D02*
X331287D01*
X329713Y188622D02*
X331287D01*
X322213Y252378D02*
X323787D01*
X322213Y249622D02*
X323787D01*
X333713Y255878D02*
X335287D01*
X333713Y253122D02*
X335287D01*
X333713Y233622D02*
X335287D01*
X333713Y236378D02*
X335287D01*
X112878Y213713D02*
Y215287D01*
X110122Y213713D02*
Y215287D01*
X103122Y197213D02*
Y198787D01*
X105878Y197213D02*
Y198787D01*
X352122Y237713D02*
Y239287D01*
X354878Y237713D02*
Y239287D01*
D14*
X102925Y205350D02*
X106075D01*
D15*
X321500Y222923D02*
Y223173D01*
D16*
X323300Y205350D02*
Y212650D01*
X328170D02*
X330830D01*
X335700Y205350D02*
Y212650D01*
X140499Y149499D02*
X139999Y149999D01*
X139000D01*
X138500Y149499D01*
Y148999D01*
X139000Y148500D01*
X139999D01*
X140499Y148000D01*
Y147500D01*
X139999Y147000D01*
X139000D01*
X138500Y147500D01*
X143498Y149499D02*
X142999Y149999D01*
X141999D01*
X141499Y149499D01*
Y147500D01*
X141999Y147000D01*
X142999D01*
X143498Y147500D01*
X144498Y149999D02*
Y147000D01*
Y148000D01*
X146497Y149999D01*
X144998Y148500D01*
X146497Y147000D01*
X104500Y134000D02*
Y136999D01*
X105500Y135999D01*
X106499Y136999D01*
Y134000D01*
X108999Y136999D02*
X107999D01*
X107499Y136499D01*
Y134500D01*
X107999Y134000D01*
X108999D01*
X109498Y134500D01*
Y136499D01*
X108999Y136999D01*
X112497Y136499D02*
X111998Y136999D01*
X110998D01*
X110498Y136499D01*
Y135999D01*
X110998Y135500D01*
X111998D01*
X112497Y135000D01*
Y134500D01*
X111998Y134000D01*
X110998D01*
X110498Y134500D01*
X113497Y136999D02*
X114497D01*
X113997D01*
Y134000D01*
X113497D01*
X114497D01*
X325000Y186499D02*
Y183500D01*
Y184500D01*
X326999Y186499D01*
X325500Y185000D01*
X326999Y183500D01*
X301500Y167000D02*
Y169999D01*
X302999D01*
X303499Y169499D01*
Y168500D01*
X302999Y168000D01*
X301500D01*
X302500D02*
X303499Y167000D01*
X304499D02*
X305499D01*
X304999D01*
Y169999D01*
X304499Y169499D01*
X306998D02*
X307498Y169999D01*
X308498D01*
X308998Y169499D01*
Y168999D01*
X308498Y168500D01*
X308998Y168000D01*
Y167500D01*
X308498Y167000D01*
X307498D01*
X306998Y167500D01*
Y168000D01*
X307498Y168500D01*
X306998Y168999D01*
Y169499D01*
X307498Y168500D02*
X308498D01*
X288500Y149500D02*
Y152499D01*
X290000D01*
X290499Y151999D01*
Y150999D01*
X290000Y150500D01*
X288500D01*
X289500D02*
X290499Y149500D01*
X291499D02*
X292499D01*
X291999D01*
Y152499D01*
X291499Y151999D01*
X293998Y152499D02*
X295998D01*
Y151999D01*
X293998Y150000D01*
Y149500D01*
X106500Y188000D02*
Y190999D01*
X108000D01*
X108499Y190499D01*
Y189499D01*
X108000Y189000D01*
X106500D01*
X107500D02*
X108499Y188000D01*
X109499D02*
X110499D01*
X109999D01*
Y190999D01*
X109499Y190499D01*
X113998Y190999D02*
X112998Y190499D01*
X111998Y189499D01*
Y188500D01*
X112498Y188000D01*
X113498D01*
X113998Y188500D01*
Y189000D01*
X113498Y189499D01*
X111998D01*
X117999Y187999D02*
X117499Y188499D01*
X116500D01*
X116000Y187999D01*
Y186000D01*
X116500Y185500D01*
X117499D01*
X117999Y186000D01*
X118999Y187999D02*
X119499Y188499D01*
X120499D01*
X120998Y187999D01*
Y187499D01*
X120499Y186999D01*
X119999D01*
X120499D01*
X120998Y186500D01*
Y186000D01*
X120499Y185500D01*
X119499D01*
X118999Y186000D01*
X220400Y219199D02*
Y216200D01*
X221900D01*
X222399Y216700D01*
Y218699D01*
X221900Y219199D01*
X220400D01*
X223399D02*
X224399D01*
X223899D01*
Y216200D01*
X223399D01*
X224399D01*
X227898Y218699D02*
X227398Y219199D01*
X226398D01*
X225898Y218699D01*
Y218199D01*
X226398Y217700D01*
X227398D01*
X227898Y217200D01*
Y216700D01*
X227398Y216200D01*
X226398D01*
X225898Y216700D01*
X228897Y216200D02*
Y219199D01*
X230397D01*
X230897Y218699D01*
Y217700D01*
X230397Y217200D01*
X228897D01*
X231896Y216200D02*
X232896D01*
X232396D01*
Y219199D01*
X231896Y218699D01*
X345000Y174999D02*
Y172500D01*
X345500Y172000D01*
X346499D01*
X346999Y172500D01*
Y174999D01*
X347999D02*
X349998D01*
Y174499D01*
X347999Y172500D01*
Y172000D01*
X161500Y180499D02*
Y178000D01*
X162000Y177500D01*
X162999D01*
X163499Y178000D01*
Y180499D01*
X166498D02*
X165499Y179999D01*
X164499Y178999D01*
Y178000D01*
X164999Y177500D01*
X165999D01*
X166498Y178000D01*
Y178500D01*
X165999Y178999D01*
X164499D01*
X185000Y162000D02*
Y164999D01*
X186500D01*
X186999Y164499D01*
Y163499D01*
X186500Y163000D01*
X185000D01*
X186000D02*
X186999Y162000D01*
X187999D02*
X188999D01*
X188499D01*
Y164999D01*
X187999Y164499D01*
X192498Y164999D02*
X190498D01*
Y163499D01*
X191498Y163999D01*
X191998D01*
X192498Y163499D01*
Y162500D01*
X191998Y162000D01*
X190998D01*
X190498Y162500D01*
X314000Y142500D02*
Y145499D01*
X315499D01*
X315999Y144999D01*
Y144000D01*
X315499Y143500D01*
X314000D01*
X315000D02*
X315999Y142500D01*
X316999D02*
X317999D01*
X317499D01*
Y145499D01*
X316999Y144999D01*
X320998Y142500D02*
Y145499D01*
X319498Y144000D01*
X321498D01*
X176000Y162000D02*
Y164999D01*
X177499D01*
X177999Y164499D01*
Y163499D01*
X177499Y163000D01*
X176000D01*
X177000D02*
X177999Y162000D01*
X178999D02*
X179999D01*
X179499D01*
Y164999D01*
X178999Y164499D01*
X181498D02*
X181998Y164999D01*
X182998D01*
X183498Y164499D01*
Y163999D01*
X182998Y163499D01*
X182498D01*
X182998D01*
X183498Y163000D01*
Y162500D01*
X182998Y162000D01*
X181998D01*
X181498Y162500D01*
X208000Y158500D02*
Y161499D01*
X209500D01*
X209999Y160999D01*
Y160000D01*
X209500Y159500D01*
X208000D01*
X209000D02*
X209999Y158500D01*
X210999D02*
X211999D01*
X211499D01*
Y161499D01*
X210999Y160999D01*
X215498Y158500D02*
X213498D01*
X215498Y160499D01*
Y160999D01*
X214998Y161499D01*
X213998D01*
X213498Y160999D01*
X199499Y162500D02*
Y164499D01*
X199000Y164999D01*
X198000D01*
X197500Y164499D01*
Y162500D01*
X198000Y162000D01*
X199000D01*
X198500Y163000D02*
X199499Y162000D01*
X199000D02*
X199499Y162500D01*
X200499Y162000D02*
X201499D01*
X200999D01*
Y164999D01*
X200499Y164499D01*
X325499Y134499D02*
X324999Y134999D01*
X324000D01*
X323500Y134499D01*
Y132500D01*
X324000Y132000D01*
X324999D01*
X325499Y132500D01*
X328498Y132000D02*
X326499D01*
X328498Y133999D01*
Y134499D01*
X327998Y134999D01*
X326999D01*
X326499Y134499D01*
X329498D02*
X329998Y134999D01*
X330998D01*
X331497Y134499D01*
Y132500D01*
X330998Y132000D01*
X329998D01*
X329498Y132500D01*
Y134499D01*
X305999Y162999D02*
X305500Y163499D01*
X304500D01*
X304000Y162999D01*
Y161000D01*
X304500Y160500D01*
X305500D01*
X305999Y161000D01*
X306999Y160500D02*
X307999D01*
X307499D01*
Y163499D01*
X306999Y162999D01*
X309498Y161000D02*
X309998Y160500D01*
X310998D01*
X311498Y161000D01*
Y162999D01*
X310998Y163499D01*
X309998D01*
X309498Y162999D01*
Y162499D01*
X309998Y161999D01*
X311498D01*
X325499Y179999D02*
X324999Y180499D01*
X324000D01*
X323500Y179999D01*
Y178000D01*
X324000Y177500D01*
X324999D01*
X325499Y178000D01*
X326499Y177500D02*
X327499D01*
X326999D01*
Y180499D01*
X326499Y179999D01*
X328998D02*
X329498Y180499D01*
X330498D01*
X330998Y179999D01*
Y179499D01*
X330498Y178999D01*
X330998Y178500D01*
Y178000D01*
X330498Y177500D01*
X329498D01*
X328998Y178000D01*
Y178500D01*
X329498Y178999D01*
X328998Y179499D01*
Y179999D01*
X329498Y178999D02*
X330498D01*
X87500Y179499D02*
Y177000D01*
X88000Y176500D01*
X88999D01*
X89499Y177000D01*
Y179499D01*
X90499Y178999D02*
X90999Y179499D01*
X91999D01*
X92498Y178999D01*
Y178499D01*
X91999Y177999D01*
X91499D01*
X91999D01*
X92498Y177500D01*
Y177000D01*
X91999Y176500D01*
X90999D01*
X90499Y177000D01*
X292001Y214999D02*
X291501Y214499D01*
Y213500D01*
X292001Y213000D01*
X294000D01*
X294500Y213500D01*
Y214499D01*
X294000Y214999D01*
X294500Y215999D02*
Y216999D01*
Y216499D01*
X291501D01*
X292001Y215999D01*
X291501Y218498D02*
Y220498D01*
X292001D01*
X294000Y218498D01*
X294500D01*
X309501Y228999D02*
X309001Y228500D01*
Y227500D01*
X309501Y227000D01*
X311500D01*
X312000Y227500D01*
Y228500D01*
X311500Y228999D01*
X312000Y229999D02*
Y230999D01*
Y230499D01*
X309001D01*
X309501Y229999D01*
X309001Y234498D02*
X309501Y233498D01*
X310501Y232498D01*
X311500D01*
X312000Y232998D01*
Y233998D01*
X311500Y234498D01*
X311000D01*
X310501Y233998D01*
Y232498D01*
X131999Y193999D02*
X131500Y194499D01*
X130500D01*
X130000Y193999D01*
Y192000D01*
X130500Y191500D01*
X131500D01*
X131999Y192000D01*
X132999Y191500D02*
X133999D01*
X133499D01*
Y194499D01*
X132999Y193999D01*
X137498Y194499D02*
X135498D01*
Y192999D01*
X136498Y193499D01*
X136998D01*
X137498Y192999D01*
Y192000D01*
X136998Y191500D01*
X135998D01*
X135498Y192000D01*
X98000Y239500D02*
Y242499D01*
X99499D01*
X99999Y241999D01*
Y241000D01*
X99499Y240500D01*
X98000D01*
X99000D02*
X99999Y239500D01*
X100999D02*
X101999D01*
X101499D01*
Y242499D01*
X100999Y241999D01*
X103498Y239500D02*
X104498D01*
X103998D01*
Y242499D01*
X103498Y241999D01*
X115000Y240500D02*
Y243499D01*
X116499D01*
X116999Y242999D01*
Y242000D01*
X116499Y241500D01*
X115000D01*
X116000D02*
X116999Y240500D01*
X117999D02*
X118999D01*
X118499D01*
Y243499D01*
X117999Y242999D01*
X120498D02*
X120998Y243499D01*
X121998D01*
X122498Y242999D01*
Y241000D01*
X121998Y240500D01*
X120998D01*
X120498Y241000D01*
Y242999D01*
X114499Y230499D02*
X113999Y230999D01*
X113000D01*
X112500Y230499D01*
Y228500D01*
X113000Y228000D01*
X113999D01*
X114499Y228500D01*
X115499Y228000D02*
X116499D01*
X115999D01*
Y230999D01*
X115499Y230499D01*
X117998D02*
X118498Y230999D01*
X119498D01*
X119998Y230499D01*
Y229999D01*
X119498Y229500D01*
X118998D01*
X119498D01*
X119998Y229000D01*
Y228500D01*
X119498Y228000D01*
X118498D01*
X117998Y228500D01*
X320000Y228499D02*
Y226000D01*
X320500Y225500D01*
X321499D01*
X321999Y226000D01*
Y228499D01*
X324499Y225500D02*
Y228499D01*
X322999Y226999D01*
X324998D01*
X351000Y221500D02*
Y224499D01*
X352500D01*
X352999Y223999D01*
Y223000D01*
X352500Y222500D01*
X351000D01*
X352000D02*
X352999Y221500D01*
X353999Y222000D02*
X354499Y221500D01*
X355499D01*
X355998Y222000D01*
Y223999D01*
X355499Y224499D01*
X354499D01*
X353999Y223999D01*
Y223499D01*
X354499Y223000D01*
X355998D01*
X329500Y238500D02*
Y241499D01*
X330999D01*
X331499Y240999D01*
Y240000D01*
X330999Y239500D01*
X329500D01*
X330500D02*
X331499Y238500D01*
X332499Y240999D02*
X332999Y241499D01*
X333998D01*
X334498Y240999D01*
Y240499D01*
X333998Y240000D01*
X334498Y239500D01*
Y239000D01*
X333998Y238500D01*
X332999D01*
X332499Y239000D01*
Y239500D01*
X332999Y240000D01*
X332499Y240499D01*
Y240999D01*
X332999Y240000D02*
X333998D01*
X311000Y249500D02*
Y252499D01*
X312499D01*
X312999Y251999D01*
Y250999D01*
X312499Y250500D01*
X311000D01*
X312000D02*
X312999Y249500D01*
X313999Y252499D02*
X315998D01*
Y251999D01*
X313999Y250000D01*
Y249500D01*
X322500Y255000D02*
Y257999D01*
X324000D01*
X324499Y257499D01*
Y256500D01*
X324000Y256000D01*
X322500D01*
X323500D02*
X324499Y255000D01*
X327498Y257999D02*
X326499Y257499D01*
X325499Y256500D01*
Y255500D01*
X325999Y255000D01*
X326998D01*
X327498Y255500D01*
Y256000D01*
X326998Y256500D01*
X325499D01*
X342999Y229999D02*
X342499Y230499D01*
X341500D01*
X341000Y229999D01*
Y228000D01*
X341500Y227500D01*
X342499D01*
X342999Y228000D01*
X343999Y227500D02*
X344999D01*
X344499D01*
Y230499D01*
X343999Y229999D01*
X348498Y227500D02*
X346498D01*
X348498Y229499D01*
Y229999D01*
X347998Y230499D01*
X346998D01*
X346498Y229999D01*
X332499Y250499D02*
X331999Y250999D01*
X331000D01*
X330500Y250499D01*
Y248500D01*
X331000Y248000D01*
X331999D01*
X332499Y248500D01*
X333499Y248000D02*
X334499D01*
X333999D01*
Y250999D01*
X333499Y250499D01*
X335998Y248000D02*
X336998D01*
X336498D01*
Y250999D01*
X335998Y250499D01*
X160499Y165999D02*
X160000Y166499D01*
X159000D01*
X158500Y165999D01*
Y164000D01*
X159000Y163500D01*
X160000D01*
X160499Y164000D01*
X161499Y163500D02*
X162499D01*
X161999D01*
Y166499D01*
X161499Y165999D01*
X163998D02*
X164498Y166499D01*
X165498D01*
X165998Y165999D01*
Y164000D01*
X165498Y163500D01*
X164498D01*
X163998Y164000D01*
Y165999D01*
X338500Y210999D02*
Y208500D01*
X339000Y208000D01*
X340000D01*
X340499Y208500D01*
Y210999D01*
X343498Y208000D02*
X341499D01*
X343498Y209999D01*
Y210499D01*
X342999Y210999D01*
X341999D01*
X341499Y210499D01*
X314000Y160500D02*
Y163499D01*
X315499D01*
X315999Y162999D01*
Y161999D01*
X315499Y161500D01*
X314000D01*
X315000D02*
X315999Y160500D01*
X318998Y163499D02*
X316999D01*
Y161999D01*
X317999Y162499D01*
X318498D01*
X318998Y161999D01*
Y161000D01*
X318498Y160500D01*
X317499D01*
X316999Y161000D01*
X329500Y183500D02*
Y186499D01*
X330999D01*
X331499Y185999D01*
Y185000D01*
X330999Y184500D01*
X329500D01*
X330500D02*
X331499Y183500D01*
X333998D02*
Y186499D01*
X332499Y185000D01*
X334498D01*
X338000Y200500D02*
Y203499D01*
X339499D01*
X339999Y202999D01*
Y201999D01*
X339499Y201500D01*
X338000D01*
X339000D02*
X339999Y200500D01*
X340999Y202999D02*
X341499Y203499D01*
X342498D01*
X342998Y202999D01*
Y202499D01*
X342498Y201999D01*
X341999D01*
X342498D01*
X342998Y201500D01*
Y201000D01*
X342498Y200500D01*
X341499D01*
X340999Y201000D01*
X297500Y203672D02*
Y200673D01*
X299499D01*
X300499D02*
X301499D01*
X300999D01*
Y203672D01*
X300499Y203172D01*
X308500Y197999D02*
Y195000D01*
X309999D01*
X310499Y195500D01*
Y197499D01*
X309999Y197999D01*
X308500D01*
X313498D02*
X311499D01*
Y196500D01*
X312499Y196999D01*
X312999D01*
X313498Y196500D01*
Y195500D01*
X312999Y195000D01*
X311999D01*
X311499Y195500D01*
X101000Y194500D02*
X98001D01*
Y196000D01*
X98501Y196499D01*
X99501D01*
X100000Y196000D01*
Y194500D01*
Y195500D02*
X101000Y196499D01*
Y199498D02*
Y197499D01*
X99001Y199498D01*
X98501D01*
X98001Y198999D01*
Y197999D01*
X98501Y197499D01*
X108000Y217500D02*
X105001D01*
Y219000D01*
X105501Y219499D01*
X106500D01*
X107000Y219000D01*
Y217500D01*
Y218500D02*
X108000Y219499D01*
Y220499D02*
Y221499D01*
Y220999D01*
X105001D01*
X105501Y220499D01*
X98001Y208500D02*
X101000D01*
Y209999D01*
X100500Y210499D01*
X98501D01*
X98001Y209999D01*
Y208500D01*
X98501Y213498D02*
X98001Y212999D01*
Y211999D01*
X98501Y211499D01*
X99001D01*
X99501Y211999D01*
Y212999D01*
X100000Y213498D01*
X100500D01*
X101000Y212999D01*
Y211999D01*
X100500Y211499D01*
X101000Y214498D02*
Y215498D01*
Y214998D01*
X98001D01*
X98501Y214498D01*
X299499Y162999D02*
X299000Y163499D01*
X298000D01*
X297500Y162999D01*
Y161000D01*
X298000Y160500D01*
X299000D01*
X299499Y161000D01*
X300499D02*
X300999Y160500D01*
X301998D01*
X302498Y161000D01*
Y162999D01*
X301998Y163499D01*
X300999D01*
X300499Y162999D01*
Y162499D01*
X300999Y161999D01*
X302498D01*
X132501Y166499D02*
X132001Y165999D01*
Y165000D01*
X132501Y164500D01*
X134500D01*
X135000Y165000D01*
Y165999D01*
X134500Y166499D01*
X132501Y167499D02*
X132001Y167999D01*
Y168999D01*
X132501Y169498D01*
X133001D01*
X133501Y168999D01*
X134000Y169498D01*
X134500D01*
X135000Y168999D01*
Y167999D01*
X134500Y167499D01*
X134000D01*
X133501Y167999D01*
X133001Y167499D01*
X132501D01*
X133501Y167999D02*
Y168999D01*
X82001Y170999D02*
X81501Y170500D01*
Y169500D01*
X82001Y169000D01*
X84000D01*
X84500Y169500D01*
Y170500D01*
X84000Y170999D01*
X81501Y171999D02*
Y173998D01*
X82001D01*
X84000Y171999D01*
X84500D01*
X130499Y255501D02*
X130999Y256000D01*
Y257000D01*
X130499Y257500D01*
X128500D01*
X128000Y257000D01*
Y256000D01*
X128500Y255501D01*
X130999Y252502D02*
X130499Y253501D01*
X129499Y254501D01*
X128500D01*
X128000Y254001D01*
Y253001D01*
X128500Y252502D01*
X129000D01*
X129499Y253001D01*
Y254501D01*
X303999Y181499D02*
X303500Y181999D01*
X302500D01*
X302000Y181499D01*
Y179500D01*
X302500Y179000D01*
X303500D01*
X303999Y179500D01*
X306998Y181999D02*
X304999D01*
Y180499D01*
X305999Y180999D01*
X306499D01*
X306998Y180499D01*
Y179500D01*
X306499Y179000D01*
X305499D01*
X304999Y179500D01*
X311499Y181499D02*
X310999Y181999D01*
X310000D01*
X309500Y181499D01*
Y179500D01*
X310000Y179000D01*
X310999D01*
X311499Y179500D01*
X313999Y179000D02*
Y181999D01*
X312499Y180499D01*
X314498D01*
X124001Y200500D02*
X126500D01*
X127000Y201000D01*
Y201999D01*
X126500Y202499D01*
X124001D01*
X127000Y203499D02*
Y204499D01*
Y203999D01*
X124001D01*
X124501Y203499D01*
X350999Y212999D02*
X350500Y213499D01*
X349500D01*
X349000Y212999D01*
Y211000D01*
X349500Y210500D01*
X350500D01*
X350999Y211000D01*
X353998Y210500D02*
X351999D01*
X353998Y212499D01*
Y212999D01*
X353499Y213499D01*
X352499D01*
X351999Y212999D01*
X124499Y213499D02*
X124000Y213999D01*
X123000D01*
X122500Y213499D01*
Y211500D01*
X123000Y211000D01*
X124000D01*
X124499Y211500D01*
X125499Y211000D02*
X126499D01*
X125999D01*
Y213999D01*
X125499Y213499D01*
M02*
