G04*
G04 #@! TF.GenerationSoftware,Altium Limited,Altium Designer,19.1.7 (138)*
G04*
G04 Layer_Color=16711935*
%FSLAX25Y25*%
%MOIN*%
G70*
G01*
G75*
%ADD33O,0.05131X0.07493*%
%ADD34O,0.05131X0.07887*%
%ADD35O,0.05131X0.09461*%
%ADD36C,0.05800*%
%ADD37C,0.05300*%
%ADD38C,0.03300*%
%ADD67R,0.09068X0.06312*%
%ADD68R,0.06706X0.02572*%
D33*
X142732Y211524D02*
D03*
D34*
Y189476D02*
D03*
D35*
X134268Y200500D02*
D03*
D36*
X300500Y243500D02*
D03*
X145000Y239000D02*
D03*
X346000Y219500D02*
D03*
X186500Y152000D02*
D03*
X117500Y258500D02*
D03*
X95500Y228783D02*
D03*
X307000Y143972D02*
D03*
X338224Y141500D02*
D03*
X353500Y153500D02*
D03*
Y163500D02*
D03*
X336500Y173500D02*
D03*
X145000Y229500D02*
D03*
X339500Y190500D02*
D03*
X126000Y195500D02*
D03*
X124500Y218000D02*
D03*
X328000Y196474D02*
D03*
X337000Y219500D02*
D03*
X353500Y229000D02*
D03*
D37*
X286500Y243500D02*
D03*
X279500Y151500D02*
D03*
X126500Y182000D02*
D03*
X110000Y184000D02*
D03*
X95328D02*
D03*
X104000D02*
D03*
X134000Y145500D02*
D03*
X119000Y136000D02*
D03*
X128500Y141500D02*
D03*
X88500Y184000D02*
D03*
D38*
X87500Y171000D02*
D03*
X171636Y155000D02*
D03*
X171500Y149000D02*
D03*
X308500Y238000D02*
D03*
X118500Y188500D02*
D03*
X133500Y161500D02*
D03*
X131500Y246500D02*
D03*
X95500D02*
D03*
X330000Y230000D02*
D03*
X337453Y239902D02*
D03*
X345000Y247500D02*
D03*
D67*
X131327Y228783D02*
D03*
X95500D02*
D03*
X131327Y246500D02*
D03*
X95500D02*
D03*
X309000Y247217D02*
D03*
X344827D02*
D03*
X309000Y229500D02*
D03*
X344827D02*
D03*
D68*
X141748Y205618D02*
D03*
Y203059D02*
D03*
Y200500D02*
D03*
Y197941D02*
D03*
Y195382D02*
D03*
M02*
