G04*
G04 #@! TF.GenerationSoftware,Altium Limited,Altium Designer,19.1.8 (144)*
G04*
G04 Layer_Color=16711935*
%FSLAX25Y25*%
%MOIN*%
G70*
G01*
G75*
%ADD31C,0.06800*%
%ADD32C,0.05524*%
%ADD33R,0.05524X0.05524*%
%ADD34O,0.05131X0.07493*%
%ADD35O,0.05131X0.07887*%
%ADD36O,0.05131X0.09461*%
%ADD37C,0.08674*%
%ADD38C,0.05800*%
%ADD39C,0.03300*%
%ADD40C,0.05300*%
%ADD72R,0.09068X0.06312*%
%ADD73R,0.07300X0.02572*%
D31*
X225374Y238500D02*
D03*
X209626D02*
D03*
X217500D02*
D03*
D32*
X105000Y232126D02*
D03*
D33*
Y240000D02*
D03*
D34*
X142500Y212500D02*
D03*
D35*
Y190453D02*
D03*
D36*
X134035Y201476D02*
D03*
D37*
X201358Y238500D02*
D03*
X233642D02*
D03*
D38*
X144500Y235500D02*
D03*
X161000Y240000D02*
D03*
X144500Y228000D02*
D03*
X304500Y230283D02*
D03*
X330000Y197000D02*
D03*
X301000Y180500D02*
D03*
X186500Y152000D02*
D03*
X302500Y143972D02*
D03*
X333724Y141500D02*
D03*
X349000Y153500D02*
D03*
Y163500D02*
D03*
X335500Y173500D02*
D03*
X124500Y220000D02*
D03*
X304500Y191744D02*
D03*
D39*
X340453Y248047D02*
D03*
X304500Y248000D02*
D03*
X133500Y162500D02*
D03*
X87500Y171000D02*
D03*
X118500Y190500D02*
D03*
D40*
X277500Y156500D02*
D03*
X128500Y142500D02*
D03*
X126000Y197500D02*
D03*
X127000Y182500D02*
D03*
X94500Y215000D02*
D03*
X91547Y185000D02*
D03*
X110500Y185500D02*
D03*
X103000D02*
D03*
X134000Y146500D02*
D03*
X119000Y137000D02*
D03*
D72*
X304500Y248000D02*
D03*
X340327D02*
D03*
X304500Y230283D02*
D03*
X340327D02*
D03*
D73*
X141816Y206594D02*
D03*
Y204035D02*
D03*
Y201476D02*
D03*
Y198917D02*
D03*
Y196358D02*
D03*
M02*
