G04*
G04 #@! TF.GenerationSoftware,Altium Limited,Altium Designer,19.1.8 (144)*
G04*
G04 Layer_Color=65535*
%FSLAX25Y25*%
%MOIN*%
G70*
G01*
G75*
%ADD10C,0.00984*%
%ADD11C,0.02362*%
%ADD12C,0.00394*%
%ADD13C,0.00787*%
%ADD14C,0.00492*%
%ADD15C,0.01575*%
%ADD16C,0.00600*%
D10*
X160500Y178114D02*
G03*
X160500Y178114I-492J0D01*
G01*
X195055Y161980D02*
G03*
X195055Y161980I-492J0D01*
G01*
X320764Y169346D02*
G03*
X320764Y169346I-492J0D01*
G01*
X95153Y174272D02*
G03*
X95153Y174272I-492J0D01*
G01*
X108209Y197276D02*
G03*
X108209Y197276I-492J0D01*
G01*
D11*
X155283Y169846D02*
G03*
X155283Y169846I-1181J0D01*
G01*
X329819Y164406D02*
G03*
X329819Y164406I-1181J0D01*
G01*
X104110Y168071D02*
G03*
X104110Y168071I-1181J0D01*
G01*
D12*
X308256Y183354D02*
G03*
X308256Y183354I-197J0D01*
G01*
D13*
X316122Y244260D02*
Y245835D01*
X318878Y244260D02*
Y245835D01*
X328878Y244213D02*
Y245787D01*
X326122Y244213D02*
Y245787D01*
X137961Y173784D02*
X158039D01*
X137961Y159216D02*
X158039D01*
Y173784D01*
X137961Y159216D02*
Y173784D01*
X314106Y207732D02*
X314894D01*
X314106Y224268D02*
X314894D01*
X287213Y157878D02*
X288787D01*
X287213Y155122D02*
X288787D01*
X300213Y174878D02*
X301787D01*
X300213Y172122D02*
X301787D01*
X98760Y189622D02*
X100335D01*
X98760Y192378D02*
X100335D01*
X210760Y153122D02*
X212335D01*
X210760Y155878D02*
X212335D01*
X201059Y148752D02*
Y151350D01*
X197850Y148752D02*
X201059D01*
Y157650D02*
Y160248D01*
X197850D02*
X201059D01*
X322713Y145378D02*
X324287D01*
X322713Y142622D02*
X324287D01*
X313378Y153213D02*
Y154787D01*
X310622Y153213D02*
Y154787D01*
X324701Y148658D02*
Y168342D01*
X337299Y148658D02*
Y168342D01*
X324701D02*
X337299D01*
X324701Y148658D02*
X337299D01*
X98992Y147992D02*
Y172008D01*
X123008Y147992D02*
Y172008D01*
X98992D02*
X123008D01*
X98992Y147992D02*
X123008D01*
X175622Y153213D02*
Y154787D01*
X178378Y153213D02*
Y154787D01*
X185713Y156622D02*
X187287D01*
X185713Y159378D02*
X187287D01*
X108898Y202591D02*
X121102D01*
X108898Y201409D02*
X121102D01*
Y202591D01*
X108898Y201409D02*
Y202591D01*
X309213Y180378D02*
X310787D01*
X309213Y177622D02*
X310787D01*
X320165Y180378D02*
X321740D01*
X320165Y177622D02*
X321740D01*
X112878Y215713D02*
Y217287D01*
X110122Y215713D02*
Y217287D01*
X103122Y199213D02*
Y200787D01*
X105878Y199213D02*
Y200787D01*
D14*
X309476Y189614D02*
Y199024D01*
X318886D01*
X309476Y189614D02*
X318886D01*
Y199024D01*
D15*
X102925Y207350D02*
X106075D01*
D16*
X276000Y226000D02*
X278999D01*
Y224500D01*
X278499Y224001D01*
X277500D01*
X277000Y224500D01*
Y226000D01*
Y225000D02*
X276000Y224001D01*
X277999Y223001D02*
X276500D01*
X276000Y222501D01*
Y221002D01*
X275500D01*
X275000Y221501D01*
Y222001D01*
X276000Y221002D02*
X277999D01*
Y219502D02*
Y218502D01*
X277500Y218003D01*
X276000D01*
Y219502D01*
X276500Y220002D01*
X277000Y219502D01*
Y218003D01*
X276000Y217003D02*
X277999D01*
Y215503D01*
X277500Y215004D01*
X276000D01*
X278999Y211005D02*
Y209005D01*
X278499D01*
X276500Y211005D01*
X276000D01*
Y209005D01*
X277999Y208006D02*
X276500D01*
X276000Y207506D01*
Y206007D01*
X277999D01*
X276000Y205007D02*
X277999D01*
Y204507D01*
X277500Y204007D01*
X276000D01*
X277500D01*
X277999Y203507D01*
X277500Y203007D01*
X276000D01*
X278999Y202008D02*
X276000D01*
Y200508D01*
X276500Y200008D01*
X277000D01*
X277500Y200508D01*
Y202008D01*
Y200508D01*
X277999Y200008D01*
X278499D01*
X278999Y200508D01*
Y202008D01*
X277999Y199009D02*
X276000D01*
X277000D01*
X277500Y198509D01*
X277999Y198009D01*
Y197509D01*
Y196010D02*
X276500D01*
X276000Y195510D01*
Y194010D01*
X277999D01*
X276000Y193011D02*
X277999D01*
Y191511D01*
X277500Y191011D01*
X276000D01*
Y190012D02*
X277999D01*
Y188512D01*
X277500Y188012D01*
X276000D01*
Y185513D02*
Y186513D01*
X276500Y187013D01*
X277500D01*
X277999Y186513D01*
Y185513D01*
X277500Y185013D01*
X277000D01*
Y187013D01*
X276000Y184014D02*
X277999D01*
Y182514D01*
X277500Y182014D01*
X276000D01*
X271499Y226000D02*
X268500D01*
Y224500D01*
X269000Y224001D01*
X270999D01*
X271499Y224500D01*
Y226000D01*
X268500Y222501D02*
Y221501D01*
X269000Y221002D01*
X270000D01*
X270499Y221501D01*
Y222501D01*
X270000Y223001D01*
X269000D01*
X268500Y222501D01*
X267500Y219002D02*
Y218502D01*
X268000Y218003D01*
X270499D01*
Y219502D01*
X270000Y220002D01*
X269000D01*
X268500Y219502D01*
Y218003D01*
X271499Y214004D02*
Y212004D01*
Y213004D01*
X268500D01*
X270499Y210505D02*
Y209505D01*
X270000Y209005D01*
X268500D01*
Y210505D01*
X269000Y211005D01*
X269500Y210505D01*
Y209005D01*
X267500Y207006D02*
Y206506D01*
X268000Y206007D01*
X270499D01*
Y207506D01*
X270000Y208006D01*
X269000D01*
X268500Y207506D01*
Y206007D01*
Y202008D02*
X271499D01*
Y200508D01*
X270999Y200008D01*
X270000D01*
X269500Y200508D01*
Y202008D01*
Y201008D02*
X268500Y200008D01*
Y197509D02*
Y198509D01*
X269000Y199009D01*
X270000D01*
X270499Y198509D01*
Y197509D01*
X270000Y197009D01*
X269500D01*
Y199009D01*
X270499Y196010D02*
X268500Y195010D01*
X270499Y194010D01*
X270999Y190012D02*
X271499Y189512D01*
Y188512D01*
X270999Y188012D01*
X270499D01*
X270000Y188512D01*
Y189012D01*
Y188512D01*
X269500Y188012D01*
X269000D01*
X268500Y188512D01*
Y189512D01*
X269000Y190012D01*
X262999Y224001D02*
X263499Y224500D01*
Y225500D01*
X262999Y226000D01*
X262499D01*
X262000Y225500D01*
Y224500D01*
X261500Y224001D01*
X261000D01*
X260500Y224500D01*
Y225500D01*
X261000Y226000D01*
X259500Y223001D02*
X262499D01*
Y221501D01*
X262000Y221002D01*
X261000D01*
X260500Y221501D01*
Y223001D01*
X262499Y220002D02*
X260500D01*
X261500D01*
X262000Y219502D01*
X262499Y219002D01*
Y218502D01*
X260500Y217003D02*
Y216003D01*
Y216503D01*
X262499D01*
Y217003D01*
X260500Y214504D02*
X262499D01*
Y213004D01*
X262000Y212504D01*
X260500D01*
X259500Y210505D02*
Y210005D01*
X260000Y209505D01*
X262499D01*
Y211005D01*
X262000Y211505D01*
X261000D01*
X260500Y211005D01*
Y209505D01*
Y203507D02*
Y205507D01*
X262499Y203507D01*
X262999D01*
X263499Y204007D01*
Y205007D01*
X262999Y205507D01*
Y202508D02*
X263499Y202008D01*
Y201008D01*
X262999Y200508D01*
X261000D01*
X260500Y201008D01*
Y202008D01*
X261000Y202508D01*
X262999D01*
X260500Y197509D02*
Y199509D01*
X262499Y197509D01*
X262999D01*
X263499Y198009D01*
Y199009D01*
X262999Y199509D01*
Y196510D02*
X263499Y196010D01*
Y195010D01*
X262999Y194510D01*
X261000D01*
X260500Y195010D01*
Y196010D01*
X261000Y196510D01*
X262999D01*
X139499Y149499D02*
X138999Y149999D01*
X138000D01*
X137500Y149499D01*
Y147500D01*
X138000Y147000D01*
X138999D01*
X139499Y147500D01*
X140499Y149999D02*
Y147000D01*
Y148000D01*
X142498Y149999D01*
X140999Y148500D01*
X142498Y147000D01*
X104500Y134000D02*
Y136999D01*
X105500Y135999D01*
X106499Y136999D01*
Y134000D01*
X108999Y136999D02*
X107999D01*
X107499Y136499D01*
Y134500D01*
X107999Y134000D01*
X108999D01*
X109498Y134500D01*
Y136499D01*
X108999Y136999D01*
X112497Y136499D02*
X111998Y136999D01*
X110998D01*
X110498Y136499D01*
Y135999D01*
X110998Y135500D01*
X111998D01*
X112497Y135000D01*
Y134500D01*
X111998Y134000D01*
X110998D01*
X110498Y134500D01*
X113497Y136999D02*
X114497D01*
X113997D01*
Y134000D01*
X113497D01*
X114497D01*
X307000Y241000D02*
Y243999D01*
X308500D01*
X308999Y243499D01*
Y242499D01*
X308500Y242000D01*
X307000D01*
X308000D02*
X308999Y241000D01*
X309999D02*
X310999D01*
X310499D01*
Y243999D01*
X309999Y243499D01*
X312498Y241000D02*
X313498D01*
X312998D01*
Y243999D01*
X312498Y243499D01*
X323000Y252500D02*
Y255499D01*
X324500D01*
X324999Y254999D01*
Y253999D01*
X324500Y253500D01*
X323000D01*
X324000D02*
X324999Y252500D01*
X325999D02*
X326999D01*
X326499D01*
Y255499D01*
X325999Y254999D01*
X328498D02*
X328998Y255499D01*
X329998D01*
X330498Y254999D01*
Y253000D01*
X329998Y252500D01*
X328998D01*
X328498Y253000D01*
Y254999D01*
X323499Y231999D02*
X323000Y232499D01*
X322000D01*
X321500Y231999D01*
Y230000D01*
X322000Y229500D01*
X323000D01*
X323499Y230000D01*
X324499Y229500D02*
X325499D01*
X324999D01*
Y232499D01*
X324499Y231999D01*
X326998D02*
X327498Y232499D01*
X328498D01*
X328998Y231999D01*
Y231499D01*
X328498Y230999D01*
X327998D01*
X328498D01*
X328998Y230500D01*
Y230000D01*
X328498Y229500D01*
X327498D01*
X326998Y230000D01*
X131024Y178333D02*
Y175834D01*
X131524Y175334D01*
X132523D01*
X133023Y175834D01*
Y178333D01*
X136022D02*
X134023D01*
Y176834D01*
X135022Y177334D01*
X135522D01*
X136022Y176834D01*
Y175834D01*
X135522Y175334D01*
X134522D01*
X134023Y175834D01*
X297000Y166500D02*
Y169499D01*
X298499D01*
X298999Y168999D01*
Y167999D01*
X298499Y167500D01*
X297000D01*
X298000D02*
X298999Y166500D01*
X299999D02*
X300999D01*
X300499D01*
Y169499D01*
X299999Y168999D01*
X302498D02*
X302998Y169499D01*
X303998D01*
X304498Y168999D01*
Y168499D01*
X303998Y167999D01*
X304498Y167500D01*
Y167000D01*
X303998Y166500D01*
X302998D01*
X302498Y167000D01*
Y167500D01*
X302998Y167999D01*
X302498Y168499D01*
Y168999D01*
X302998Y167999D02*
X303998D01*
X283000Y160000D02*
Y162999D01*
X284500D01*
X284999Y162499D01*
Y161500D01*
X284500Y161000D01*
X283000D01*
X284000D02*
X284999Y160000D01*
X285999D02*
X286999D01*
X286499D01*
Y162999D01*
X285999Y162499D01*
X288498Y162999D02*
X290498D01*
Y162499D01*
X288498Y160500D01*
Y160000D01*
X106047Y189500D02*
Y192499D01*
X107547D01*
X108047Y191999D01*
Y190999D01*
X107547Y190500D01*
X106047D01*
X107047D02*
X108047Y189500D01*
X109046D02*
X110046D01*
X109546D01*
Y192499D01*
X109046Y191999D01*
X113545Y192499D02*
X112545Y191999D01*
X111546Y190999D01*
Y190000D01*
X112045Y189500D01*
X113045D01*
X113545Y190000D01*
Y190500D01*
X113045Y190999D01*
X111546D01*
X118499Y188499D02*
X117999Y188999D01*
X117000D01*
X116500Y188499D01*
Y186500D01*
X117000Y186000D01*
X117999D01*
X118499Y186500D01*
X119499Y188499D02*
X119999Y188999D01*
X120999D01*
X121498Y188499D01*
Y187999D01*
X120999Y187499D01*
X120499D01*
X120999D01*
X121498Y187000D01*
Y186500D01*
X120999Y186000D01*
X119999D01*
X119499Y186500D01*
X230000Y218999D02*
Y216000D01*
X231500D01*
X231999Y216500D01*
Y218499D01*
X231500Y218999D01*
X230000D01*
X232999D02*
X233999D01*
X233499D01*
Y216000D01*
X232999D01*
X233999D01*
X237498Y218499D02*
X236998Y218999D01*
X235998D01*
X235498Y218499D01*
Y217999D01*
X235998Y217499D01*
X236998D01*
X237498Y217000D01*
Y216500D01*
X236998Y216000D01*
X235998D01*
X235498Y216500D01*
X238497Y216000D02*
Y218999D01*
X239997D01*
X240497Y218499D01*
Y217499D01*
X239997Y217000D01*
X238497D01*
X241496Y216000D02*
X242496D01*
X241996D01*
Y218999D01*
X241496Y218499D01*
X348500Y170499D02*
Y168000D01*
X349000Y167500D01*
X349999D01*
X350499Y168000D01*
Y170499D01*
X351499D02*
X353498D01*
Y169999D01*
X351499Y168000D01*
Y167500D01*
X185000Y162000D02*
Y164999D01*
X186500D01*
X186999Y164499D01*
Y163499D01*
X186500Y163000D01*
X185000D01*
X186000D02*
X186999Y162000D01*
X187999D02*
X188999D01*
X188499D01*
Y164999D01*
X187999Y164499D01*
X192498Y164999D02*
X190498D01*
Y163499D01*
X191498Y163999D01*
X191998D01*
X192498Y163499D01*
Y162500D01*
X191998Y162000D01*
X190998D01*
X190498Y162500D01*
X309500Y142500D02*
Y145499D01*
X310999D01*
X311499Y144999D01*
Y144000D01*
X310999Y143500D01*
X309500D01*
X310500D02*
X311499Y142500D01*
X312499D02*
X313499D01*
X312999D01*
Y145499D01*
X312499Y144999D01*
X316498Y142500D02*
Y145499D01*
X314998Y144000D01*
X316998D01*
X173500Y150000D02*
X170501D01*
Y151499D01*
X171001Y151999D01*
X172001D01*
X172500Y151499D01*
Y150000D01*
Y151000D02*
X173500Y151999D01*
Y152999D02*
Y153999D01*
Y153499D01*
X170501D01*
X171001Y152999D01*
Y155498D02*
X170501Y155998D01*
Y156998D01*
X171001Y157498D01*
X171501D01*
X172001Y156998D01*
Y156498D01*
Y156998D01*
X172500Y157498D01*
X173000D01*
X173500Y156998D01*
Y155998D01*
X173000Y155498D01*
X208000Y158500D02*
Y161499D01*
X209500D01*
X209999Y160999D01*
Y160000D01*
X209500Y159500D01*
X208000D01*
X209000D02*
X209999Y158500D01*
X210999D02*
X211999D01*
X211499D01*
Y161499D01*
X210999Y160999D01*
X215498Y158500D02*
X213498D01*
X215498Y160499D01*
Y160999D01*
X214998Y161499D01*
X213998D01*
X213498Y160999D01*
X199499Y162500D02*
Y164499D01*
X199000Y164999D01*
X198000D01*
X197500Y164499D01*
Y162500D01*
X198000Y162000D01*
X199000D01*
X198500Y163000D02*
X199499Y162000D01*
X199000D02*
X199499Y162500D01*
X200499Y162000D02*
X201499D01*
X200999D01*
Y164999D01*
X200499Y164499D01*
X320999Y134499D02*
X320499Y134999D01*
X319500D01*
X319000Y134499D01*
Y132500D01*
X319500Y132000D01*
X320499D01*
X320999Y132500D01*
X321999Y132000D02*
X322999D01*
X322499D01*
Y134999D01*
X321999Y134499D01*
X325998Y132000D02*
Y134999D01*
X324498Y133500D01*
X326498D01*
X301499Y162999D02*
X300999Y163499D01*
X300000D01*
X299500Y162999D01*
Y161000D01*
X300000Y160500D01*
X300999D01*
X301499Y161000D01*
X302499Y160500D02*
X303499D01*
X302999D01*
Y163499D01*
X302499Y162999D01*
X304998Y161000D02*
X305498Y160500D01*
X306498D01*
X306998Y161000D01*
Y162999D01*
X306498Y163499D01*
X305498D01*
X304998Y162999D01*
Y162499D01*
X305498Y161999D01*
X306998D01*
X341499Y174499D02*
X341000Y174999D01*
X340000D01*
X339500Y174499D01*
Y172500D01*
X340000Y172000D01*
X341000D01*
X341499Y172500D01*
X342499Y172000D02*
X343499D01*
X342999D01*
Y174999D01*
X342499Y174499D01*
X344998D02*
X345498Y174999D01*
X346498D01*
X346998Y174499D01*
Y173999D01*
X346498Y173500D01*
X346998Y173000D01*
Y172500D01*
X346498Y172000D01*
X345498D01*
X344998Y172500D01*
Y173000D01*
X345498Y173500D01*
X344998Y173999D01*
Y174499D01*
X345498Y173500D02*
X346498D01*
X87500Y180499D02*
Y178000D01*
X88000Y177500D01*
X88999D01*
X89499Y178000D01*
Y180499D01*
X90499Y179999D02*
X90999Y180499D01*
X91999D01*
X92498Y179999D01*
Y179499D01*
X91999Y178999D01*
X91499D01*
X91999D01*
X92498Y178500D01*
Y178000D01*
X91999Y177500D01*
X90999D01*
X90499Y178000D01*
X292001Y214999D02*
X291501Y214499D01*
Y213500D01*
X292001Y213000D01*
X294000D01*
X294500Y213500D01*
Y214499D01*
X294000Y214999D01*
X294500Y215999D02*
Y216999D01*
Y216499D01*
X291501D01*
X292001Y215999D01*
X291501Y218498D02*
Y220498D01*
X292001D01*
X294000Y218498D01*
X294500D01*
X152960Y196724D02*
X152460Y197223D01*
X151461D01*
X150961Y196724D01*
Y194724D01*
X151461Y194224D01*
X152460D01*
X152960Y194724D01*
X153960Y194224D02*
X154959D01*
X154460D01*
Y197223D01*
X153960Y196724D01*
X156459D02*
X156959Y197223D01*
X157958D01*
X158458Y196724D01*
Y194724D01*
X157958Y194224D01*
X156959D01*
X156459Y194724D01*
Y196724D01*
X321500Y203999D02*
Y201500D01*
X322000Y201000D01*
X323000D01*
X323499Y201500D01*
Y203999D01*
X326498Y201000D02*
X324499D01*
X326498Y202999D01*
Y203499D01*
X325998Y203999D01*
X324999D01*
X324499Y203499D01*
X309500Y160500D02*
Y163499D01*
X310999D01*
X311499Y162999D01*
Y161999D01*
X310999Y161500D01*
X309500D01*
X310500D02*
X311499Y160500D01*
X314498Y163499D02*
X312499D01*
Y161999D01*
X313499Y162499D01*
X313999D01*
X314498Y161999D01*
Y161000D01*
X313999Y160500D01*
X312999D01*
X312499Y161000D01*
X327500Y178000D02*
Y180999D01*
X328999D01*
X329499Y180499D01*
Y179499D01*
X328999Y179000D01*
X327500D01*
X328500D02*
X329499Y178000D01*
X331998D02*
Y180999D01*
X330499Y179499D01*
X332498D01*
X309000Y172000D02*
Y174999D01*
X310500D01*
X310999Y174499D01*
Y173500D01*
X310500Y173000D01*
X309000D01*
X310000D02*
X310999Y172000D01*
X311999Y174499D02*
X312499Y174999D01*
X313498D01*
X313998Y174499D01*
Y173999D01*
X313498Y173500D01*
X312999D01*
X313498D01*
X313998Y173000D01*
Y172500D01*
X313498Y172000D01*
X312499D01*
X311999Y172500D01*
X330499Y218000D02*
X327500D01*
Y216001D01*
Y215001D02*
Y214001D01*
Y214501D01*
X330499D01*
X329999Y215001D01*
X101000Y196500D02*
X98001D01*
Y198000D01*
X98501Y198499D01*
X99501D01*
X100000Y198000D01*
Y196500D01*
Y197500D02*
X101000Y198499D01*
Y201498D02*
Y199499D01*
X99001Y201498D01*
X98501D01*
X98001Y200999D01*
Y199999D01*
X98501Y199499D01*
X108000Y219500D02*
X105001D01*
Y221000D01*
X105501Y221499D01*
X106500D01*
X107000Y221000D01*
Y219500D01*
Y220500D02*
X108000Y221499D01*
Y222499D02*
Y223499D01*
Y222999D01*
X105001D01*
X105501Y222499D01*
X98001Y210500D02*
X101000D01*
Y212000D01*
X100500Y212499D01*
X98501D01*
X98001Y212000D01*
Y210500D01*
X98501Y215498D02*
X98001Y214999D01*
Y213999D01*
X98501Y213499D01*
X99001D01*
X99501Y213999D01*
Y214999D01*
X100000Y215498D01*
X100500D01*
X101000Y214999D01*
Y213999D01*
X100500Y213499D01*
X101000Y216498D02*
Y217498D01*
Y216998D01*
X98001D01*
X98501Y216498D01*
X294999Y162999D02*
X294499Y163499D01*
X293500D01*
X293000Y162999D01*
Y161000D01*
X293500Y160500D01*
X294499D01*
X294999Y161000D01*
X295999D02*
X296499Y160500D01*
X297498D01*
X297998Y161000D01*
Y162999D01*
X297498Y163499D01*
X296499D01*
X295999Y162999D01*
Y162499D01*
X296499Y161999D01*
X297998D01*
X132501Y167499D02*
X132001Y166999D01*
Y166000D01*
X132501Y165500D01*
X134500D01*
X135000Y166000D01*
Y166999D01*
X134500Y167499D01*
X132501Y168499D02*
X132001Y168999D01*
Y169999D01*
X132501Y170498D01*
X133001D01*
X133501Y169999D01*
X134000Y170498D01*
X134500D01*
X135000Y169999D01*
Y168999D01*
X134500Y168499D01*
X134000D01*
X133501Y168999D01*
X133001Y168499D01*
X132501D01*
X133501Y168999D02*
Y169999D01*
X82001Y170999D02*
X81501Y170500D01*
Y169500D01*
X82001Y169000D01*
X84000D01*
X84500Y169500D01*
Y170500D01*
X84000Y170999D01*
X81501Y171999D02*
Y173998D01*
X82001D01*
X84000Y171999D01*
X84500D01*
X131001Y183501D02*
X131500Y183001D01*
X132500D01*
X133000Y183501D01*
Y185500D01*
X132500Y186000D01*
X131500D01*
X131001Y185500D01*
X128002Y183001D02*
X129001Y183501D01*
X130001Y184501D01*
Y185500D01*
X129501Y186000D01*
X128501D01*
X128002Y185500D01*
Y185000D01*
X128501Y184501D01*
X130001D01*
X323499Y197499D02*
X323000Y197999D01*
X322000D01*
X321500Y197499D01*
Y195500D01*
X322000Y195000D01*
X323000D01*
X323499Y195500D01*
X326498Y197999D02*
X324499D01*
Y196500D01*
X325499Y196999D01*
X325998D01*
X326498Y196500D01*
Y195500D01*
X325998Y195000D01*
X324999D01*
X324499Y195500D01*
X335499Y189499D02*
X334999Y189999D01*
X334000D01*
X333500Y189499D01*
Y187500D01*
X334000Y187000D01*
X334999D01*
X335499Y187500D01*
X337999Y187000D02*
Y189999D01*
X336499Y188499D01*
X338498D01*
X124001Y202500D02*
X126500D01*
X127000Y203000D01*
Y203999D01*
X126500Y204499D01*
X124001D01*
X127000Y205499D02*
Y206499D01*
Y205999D01*
X124001D01*
X124501Y205499D01*
X298001Y198999D02*
X297501Y198500D01*
Y197500D01*
X298001Y197000D01*
X300000D01*
X300500Y197500D01*
Y198500D01*
X300000Y198999D01*
X300500Y201998D02*
Y199999D01*
X298501Y201998D01*
X298001D01*
X297501Y201499D01*
Y200499D01*
X298001Y199999D01*
X124499Y215499D02*
X124000Y215999D01*
X123000D01*
X122500Y215499D01*
Y213500D01*
X123000Y213000D01*
X124000D01*
X124499Y213500D01*
X125499Y213000D02*
X126499D01*
X125999D01*
Y215999D01*
X125499Y215499D01*
M02*
