M48
;Layer_Color=9474304
;FILE_FORMAT=2:5
INCH,TZ
;TYPE=PLATED
T1F00S00C0.01500
T3F00S00C0.02756
T4F00S00C0.02800
T5F00S00C0.03150
T6F00S00C0.03200
T7F00S00C0.05906
%
T01
X340453Y248047
X304500Y248000
X240500Y193280
Y179500
X218000Y164000
X211500
X183500Y170000
X179000
Y175000
X174000Y175500
X169000Y175000
Y163000
X174050Y165450
X183500Y177500
X139000Y171500
X133500Y162500
X101500Y158500
X87500Y171000
X118500Y190500
T03
X105000Y232126
Y240000
T04
X119000Y137000
X128500Y142500
X134000Y146500
X186500Y152000
X302500Y143972
X333724Y141500
X349000Y153500
Y163500
X335500Y173500
X330000Y197000
X304500Y191744
X301000Y180500
X299000Y207000
X304500Y230283
X277500Y156500
X161000Y229000
Y240000
X124500Y220000
X126000Y197500
X127000Y182500
X110500Y185500
X103000
X91547Y185000
X94500Y215000
T05
X209626Y238500
X217500
X225374
T06
X144500Y228000
Y235500
T07
X201358Y238500
X233642
M30
