M48
;Layer_Color=9474304
;FILE_FORMAT=2:5
INCH,TZ
;TYPE=PLATED
T1F00S00C0.01500
T3F00S00C0.02800
T4F00S00C0.03000
%
T01
X171500Y149000
X171636Y155000
X330000Y230000
X337453Y239902
X345000Y247500
X308500Y238000
X230500Y193280
Y179500
X183500Y177500
X179000Y175000
Y170000
X183500
X174050Y165450
X169000Y163000
X165500Y159000
X169000Y175000
X174000Y175500
X139059Y169280
X133500Y161500
X101500Y157500
X87500Y171000
X118500Y188500
X131500Y246500
X95500
T03
X186500Y152000
X307000Y143972
X338224Y141500
X353500Y153500
Y163500
X336500Y173500
X339500Y190500
X328000Y196474
X337000Y219500
X346000
X353500Y229000
X300500Y243500
X286500Y234500
X298000Y208000
X299500Y191000
X126000Y195500
X124500Y218000
X145000Y229500
Y239000
X117500Y258500
X95500Y228783
T04
X119000Y136000
X128500Y141500
X134000Y145500
X279500Y151500
X286500Y243500
X126500Y182000
X110000Y184000
X104000
X95328
X88500
M30
