G04*
G04 #@! TF.GenerationSoftware,Altium Limited,Altium Designer,19.1.8 (144)*
G04*
G04 Layer_Color=8388736*
%FSLAX25Y25*%
%MOIN*%
G70*
G01*
G75*
%ADD17R,0.04343X0.03556*%
%ADD18R,0.03950X0.04343*%
%ADD19O,0.02572X0.06312*%
%ADD20R,0.07493X0.02178*%
%ADD21R,0.02572X0.06509*%
%ADD22R,0.07887X0.16548*%
%ADD23R,0.04343X0.03950*%
%ADD24R,0.03556X0.04343*%
%ADD25R,0.04343X0.03950*%
G04:AMPARAMS|DCode=26|XSize=31.62mil|YSize=65.09mil|CornerRadius=6.01mil|HoleSize=0mil|Usage=FLASHONLY|Rotation=90.000|XOffset=0mil|YOffset=0mil|HoleType=Round|Shape=RoundedRectangle|*
%AMROUNDEDRECTD26*
21,1,0.03162,0.05307,0,0,90.0*
21,1,0.01961,0.06509,0,0,90.0*
1,1,0.01202,0.02653,0.00980*
1,1,0.01202,0.02653,-0.00980*
1,1,0.01202,-0.02653,-0.00980*
1,1,0.01202,-0.02653,0.00980*
%
%ADD26ROUNDEDRECTD26*%
%ADD27O,0.06115X0.02965*%
%ADD28O,0.02965X0.06115*%
%ADD29R,0.03556X0.05918*%
%ADD30R,0.03950X0.03162*%
%ADD31C,0.06800*%
%ADD32C,0.05524*%
%ADD33R,0.05524X0.05524*%
%ADD34O,0.05131X0.07493*%
%ADD35O,0.05131X0.07887*%
%ADD36O,0.05131X0.09461*%
%ADD37C,0.08674*%
%ADD38C,0.05800*%
%ADD39C,0.03300*%
%ADD40C,0.05300*%
D17*
X317500Y242094D02*
D03*
Y248000D02*
D03*
X327500Y247953D02*
D03*
Y242047D02*
D03*
X312000Y156953D02*
D03*
Y151047D02*
D03*
X177000D02*
D03*
Y156953D02*
D03*
X111500Y219453D02*
D03*
Y213547D02*
D03*
X104500Y197047D02*
D03*
Y202953D02*
D03*
D18*
X317756Y231000D02*
D03*
X312244D02*
D03*
X121756Y182500D02*
D03*
X116244D02*
D03*
X320744Y138000D02*
D03*
X326256D02*
D03*
X323744Y173500D02*
D03*
X329256D02*
D03*
X127500Y189500D02*
D03*
X133012D02*
D03*
X156717Y190224D02*
D03*
X151205D02*
D03*
D19*
X156957Y178114D02*
D03*
X154398D02*
D03*
X151839D02*
D03*
X149279D02*
D03*
X146721D02*
D03*
X144161D02*
D03*
X141602D02*
D03*
X139043D02*
D03*
X156957Y154886D02*
D03*
X154398D02*
D03*
X151839D02*
D03*
X149279D02*
D03*
X146721D02*
D03*
X144161D02*
D03*
X141602D02*
D03*
X139043D02*
D03*
D20*
X233500Y190476D02*
D03*
Y187721D02*
D03*
Y182209D02*
D03*
Y184965D02*
D03*
Y179453D02*
D03*
Y201500D02*
D03*
Y198744D02*
D03*
Y193232D02*
D03*
Y195988D02*
D03*
Y207012D02*
D03*
Y204256D02*
D03*
Y209768D02*
D03*
Y212524D02*
D03*
D21*
X315500Y203000D02*
D03*
X318059D02*
D03*
X312941D02*
D03*
X310382D02*
D03*
Y185677D02*
D03*
X312941D02*
D03*
X318059D02*
D03*
X315500D02*
D03*
D22*
X320500Y216000D02*
D03*
X308500D02*
D03*
D23*
X304500Y203000D02*
D03*
Y197488D02*
D03*
X118500Y214244D02*
D03*
Y219756D02*
D03*
X133500Y152244D02*
D03*
Y157756D02*
D03*
X87500Y160744D02*
D03*
Y166256D02*
D03*
X305000Y156756D02*
D03*
Y151244D02*
D03*
X299000Y156756D02*
D03*
Y151244D02*
D03*
Y213744D02*
D03*
Y219256D02*
D03*
X330000Y185744D02*
D03*
Y191256D02*
D03*
X324500Y185744D02*
D03*
Y191256D02*
D03*
D24*
X285047Y156500D02*
D03*
X290953D02*
D03*
X298047Y173500D02*
D03*
X303953D02*
D03*
X102500Y191000D02*
D03*
X96595D02*
D03*
X214500Y154500D02*
D03*
X208594D02*
D03*
X320547Y144000D02*
D03*
X326453D02*
D03*
X189453Y158000D02*
D03*
X183547D02*
D03*
X307047Y179000D02*
D03*
X312953D02*
D03*
X318000Y179000D02*
D03*
X323905D02*
D03*
D25*
X202437Y154500D02*
D03*
X194563Y150760D02*
D03*
Y158240D02*
D03*
D26*
X320272Y166000D02*
D03*
Y161000D02*
D03*
Y156000D02*
D03*
Y151000D02*
D03*
X341728Y166000D02*
D03*
Y161000D02*
D03*
Y156000D02*
D03*
Y151000D02*
D03*
D27*
X94661Y171024D02*
D03*
Y167874D02*
D03*
Y164724D02*
D03*
Y161575D02*
D03*
Y158425D02*
D03*
Y155276D02*
D03*
Y152126D02*
D03*
Y148976D02*
D03*
X127339D02*
D03*
Y152126D02*
D03*
Y155276D02*
D03*
Y158425D02*
D03*
Y161575D02*
D03*
Y164724D02*
D03*
Y167874D02*
D03*
Y171024D02*
D03*
D28*
X99976Y143661D02*
D03*
X103126D02*
D03*
X106276D02*
D03*
X109425D02*
D03*
X112575D02*
D03*
X115724D02*
D03*
X118874D02*
D03*
X122024D02*
D03*
Y176339D02*
D03*
X118874D02*
D03*
X115724D02*
D03*
X112575D02*
D03*
X109425D02*
D03*
X106276D02*
D03*
X103126D02*
D03*
X99976D02*
D03*
D29*
X111260Y206724D02*
D03*
X118740D02*
D03*
Y197276D02*
D03*
X115000D02*
D03*
X111260D02*
D03*
D30*
X104500Y216209D02*
D03*
Y210500D02*
D03*
D31*
X225374Y238500D02*
D03*
X209626D02*
D03*
X217500D02*
D03*
D32*
X105000Y232126D02*
D03*
D33*
Y240000D02*
D03*
D34*
X142500Y212500D02*
D03*
D35*
Y190453D02*
D03*
D36*
X134035Y201476D02*
D03*
D37*
X201358Y238500D02*
D03*
X233642D02*
D03*
D38*
X144500Y235500D02*
D03*
X161000Y240000D02*
D03*
X144500Y228000D02*
D03*
X304500Y230283D02*
D03*
X330000Y197000D02*
D03*
X301000Y180500D02*
D03*
X186500Y152000D02*
D03*
X302500Y143972D02*
D03*
X333724Y141500D02*
D03*
X349000Y153500D02*
D03*
Y163500D02*
D03*
X335500Y173500D02*
D03*
X124500Y220000D02*
D03*
X304500Y191744D02*
D03*
D39*
X340453Y248047D02*
D03*
X304500Y248000D02*
D03*
X133500Y162500D02*
D03*
X87500Y171000D02*
D03*
X118500Y190500D02*
D03*
D40*
X277500Y156500D02*
D03*
X128500Y142500D02*
D03*
X126000Y197500D02*
D03*
X127000Y182500D02*
D03*
X94500Y215000D02*
D03*
X91547Y185000D02*
D03*
X110500Y185500D02*
D03*
X103000D02*
D03*
X134000Y146500D02*
D03*
X119000Y137000D02*
D03*
M02*
