G04*
G04 #@! TF.GenerationSoftware,Altium Limited,Altium Designer,19.1.7 (138)*
G04*
G04 Layer_Color=8388736*
%FSLAX25Y25*%
%MOIN*%
G70*
G01*
G75*
%ADD17R,0.03950X0.04343*%
%ADD18R,0.03556X0.04343*%
%ADD19R,0.04343X0.03950*%
%ADD20R,0.04343X0.03556*%
%ADD21R,0.04343X0.03950*%
G04:AMPARAMS|DCode=22|XSize=31.62mil|YSize=65.09mil|CornerRadius=6.01mil|HoleSize=0mil|Usage=FLASHONLY|Rotation=90.000|XOffset=0mil|YOffset=0mil|HoleType=Round|Shape=RoundedRectangle|*
%AMROUNDEDRECTD22*
21,1,0.03162,0.05307,0,0,90.0*
21,1,0.01961,0.06509,0,0,90.0*
1,1,0.01202,0.02653,0.00980*
1,1,0.01202,0.02653,-0.00980*
1,1,0.01202,-0.02653,-0.00980*
1,1,0.01202,-0.02653,0.00980*
%
%ADD22ROUNDEDRECTD22*%
G04:AMPARAMS|DCode=23|XSize=23.75mil|YSize=55.24mil|CornerRadius=5.97mil|HoleSize=0mil|Usage=FLASHONLY|Rotation=0.000|XOffset=0mil|YOffset=0mil|HoleType=Round|Shape=RoundedRectangle|*
%AMROUNDEDRECTD23*
21,1,0.02375,0.04331,0,0,0.0*
21,1,0.01181,0.05524,0,0,0.0*
1,1,0.01194,0.00591,-0.02165*
1,1,0.01194,-0.00591,-0.02165*
1,1,0.01194,-0.00591,0.02165*
1,1,0.01194,0.00591,0.02165*
%
%ADD23ROUNDEDRECTD23*%
%ADD24O,0.06115X0.02965*%
%ADD25O,0.02965X0.06115*%
%ADD26R,0.07493X0.02178*%
%ADD27R,0.03556X0.05918*%
%ADD28R,0.03950X0.03162*%
%ADD29R,0.04934X0.05918*%
%ADD30R,0.16548X0.06706*%
%ADD31R,0.03000X0.05600*%
G04:AMPARAMS|DCode=32|XSize=17.84mil|YSize=31.62mil|CornerRadius=5.97mil|HoleSize=0mil|Usage=FLASHONLY|Rotation=180.000|XOffset=0mil|YOffset=0mil|HoleType=Round|Shape=RoundedRectangle|*
%AMROUNDEDRECTD32*
21,1,0.01784,0.01968,0,0,180.0*
21,1,0.00591,0.03162,0,0,180.0*
1,1,0.01194,-0.00295,0.00984*
1,1,0.01194,0.00295,0.00984*
1,1,0.01194,0.00295,-0.00984*
1,1,0.01194,-0.00295,-0.00984*
%
%ADD32ROUNDEDRECTD32*%
%ADD33O,0.05131X0.07493*%
%ADD34O,0.05131X0.07887*%
%ADD35O,0.05131X0.09461*%
%ADD36C,0.05800*%
%ADD37C,0.05300*%
%ADD38C,0.03300*%
D17*
X325744Y219500D02*
D03*
X331256D02*
D03*
X121256Y182000D02*
D03*
X115744D02*
D03*
X325244Y138000D02*
D03*
X330756D02*
D03*
X324744Y173500D02*
D03*
X330256D02*
D03*
X337256Y244500D02*
D03*
X331744D02*
D03*
X132756Y187500D02*
D03*
X127244D02*
D03*
X103244Y229500D02*
D03*
X108756D02*
D03*
D18*
X289547Y156500D02*
D03*
X295453D02*
D03*
X302750Y173547D02*
D03*
X308656D02*
D03*
X102953Y189500D02*
D03*
X97047D02*
D03*
X214500Y154500D02*
D03*
X208594D02*
D03*
X325047Y144000D02*
D03*
X330953D02*
D03*
X189453Y158000D02*
D03*
X183547D02*
D03*
X333547Y197500D02*
D03*
X339453D02*
D03*
X327547Y190000D02*
D03*
X333453D02*
D03*
X320047Y251000D02*
D03*
X325953D02*
D03*
X331547Y254500D02*
D03*
X337453D02*
D03*
X337453Y235000D02*
D03*
X331547D02*
D03*
D19*
X202437Y154500D02*
D03*
X194563Y150760D02*
D03*
Y158240D02*
D03*
D20*
X108500Y246500D02*
D03*
Y240595D02*
D03*
X118500Y252500D02*
D03*
Y246595D02*
D03*
X316500Y156953D02*
D03*
Y151047D02*
D03*
X178500Y157953D02*
D03*
Y152047D02*
D03*
X111500Y217453D02*
D03*
Y211547D02*
D03*
X104500Y195047D02*
D03*
Y200953D02*
D03*
X353500Y235547D02*
D03*
Y241453D02*
D03*
D21*
X118500Y212244D02*
D03*
Y217756D02*
D03*
X133500Y151244D02*
D03*
Y156756D02*
D03*
X87500Y160744D02*
D03*
Y166256D02*
D03*
X309500Y156756D02*
D03*
Y151244D02*
D03*
X124000Y252744D02*
D03*
Y258256D02*
D03*
X303500Y156756D02*
D03*
Y151244D02*
D03*
X299000Y213744D02*
D03*
Y219256D02*
D03*
X311000Y185744D02*
D03*
Y191256D02*
D03*
X305500Y185744D02*
D03*
Y191256D02*
D03*
X161000Y154244D02*
D03*
Y159756D02*
D03*
X314500Y237744D02*
D03*
Y243256D02*
D03*
X345000Y241256D02*
D03*
Y235744D02*
D03*
D22*
X324772Y166000D02*
D03*
Y161000D02*
D03*
Y156000D02*
D03*
Y151000D02*
D03*
X346228Y166000D02*
D03*
Y161000D02*
D03*
Y156000D02*
D03*
Y151000D02*
D03*
D23*
X139323Y154279D02*
D03*
X141882D02*
D03*
X144441D02*
D03*
X147000D02*
D03*
X149559D02*
D03*
X152118D02*
D03*
X154677D02*
D03*
X139323Y176720D02*
D03*
X141882D02*
D03*
X144441D02*
D03*
X147000D02*
D03*
X149559D02*
D03*
X152118D02*
D03*
X154677D02*
D03*
D24*
X94661Y170024D02*
D03*
Y166874D02*
D03*
Y163724D02*
D03*
Y160575D02*
D03*
Y157425D02*
D03*
Y154276D02*
D03*
Y151126D02*
D03*
Y147976D02*
D03*
X127339D02*
D03*
Y151126D02*
D03*
Y154276D02*
D03*
Y157425D02*
D03*
Y160575D02*
D03*
Y163724D02*
D03*
Y166874D02*
D03*
Y170024D02*
D03*
D25*
X99976Y142661D02*
D03*
X103126D02*
D03*
X106276D02*
D03*
X109425D02*
D03*
X112575D02*
D03*
X115724D02*
D03*
X118874D02*
D03*
X122024D02*
D03*
Y175339D02*
D03*
X118874D02*
D03*
X115724D02*
D03*
X112575D02*
D03*
X109425D02*
D03*
X106276D02*
D03*
X103126D02*
D03*
X99976D02*
D03*
D26*
X223500Y212524D02*
D03*
Y209768D02*
D03*
Y204256D02*
D03*
Y207012D02*
D03*
Y195988D02*
D03*
Y193232D02*
D03*
Y198744D02*
D03*
Y201500D02*
D03*
Y179453D02*
D03*
Y184965D02*
D03*
Y182209D02*
D03*
Y187721D02*
D03*
Y190476D02*
D03*
D27*
X111260Y204724D02*
D03*
X118740D02*
D03*
Y195276D02*
D03*
X115000D02*
D03*
X111260D02*
D03*
D28*
X104500Y214209D02*
D03*
Y208500D02*
D03*
D29*
X319000Y197012D02*
D03*
Y185988D02*
D03*
D30*
X312000Y218673D02*
D03*
Y204500D02*
D03*
D31*
X325760Y213500D02*
D03*
X333240D02*
D03*
Y204500D02*
D03*
X329500D02*
D03*
X325760D02*
D03*
D32*
X320047Y231594D02*
D03*
X322016D02*
D03*
X323984D02*
D03*
X325953D02*
D03*
X320047Y243406D02*
D03*
X322016D02*
D03*
X323984D02*
D03*
X325953D02*
D03*
D33*
X142732Y211524D02*
D03*
D34*
Y189476D02*
D03*
D35*
X134268Y200500D02*
D03*
D36*
X300500Y243500D02*
D03*
X145000Y239000D02*
D03*
X346000Y219500D02*
D03*
X186500Y152000D02*
D03*
X117500Y258500D02*
D03*
X95500Y228783D02*
D03*
X307000Y143972D02*
D03*
X338224Y141500D02*
D03*
X353500Y153500D02*
D03*
Y163500D02*
D03*
X336500Y173500D02*
D03*
X145000Y229500D02*
D03*
X339500Y190500D02*
D03*
X126000Y195500D02*
D03*
X124500Y218000D02*
D03*
X328000Y196474D02*
D03*
X337000Y219500D02*
D03*
X353500Y229000D02*
D03*
D37*
X286500Y243500D02*
D03*
X279500Y151500D02*
D03*
X126500Y182000D02*
D03*
X110000Y184000D02*
D03*
X95328D02*
D03*
X104000D02*
D03*
X134000Y145500D02*
D03*
X119000Y136000D02*
D03*
X128500Y141500D02*
D03*
X88500Y184000D02*
D03*
D38*
X87500Y171000D02*
D03*
X171636Y155000D02*
D03*
X171500Y149000D02*
D03*
X308500Y238000D02*
D03*
X118500Y188500D02*
D03*
X133500Y161500D02*
D03*
X131500Y246500D02*
D03*
X95500D02*
D03*
X330000Y230000D02*
D03*
X337453Y239902D02*
D03*
X345000Y247500D02*
D03*
M02*
