G04*
G04 #@! TF.GenerationSoftware,Altium Limited,Altium Designer,19.1.7 (138)*
G04*
G04 Layer_Physical_Order=2*
G04 Layer_Color=16711680*
%FSLAX25Y25*%
%MOIN*%
G70*
G01*
G75*
%ADD15C,0.01000*%
%ADD55C,0.01500*%
%ADD56C,0.00800*%
%ADD57C,0.02000*%
%ADD58C,0.01200*%
%ADD59O,0.04331X0.06693*%
%ADD60O,0.04331X0.07087*%
%ADD61O,0.04331X0.08661*%
%ADD62C,0.05000*%
%ADD63C,0.02500*%
%ADD64C,0.04500*%
%ADD65R,0.08268X0.05512*%
%ADD66R,0.05906X0.01772*%
G36*
X328113Y263632D02*
X331314Y263222D01*
X334465Y262525D01*
X337540Y261547D01*
X340514Y260296D01*
X343364Y258782D01*
X346066Y257018D01*
X348598Y255017D01*
X350939Y252797D01*
X353071Y250374D01*
X354975Y247770D01*
X356638Y245004D01*
X358045Y242100D01*
X359184Y239081D01*
X360046Y235971D01*
X360625Y232797D01*
X360916Y229583D01*
Y226509D01*
X360677Y223596D01*
X360202Y220712D01*
X359493Y217877D01*
X358554Y215109D01*
X357393Y212427D01*
X356017Y209848D01*
X354435Y207391D01*
X352658Y205071D01*
X350697Y202903D01*
X348565Y200903D01*
X346278Y199084D01*
X345064Y198271D01*
X344855Y198061D01*
X344645Y197851D01*
X344644Y197850D01*
X344643Y197848D01*
X344529Y197573D01*
X344416Y197300D01*
Y197298D01*
X344415Y197297D01*
X344415Y197000D01*
X344415Y196703D01*
X344416Y196702D01*
Y196700D01*
X344529Y196428D01*
X344643Y196152D01*
X344644Y196151D01*
X344645Y196149D01*
X344853Y195940D01*
X345064Y195729D01*
X346278Y194916D01*
X348565Y193097D01*
X350696Y191097D01*
X352658Y188929D01*
X354435Y186609D01*
X356017Y184152D01*
X357393Y181573D01*
X358554Y178891D01*
X359493Y176123D01*
X360202Y173288D01*
X360677Y170404D01*
X360916Y167491D01*
Y164417D01*
X360625Y161203D01*
X360046Y158028D01*
X359184Y154919D01*
X358045Y151900D01*
X356638Y148996D01*
X354975Y146230D01*
X353071Y143626D01*
X350939Y141203D01*
X348598Y138983D01*
X346066Y136982D01*
X343364Y135218D01*
X340514Y133704D01*
X337540Y132453D01*
X334465Y131475D01*
X331314Y130778D01*
X328113Y130368D01*
X324889Y130247D01*
X321667Y130418D01*
X318473Y130878D01*
X315333Y131624D01*
X312274Y132650D01*
X309319Y133948D01*
X306494Y135506D01*
X303820Y137312D01*
X301320Y139352D01*
X299013Y141609D01*
X296920Y144065D01*
X295988Y145382D01*
X295893Y145472D01*
X295821Y145580D01*
X295679Y145675D01*
X295555Y145792D01*
X295433Y145839D01*
X295325Y145911D01*
X295157Y145945D01*
X294998Y146006D01*
X294867Y146002D01*
X294739Y146028D01*
X145261Y146028D01*
X145133Y146002D01*
X145002Y146006D01*
X144843Y145945D01*
X144675Y145911D01*
X144567Y145839D01*
X144445Y145792D01*
X144321Y145675D01*
X144179Y145580D01*
X144107Y145472D01*
X144012Y145382D01*
X143006Y143960D01*
X140726Y141324D01*
X138201Y138923D01*
X135454Y136779D01*
X132512Y134913D01*
X129402Y133341D01*
X126154Y132079D01*
X122799Y131139D01*
X119368Y130529D01*
X115894Y130256D01*
X112410Y130322D01*
X108949Y130727D01*
X105544Y131466D01*
X102227Y132533D01*
X99029Y133918D01*
X95982Y135606D01*
X93112Y137584D01*
X90449Y139831D01*
X88017Y142326D01*
X85839Y145046D01*
X83936Y147965D01*
X82325Y151055D01*
X81023Y154287D01*
X80041Y157630D01*
X79389Y161053D01*
X79073Y164523D01*
X79096Y168008D01*
X79458Y171473D01*
X80155Y174887D01*
X81181Y178217D01*
X82525Y181432D01*
X84176Y184501D01*
X86117Y187394D01*
X88331Y190085D01*
X90796Y192548D01*
X93488Y194760D01*
X94936Y195729D01*
X95145Y195939D01*
X95355Y196149D01*
X95356Y196151D01*
X95357Y196152D01*
X95470Y196424D01*
X95584Y196700D01*
Y196702D01*
X95585Y196703D01*
X95585Y196998D01*
X95585Y197297D01*
X95584Y197298D01*
Y197300D01*
X95471Y197573D01*
X95357Y197848D01*
X95356Y197850D01*
X95355Y197851D01*
X95146Y198060D01*
X94936Y198271D01*
X93489Y199240D01*
X90796Y201452D01*
X88331Y203915D01*
X86117Y206606D01*
X84176Y209499D01*
X82525Y212568D01*
X81181Y215783D01*
X80155Y219113D01*
X79458Y222527D01*
X79096Y225992D01*
X79073Y229477D01*
X79389Y232947D01*
X80041Y236370D01*
X81023Y239713D01*
X82325Y242945D01*
X83936Y246035D01*
X85839Y248954D01*
X88017Y251674D01*
X90449Y254169D01*
X93112Y256416D01*
X95982Y258394D01*
X99029Y260082D01*
X102227Y261467D01*
X105544Y262534D01*
X108949Y263273D01*
X112410Y263678D01*
X115894Y263744D01*
X119368Y263471D01*
X122799Y262861D01*
X126154Y261921D01*
X129402Y260659D01*
X132512Y259087D01*
X135454Y257221D01*
X138201Y255077D01*
X140726Y252676D01*
X143006Y250040D01*
X144012Y248618D01*
X144107Y248529D01*
X144179Y248420D01*
X144321Y248325D01*
X144445Y248208D01*
X144567Y248161D01*
X144675Y248089D01*
X144843Y248055D01*
X145002Y247994D01*
X145133Y247998D01*
X145261Y247972D01*
X294739D01*
X294867Y247998D01*
X294998Y247994D01*
X295157Y248055D01*
X295325Y248089D01*
X295433Y248161D01*
X295555Y248208D01*
X295679Y248325D01*
X295821Y248420D01*
X295893Y248529D01*
X295988Y248618D01*
X296920Y249935D01*
X299013Y252391D01*
X301320Y254647D01*
X303820Y256687D01*
X306494Y258494D01*
X309319Y260052D01*
X312274Y261350D01*
X315333Y262375D01*
X318473Y263122D01*
X321667Y263582D01*
X324889Y263753D01*
X328113Y263632D01*
D02*
G37*
%LPC*%
G36*
X118000Y261964D02*
Y259000D01*
X120964D01*
X120910Y259414D01*
X120557Y260265D01*
X119996Y260996D01*
X119265Y261557D01*
X118414Y261910D01*
X118000Y261964D01*
D02*
G37*
G36*
X117000D02*
X116586Y261910D01*
X115735Y261557D01*
X115004Y260996D01*
X114443Y260265D01*
X114090Y259414D01*
X114036Y259000D01*
X117000D01*
Y261964D01*
D02*
G37*
G36*
X120964Y258000D02*
X118000D01*
Y255036D01*
X118414Y255090D01*
X119265Y255443D01*
X119996Y256004D01*
X120557Y256735D01*
X120910Y257586D01*
X120964Y258000D01*
D02*
G37*
G36*
X117000D02*
X114036D01*
X114090Y257586D01*
X114443Y256735D01*
X115004Y256004D01*
X115735Y255443D01*
X116586Y255090D01*
X117000Y255036D01*
Y258000D01*
D02*
G37*
G36*
X313834Y250672D02*
X304166D01*
Y244248D01*
X304166Y244238D01*
X304166Y244238D01*
X304166Y244000D01*
X303666Y243967D01*
X303618Y244335D01*
X303295Y245114D01*
X302782Y245782D01*
X302114Y246295D01*
X301335Y246618D01*
X300500Y246728D01*
X299665Y246618D01*
X298886Y246295D01*
X298218Y245782D01*
X297705Y245114D01*
X297382Y244335D01*
X297272Y243500D01*
X297382Y242665D01*
X297705Y241886D01*
X298218Y241218D01*
X298886Y240705D01*
X299665Y240382D01*
X300500Y240272D01*
X301335Y240382D01*
X302114Y240705D01*
X302782Y241218D01*
X303295Y241886D01*
X303618Y242665D01*
X303724Y243470D01*
X303728Y243500D01*
X303763Y243676D01*
X304198Y243761D01*
X304567Y243761D01*
X313834D01*
Y250672D01*
D02*
G37*
G36*
X349661D02*
X339993D01*
Y243761D01*
X349661D01*
Y250672D01*
D02*
G37*
G36*
X136161Y249956D02*
X126493D01*
Y243044D01*
X136161D01*
Y249956D01*
D02*
G37*
G36*
X100334D02*
X90666D01*
Y243044D01*
X100334D01*
Y249956D01*
D02*
G37*
G36*
X309000Y240195D02*
Y238500D01*
X310695D01*
X310619Y238878D01*
X310122Y239622D01*
X309378Y240120D01*
X309000Y240195D01*
D02*
G37*
G36*
X308000D02*
X307622Y240120D01*
X306878Y239622D01*
X306381Y238878D01*
X306305Y238500D01*
X308000D01*
Y240195D01*
D02*
G37*
G36*
X310695Y237500D02*
X309000D01*
Y235805D01*
X309378Y235880D01*
X310122Y236378D01*
X310619Y237122D01*
X310695Y237500D01*
D02*
G37*
G36*
X308000D02*
X306305D01*
X306381Y237122D01*
X306878Y236378D01*
X307622Y235880D01*
X308000Y235805D01*
Y237500D01*
D02*
G37*
G36*
X145000Y242228D02*
X144165Y242118D01*
X143386Y241795D01*
X142718Y241282D01*
X142205Y240614D01*
X141882Y239835D01*
X141772Y239000D01*
X141882Y238165D01*
X142205Y237386D01*
X142718Y236718D01*
X143386Y236205D01*
X144165Y235882D01*
X145000Y235772D01*
X145835Y235882D01*
X146614Y236205D01*
X147282Y236718D01*
X147795Y237386D01*
X148118Y238165D01*
X148228Y239000D01*
X148118Y239835D01*
X147795Y240614D01*
X147282Y241282D01*
X146614Y241795D01*
X145835Y242118D01*
X145000Y242228D01*
D02*
G37*
G36*
X286500Y246476D02*
X285730Y246374D01*
X285012Y246077D01*
X284396Y245604D01*
X283923Y244988D01*
X283626Y244270D01*
X283524Y243500D01*
X283626Y242730D01*
X283923Y242012D01*
X284396Y241396D01*
X284767Y241112D01*
Y237204D01*
X284218Y236782D01*
X283705Y236114D01*
X283382Y235335D01*
X283272Y234500D01*
X283382Y233665D01*
X283705Y232886D01*
X284218Y232218D01*
X284886Y231705D01*
X285665Y231382D01*
X286500Y231272D01*
X287335Y231382D01*
X288114Y231705D01*
X288782Y232218D01*
X289295Y232886D01*
X289618Y233665D01*
X289728Y234500D01*
X289618Y235335D01*
X289295Y236114D01*
X288782Y236782D01*
X288233Y237204D01*
Y241112D01*
X288604Y241396D01*
X289077Y242012D01*
X289374Y242730D01*
X289475Y243500D01*
X289374Y244270D01*
X289077Y244988D01*
X288604Y245604D01*
X287988Y246077D01*
X287270Y246374D01*
X286500Y246476D01*
D02*
G37*
G36*
X330500Y232195D02*
Y230500D01*
X332195D01*
X332119Y230878D01*
X331622Y231622D01*
X330878Y232119D01*
X330500Y232195D01*
D02*
G37*
G36*
X329500D02*
X329122Y232119D01*
X328378Y231622D01*
X327881Y230878D01*
X327805Y230500D01*
X329500D01*
Y232195D01*
D02*
G37*
G36*
X145500Y232964D02*
Y230000D01*
X148464D01*
X148410Y230414D01*
X148057Y231265D01*
X147496Y231996D01*
X146765Y232557D01*
X145914Y232910D01*
X145500Y232964D01*
D02*
G37*
G36*
X144500D02*
X144086Y232910D01*
X143235Y232557D01*
X142504Y231996D01*
X141943Y231265D01*
X141590Y230414D01*
X141536Y230000D01*
X144500D01*
Y232964D01*
D02*
G37*
G36*
X354000Y232464D02*
Y229500D01*
X356964D01*
X356910Y229914D01*
X356557Y230765D01*
X355996Y231496D01*
X355265Y232057D01*
X354414Y232410D01*
X354000Y232464D01*
D02*
G37*
G36*
X136461Y232539D02*
X131827D01*
Y229283D01*
X136461D01*
Y232539D01*
D02*
G37*
G36*
X100634D02*
X96000D01*
Y229283D01*
X100634D01*
Y232539D01*
D02*
G37*
G36*
X130827D02*
X126193D01*
Y229283D01*
X130827D01*
Y232539D01*
D02*
G37*
G36*
X95000D02*
X90366D01*
Y229283D01*
X95000D01*
Y232539D01*
D02*
G37*
G36*
X332195Y229500D02*
X330500D01*
Y227805D01*
X330878Y227881D01*
X331622Y228378D01*
X332119Y229122D01*
X332195Y229500D01*
D02*
G37*
G36*
X329500D02*
X327805D01*
X327881Y229122D01*
X328378Y228378D01*
X329122Y227881D01*
X329500Y227805D01*
Y229500D01*
D02*
G37*
G36*
X313834Y232956D02*
X304166D01*
Y226044D01*
X313834D01*
Y232956D01*
D02*
G37*
G36*
X148464Y229000D02*
X145500D01*
Y226036D01*
X145914Y226090D01*
X146765Y226443D01*
X147496Y227004D01*
X148057Y227735D01*
X148410Y228586D01*
X148464Y229000D01*
D02*
G37*
G36*
X144500D02*
X141536D01*
X141590Y228586D01*
X141943Y227735D01*
X142504Y227004D01*
X143235Y226443D01*
X144086Y226090D01*
X144500Y226036D01*
Y229000D01*
D02*
G37*
G36*
X356964Y228500D02*
X354000D01*
Y225536D01*
X354414Y225590D01*
X355265Y225943D01*
X355996Y226504D01*
X356557Y227235D01*
X356910Y228086D01*
X356964Y228500D01*
D02*
G37*
G36*
X337453Y241890D02*
X336692Y241739D01*
X336047Y241307D01*
X335616Y240662D01*
X335465Y239902D01*
X335616Y239141D01*
X336047Y238496D01*
X336692Y238065D01*
X337453Y237913D01*
X338214Y238065D01*
X338859Y238496D01*
X339049Y238780D01*
X342634D01*
X343879Y237535D01*
Y232956D01*
X339993D01*
Y226044D01*
X349661D01*
Y227817D01*
X350161Y227916D01*
X350443Y227235D01*
X351004Y226504D01*
X351735Y225943D01*
X352586Y225590D01*
X353000Y225536D01*
Y229000D01*
Y232464D01*
X352586Y232410D01*
X351735Y232057D01*
X351004Y231496D01*
X350443Y230765D01*
X350161Y230084D01*
X349661Y230184D01*
Y232956D01*
X346122D01*
Y238000D01*
X346036Y238429D01*
X345793Y238793D01*
X345793Y238793D01*
X343892Y240695D01*
X343528Y240938D01*
X343098Y241023D01*
X343098Y241023D01*
X339049D01*
X338859Y241307D01*
X338214Y241739D01*
X337453Y241890D01*
D02*
G37*
G36*
X136461Y228284D02*
X131827D01*
Y225028D01*
X136461D01*
Y228284D01*
D02*
G37*
G36*
X130827D02*
X126193D01*
Y225028D01*
X130827D01*
Y228284D01*
D02*
G37*
G36*
X100634D02*
X96000D01*
Y225028D01*
X100634D01*
Y228284D01*
D02*
G37*
G36*
X95000D02*
X90366D01*
Y225028D01*
X95000D01*
Y228284D01*
D02*
G37*
G36*
X337500Y222964D02*
Y220000D01*
X340464D01*
X340410Y220414D01*
X340057Y221265D01*
X339496Y221996D01*
X338765Y222557D01*
X337914Y222910D01*
X337500Y222964D01*
D02*
G37*
G36*
X336500D02*
X336086Y222910D01*
X335235Y222557D01*
X334504Y221996D01*
X333943Y221265D01*
X333590Y220414D01*
X333536Y220000D01*
X336500D01*
Y222964D01*
D02*
G37*
G36*
X125000Y221464D02*
Y218500D01*
X127964D01*
X127910Y218914D01*
X127557Y219765D01*
X126996Y220496D01*
X126265Y221057D01*
X125414Y221410D01*
X125000Y221464D01*
D02*
G37*
G36*
X124000D02*
X123586Y221410D01*
X122735Y221057D01*
X122004Y220496D01*
X121443Y219765D01*
X121090Y218914D01*
X121036Y218500D01*
X124000D01*
Y221464D01*
D02*
G37*
G36*
X346000Y222728D02*
X345165Y222618D01*
X344386Y222295D01*
X343718Y221782D01*
X343205Y221114D01*
X342882Y220335D01*
X342772Y219500D01*
X342882Y218665D01*
X343205Y217886D01*
X343718Y217218D01*
X344386Y216705D01*
X345165Y216382D01*
X346000Y216272D01*
X346835Y216382D01*
X347614Y216705D01*
X348282Y217218D01*
X348795Y217886D01*
X349118Y218665D01*
X349228Y219500D01*
X349118Y220335D01*
X348795Y221114D01*
X348282Y221782D01*
X347614Y222295D01*
X346835Y222618D01*
X346000Y222728D01*
D02*
G37*
G36*
X340464Y219000D02*
X337500D01*
Y216036D01*
X337914Y216090D01*
X338765Y216443D01*
X339496Y217004D01*
X340057Y217735D01*
X340410Y218586D01*
X340464Y219000D01*
D02*
G37*
G36*
X336500D02*
X333536D01*
X333590Y218586D01*
X333943Y217735D01*
X334504Y217004D01*
X335235Y216443D01*
X336086Y216090D01*
X336500Y216036D01*
Y219000D01*
D02*
G37*
G36*
X127964Y217500D02*
X125000D01*
Y214536D01*
X125414Y214590D01*
X126265Y214943D01*
X126996Y215504D01*
X127557Y216235D01*
X127910Y217086D01*
X127964Y217500D01*
D02*
G37*
G36*
X124000D02*
X121036D01*
X121090Y217086D01*
X121443Y216235D01*
X122004Y215504D01*
X122735Y214943D01*
X123586Y214590D01*
X124000Y214536D01*
Y217500D01*
D02*
G37*
G36*
X143232Y215832D02*
Y212024D01*
X145925D01*
Y212705D01*
X145816Y213531D01*
X145497Y214301D01*
X144990Y214962D01*
X144329Y215470D01*
X143559Y215789D01*
X143232Y215832D01*
D02*
G37*
G36*
X142232D02*
X141906Y215789D01*
X141136Y215470D01*
X140475Y214962D01*
X139967Y214301D01*
X139648Y213531D01*
X139540Y212705D01*
Y212024D01*
X142232D01*
Y215832D01*
D02*
G37*
G36*
X298500Y211464D02*
Y208500D01*
X301464D01*
X301410Y208914D01*
X301057Y209765D01*
X300496Y210496D01*
X299765Y211057D01*
X298914Y211410D01*
X298500Y211464D01*
D02*
G37*
G36*
X297500D02*
X297086Y211410D01*
X296235Y211057D01*
X295504Y210496D01*
X294943Y209765D01*
X294590Y208914D01*
X294536Y208500D01*
X297500D01*
Y211464D01*
D02*
G37*
G36*
X145925Y211024D02*
X142732D01*
X139540D01*
Y210343D01*
X139648Y209516D01*
X139967Y208746D01*
X140475Y208085D01*
X140580Y208004D01*
X140411Y207504D01*
X137795D01*
Y206118D01*
X141748D01*
X145701D01*
Y207504D01*
X145054D01*
X144884Y208004D01*
X144990Y208085D01*
X145497Y208746D01*
X145816Y209516D01*
X145925Y210343D01*
Y211024D01*
D02*
G37*
G36*
X301464Y207500D02*
X298500D01*
Y204536D01*
X298914Y204590D01*
X299765Y204943D01*
X300496Y205504D01*
X301057Y206235D01*
X301410Y207086D01*
X301464Y207500D01*
D02*
G37*
G36*
X297500D02*
X294536D01*
X294590Y207086D01*
X294943Y206235D01*
X295504Y205504D01*
X296235Y204943D01*
X297086Y204590D01*
X297500Y204536D01*
Y207500D01*
D02*
G37*
G36*
X134768Y205792D02*
Y201000D01*
X137460D01*
Y202665D01*
X137352Y203492D01*
X137033Y204262D01*
X136525Y204923D01*
X135864Y205430D01*
X135094Y205749D01*
X134768Y205792D01*
D02*
G37*
G36*
X133768D02*
X133441Y205749D01*
X132671Y205430D01*
X132010Y204923D01*
X131503Y204262D01*
X131184Y203492D01*
X131075Y202665D01*
Y201000D01*
X133768D01*
Y205792D01*
D02*
G37*
G36*
X328500Y199938D02*
Y196974D01*
X331464D01*
X331410Y197387D01*
X331057Y198239D01*
X330496Y198970D01*
X329765Y199531D01*
X328914Y199883D01*
X328500Y199938D01*
D02*
G37*
G36*
X145701Y205118D02*
X141748D01*
X137795D01*
Y203732D01*
X138095D01*
Y198914D01*
Y196195D01*
X137181D01*
X136960Y196643D01*
X137033Y196738D01*
X137352Y197508D01*
X137460Y198335D01*
Y200000D01*
X134268D01*
X131075D01*
Y198335D01*
X131184Y197508D01*
X131503Y196738D01*
X131576Y196643D01*
X131355Y196195D01*
X129136D01*
X129118Y196335D01*
X128795Y197114D01*
X128282Y197782D01*
X127614Y198295D01*
X126835Y198618D01*
X126000Y198728D01*
X125165Y198618D01*
X124386Y198295D01*
X123718Y197782D01*
X123205Y197114D01*
X122882Y196335D01*
X122772Y195500D01*
X122882Y194665D01*
X123205Y193886D01*
X123718Y193218D01*
X124386Y192705D01*
X125165Y192382D01*
X126000Y192272D01*
X126835Y192382D01*
X127614Y192705D01*
X128282Y193218D01*
X128533Y193544D01*
X139735D01*
X140243Y193645D01*
X140299Y193608D01*
X140354Y193454D01*
X140364Y192968D01*
X139967Y192451D01*
X139648Y191681D01*
X139540Y190854D01*
Y189976D01*
X142732D01*
X145925D01*
Y190854D01*
X145816Y191681D01*
X145497Y192451D01*
X144990Y193112D01*
X144750Y193296D01*
X144920Y193796D01*
X145401D01*
Y196355D01*
Y198914D01*
Y203732D01*
X145701D01*
Y205118D01*
D02*
G37*
G36*
X231000Y195474D02*
Y193780D01*
X232695D01*
X232620Y194157D01*
X232122Y194902D01*
X231378Y195399D01*
X231000Y195474D01*
D02*
G37*
G36*
X230000D02*
X229622Y195399D01*
X228878Y194902D01*
X228380Y194157D01*
X228305Y193780D01*
X230000D01*
Y195474D01*
D02*
G37*
G36*
X331464Y195974D02*
X328500D01*
Y193009D01*
X328914Y193064D01*
X329765Y193416D01*
X330496Y193977D01*
X331057Y194708D01*
X331410Y195560D01*
X331464Y195974D01*
D02*
G37*
G36*
X325000Y209500D02*
X304000Y209500D01*
X303000Y208500D01*
Y200500D01*
X304410Y199090D01*
X310660Y199090D01*
X314500Y195250D01*
X316300Y193000D01*
X322000Y193000D01*
X324199Y195199D01*
X324788Y195081D01*
X324943Y194708D01*
X325504Y193977D01*
X326235Y193416D01*
X327086Y193064D01*
X327500Y193009D01*
Y196474D01*
Y199938D01*
X327086Y199883D01*
X326235Y199531D01*
X325504Y198970D01*
X325090Y198431D01*
X324590Y198600D01*
Y199090D01*
X328000Y202500D01*
X328000Y206500D01*
X325000Y209500D01*
D02*
G37*
G36*
X300000Y194464D02*
Y191500D01*
X302964D01*
X302910Y191914D01*
X302557Y192765D01*
X301996Y193496D01*
X301265Y194057D01*
X300414Y194410D01*
X300000Y194464D01*
D02*
G37*
G36*
X299000D02*
X298586Y194410D01*
X297735Y194057D01*
X297004Y193496D01*
X296443Y192765D01*
X296090Y191914D01*
X296036Y191500D01*
X299000D01*
Y194464D01*
D02*
G37*
G36*
X232695Y192780D02*
X231000D01*
Y191085D01*
X231378Y191160D01*
X232122Y191657D01*
X232620Y192402D01*
X232695Y192780D01*
D02*
G37*
G36*
X230000D02*
X228305D01*
X228380Y192402D01*
X228878Y191657D01*
X229622Y191160D01*
X230000Y191085D01*
Y192780D01*
D02*
G37*
G36*
X340000Y193964D02*
Y191000D01*
X342964D01*
X342910Y191414D01*
X342557Y192265D01*
X341996Y192996D01*
X341265Y193557D01*
X340414Y193910D01*
X340000Y193964D01*
D02*
G37*
G36*
X339000D02*
X338586Y193910D01*
X337735Y193557D01*
X337004Y192996D01*
X336443Y192265D01*
X336090Y191414D01*
X336036Y191000D01*
X339000D01*
Y193964D01*
D02*
G37*
G36*
X119000Y190695D02*
Y189000D01*
X120695D01*
X120619Y189378D01*
X120122Y190122D01*
X119378Y190620D01*
X119000Y190695D01*
D02*
G37*
G36*
X118000D02*
X117622Y190620D01*
X116878Y190122D01*
X116381Y189378D01*
X116305Y189000D01*
X118000D01*
Y190695D01*
D02*
G37*
G36*
X302964Y190500D02*
X300000D01*
Y187536D01*
X300414Y187590D01*
X301265Y187943D01*
X301996Y188504D01*
X302557Y189235D01*
X302910Y190086D01*
X302964Y190500D01*
D02*
G37*
G36*
X299000D02*
X296036D01*
X296090Y190086D01*
X296443Y189235D01*
X297004Y188504D01*
X297735Y187943D01*
X298586Y187590D01*
X299000Y187536D01*
Y190500D01*
D02*
G37*
G36*
X342964Y190000D02*
X340000D01*
Y187036D01*
X340414Y187090D01*
X341265Y187443D01*
X341996Y188004D01*
X342557Y188735D01*
X342910Y189586D01*
X342964Y190000D01*
D02*
G37*
G36*
X339000D02*
X336036D01*
X336090Y189586D01*
X336443Y188735D01*
X337004Y188004D01*
X337735Y187443D01*
X338586Y187090D01*
X339000Y187036D01*
Y190000D01*
D02*
G37*
G36*
X120695Y188000D02*
X119000D01*
Y186305D01*
X119378Y186381D01*
X120122Y186878D01*
X120619Y187622D01*
X120695Y188000D01*
D02*
G37*
G36*
X118000D02*
X116305D01*
X116381Y187622D01*
X116878Y186878D01*
X117622Y186381D01*
X118000Y186305D01*
Y188000D01*
D02*
G37*
G36*
X110000Y186976D02*
X109230Y186874D01*
X108512Y186577D01*
X107896Y186104D01*
X107423Y185488D01*
X107271Y185119D01*
X106729D01*
X106577Y185488D01*
X106104Y186104D01*
X105488Y186577D01*
X104770Y186874D01*
X104000Y186976D01*
X103230Y186874D01*
X102512Y186577D01*
X101896Y186104D01*
X101423Y185488D01*
X101126Y184770D01*
X101024Y184000D01*
X101126Y183230D01*
X101423Y182512D01*
X101896Y181896D01*
X102512Y181423D01*
X103230Y181126D01*
X104000Y181025D01*
X104770Y181126D01*
X105488Y181423D01*
X106104Y181896D01*
X106577Y182512D01*
X106729Y182881D01*
X107271D01*
X107423Y182512D01*
X107896Y181896D01*
X108512Y181423D01*
X109230Y181126D01*
X110000Y181025D01*
X110770Y181126D01*
X111488Y181423D01*
X112104Y181896D01*
X112577Y182512D01*
X112874Y183230D01*
X112976Y184000D01*
X112874Y184770D01*
X112577Y185488D01*
X112104Y186104D01*
X111488Y186577D01*
X110770Y186874D01*
X110000Y186976D01*
D02*
G37*
G36*
X145925Y188976D02*
X143232D01*
Y184972D01*
X143559Y185015D01*
X144329Y185334D01*
X144990Y185841D01*
X145497Y186502D01*
X145816Y187272D01*
X145925Y188098D01*
Y188976D01*
D02*
G37*
G36*
X142232D02*
X139540D01*
Y188098D01*
X139648Y187272D01*
X139967Y186502D01*
X140475Y185841D01*
X141136Y185334D01*
X141906Y185015D01*
X142232Y184972D01*
Y188976D01*
D02*
G37*
G36*
X89000Y187212D02*
Y184500D01*
X91712D01*
X91666Y184848D01*
X91339Y185639D01*
X90818Y186318D01*
X90139Y186839D01*
X89348Y187166D01*
X89000Y187212D01*
D02*
G37*
G36*
X88000D02*
X87652Y187166D01*
X86861Y186839D01*
X86182Y186318D01*
X85661Y185639D01*
X85334Y184848D01*
X85288Y184500D01*
X88000D01*
Y187212D01*
D02*
G37*
G36*
X95328Y186976D02*
X94558Y186874D01*
X93840Y186577D01*
X93224Y186104D01*
X92751Y185488D01*
X92454Y184770D01*
X92353Y184000D01*
X92454Y183230D01*
X92751Y182512D01*
X93224Y181896D01*
X93840Y181423D01*
X94558Y181126D01*
X95328Y181025D01*
X96098Y181126D01*
X96816Y181423D01*
X97432Y181896D01*
X97905Y182512D01*
X98202Y183230D01*
X98304Y184000D01*
X98202Y184770D01*
X97905Y185488D01*
X97432Y186104D01*
X96816Y186577D01*
X96098Y186874D01*
X95328Y186976D01*
D02*
G37*
G36*
X91712Y183500D02*
X89000D01*
Y180788D01*
X89348Y180834D01*
X90139Y181161D01*
X90818Y181682D01*
X91339Y182361D01*
X91666Y183152D01*
X91712Y183500D01*
D02*
G37*
G36*
X88000D02*
X85288D01*
X85334Y183152D01*
X85661Y182361D01*
X86182Y181682D01*
X86861Y181161D01*
X87652Y180834D01*
X88000Y180788D01*
Y183500D01*
D02*
G37*
G36*
X231000Y181695D02*
Y180000D01*
X232695D01*
X232620Y180378D01*
X232122Y181122D01*
X231378Y181620D01*
X231000Y181695D01*
D02*
G37*
G36*
X230000D02*
X229622Y181620D01*
X228878Y181122D01*
X228380Y180378D01*
X228305Y180000D01*
X230000D01*
Y181695D01*
D02*
G37*
G36*
X126500Y184976D02*
X125730Y184874D01*
X125012Y184577D01*
X124396Y184104D01*
X123923Y183488D01*
X123626Y182770D01*
X123524Y182000D01*
X123626Y181230D01*
X123923Y180512D01*
X124396Y179896D01*
X125012Y179423D01*
X125730Y179126D01*
X126500Y179025D01*
X127270Y179126D01*
X127988Y179423D01*
X128604Y179896D01*
X129077Y180512D01*
X129374Y181230D01*
X129475Y182000D01*
X129374Y182770D01*
X129077Y183488D01*
X128604Y184104D01*
X127988Y184577D01*
X127270Y184874D01*
X126500Y184976D01*
D02*
G37*
G36*
X232695Y179000D02*
X231000D01*
Y177305D01*
X231378Y177381D01*
X232122Y177878D01*
X232620Y178622D01*
X232695Y179000D01*
D02*
G37*
G36*
X230000D02*
X228305D01*
X228380Y178622D01*
X228878Y177878D01*
X229622Y177381D01*
X230000Y177305D01*
Y179000D01*
D02*
G37*
G36*
X337000Y176964D02*
Y174000D01*
X339964D01*
X339910Y174414D01*
X339557Y175265D01*
X338996Y175996D01*
X338265Y176557D01*
X337414Y176910D01*
X337000Y176964D01*
D02*
G37*
G36*
X336000D02*
X335586Y176910D01*
X334735Y176557D01*
X334004Y175996D01*
X333443Y175265D01*
X333090Y174414D01*
X333036Y174000D01*
X336000D01*
Y176964D01*
D02*
G37*
G36*
X88000Y173195D02*
Y171500D01*
X89695D01*
X89619Y171878D01*
X89122Y172622D01*
X88378Y173119D01*
X88000Y173195D01*
D02*
G37*
G36*
X87000D02*
X86622Y173119D01*
X85878Y172622D01*
X85381Y171878D01*
X85305Y171500D01*
X87000D01*
Y173195D01*
D02*
G37*
G36*
X339964Y173000D02*
X337000D01*
Y170036D01*
X337414Y170090D01*
X338265Y170443D01*
X338996Y171004D01*
X339557Y171735D01*
X339910Y172586D01*
X339964Y173000D01*
D02*
G37*
G36*
X336000D02*
X333036D01*
X333090Y172586D01*
X333443Y171735D01*
X334004Y171004D01*
X334735Y170443D01*
X335586Y170090D01*
X336000Y170036D01*
Y173000D01*
D02*
G37*
G36*
X139559Y171474D02*
Y169780D01*
X141254D01*
X141179Y170157D01*
X140681Y170902D01*
X139937Y171399D01*
X139559Y171474D01*
D02*
G37*
G36*
X138559D02*
X138181Y171399D01*
X137437Y170902D01*
X136940Y170157D01*
X136864Y169780D01*
X138559D01*
Y171474D01*
D02*
G37*
G36*
X89695Y170500D02*
X88000D01*
Y168805D01*
X88378Y168880D01*
X89122Y169378D01*
X89619Y170122D01*
X89695Y170500D01*
D02*
G37*
G36*
X87000D02*
X85305D01*
X85381Y170122D01*
X85878Y169378D01*
X86622Y168880D01*
X87000Y168805D01*
Y170500D01*
D02*
G37*
G36*
X183500Y179488D02*
X182739Y179337D01*
X182094Y178906D01*
X181663Y178261D01*
X181512Y177500D01*
X181663Y176739D01*
X182094Y176094D01*
X182276Y175972D01*
Y171528D01*
X182094Y171406D01*
X181663Y170761D01*
X181512Y170000D01*
X181663Y169239D01*
X182094Y168594D01*
X182739Y168163D01*
X183500Y168012D01*
X184261Y168163D01*
X184906Y168594D01*
X185337Y169239D01*
X185488Y170000D01*
X185337Y170761D01*
X184906Y171406D01*
X184723Y171528D01*
Y175972D01*
X184906Y176094D01*
X185337Y176739D01*
X185488Y177500D01*
X185337Y178261D01*
X184906Y178906D01*
X184261Y179337D01*
X183500Y179488D01*
D02*
G37*
G36*
X179000Y176988D02*
X178239Y176837D01*
X177594Y176406D01*
X177163Y175761D01*
X177012Y175000D01*
X177163Y174239D01*
X177594Y173594D01*
X177777Y173472D01*
Y171528D01*
X177594Y171406D01*
X177163Y170761D01*
X177012Y170000D01*
X177163Y169239D01*
X177594Y168594D01*
X178239Y168163D01*
X179000Y168012D01*
X179761Y168163D01*
X180406Y168594D01*
X180837Y169239D01*
X180988Y170000D01*
X180837Y170761D01*
X180406Y171406D01*
X180224Y171528D01*
Y173472D01*
X180406Y173594D01*
X180837Y174239D01*
X180988Y175000D01*
X180837Y175761D01*
X180406Y176406D01*
X179761Y176837D01*
X179000Y176988D01*
D02*
G37*
G36*
X141254Y168780D02*
X139559D01*
Y167085D01*
X139937Y167160D01*
X140681Y167657D01*
X141179Y168402D01*
X141254Y168780D01*
D02*
G37*
G36*
X138559D02*
X136864D01*
X136940Y168402D01*
X137437Y167657D01*
X138181Y167160D01*
X138559Y167085D01*
Y168780D01*
D02*
G37*
G36*
X354000Y166964D02*
Y164000D01*
X356964D01*
X356910Y164414D01*
X356557Y165265D01*
X355996Y165996D01*
X355265Y166557D01*
X354414Y166910D01*
X354000Y166964D01*
D02*
G37*
G36*
X353000D02*
X352586Y166910D01*
X351735Y166557D01*
X351004Y165996D01*
X350443Y165265D01*
X350090Y164414D01*
X350036Y164000D01*
X353000D01*
Y166964D01*
D02*
G37*
G36*
X174000Y177488D02*
X173239Y177337D01*
X172594Y176906D01*
X172163Y176261D01*
X172012Y175500D01*
X172163Y174739D01*
X172594Y174094D01*
X172776Y173972D01*
Y166944D01*
X172644Y166856D01*
X172213Y166211D01*
X172062Y165450D01*
X172213Y164689D01*
X172644Y164044D01*
X173289Y163613D01*
X174050Y163462D01*
X174811Y163613D01*
X175456Y164044D01*
X175887Y164689D01*
X176038Y165450D01*
X175887Y166211D01*
X175456Y166856D01*
X175224Y167011D01*
Y173972D01*
X175406Y174094D01*
X175837Y174739D01*
X175988Y175500D01*
X175837Y176261D01*
X175406Y176906D01*
X174761Y177337D01*
X174000Y177488D01*
D02*
G37*
G36*
X134000Y163695D02*
Y162000D01*
X135695D01*
X135619Y162378D01*
X135122Y163122D01*
X134378Y163619D01*
X134000Y163695D01*
D02*
G37*
G36*
X133000D02*
X132622Y163619D01*
X131878Y163122D01*
X131380Y162378D01*
X131305Y162000D01*
X133000D01*
Y163695D01*
D02*
G37*
G36*
X169000Y176988D02*
X168239Y176837D01*
X167594Y176406D01*
X167163Y175761D01*
X167012Y175000D01*
X167163Y174239D01*
X167594Y173594D01*
X167777Y173472D01*
Y164528D01*
X167594Y164406D01*
X167163Y163761D01*
X167012Y163000D01*
X167163Y162239D01*
X167594Y161594D01*
X168239Y161163D01*
X169000Y161012D01*
X169761Y161163D01*
X170406Y161594D01*
X170837Y162239D01*
X170988Y163000D01*
X170837Y163761D01*
X170406Y164406D01*
X170223Y164528D01*
Y173472D01*
X170406Y173594D01*
X170837Y174239D01*
X170988Y175000D01*
X170837Y175761D01*
X170406Y176406D01*
X169761Y176837D01*
X169000Y176988D01*
D02*
G37*
G36*
X356964Y163000D02*
X354000D01*
Y160036D01*
X354414Y160090D01*
X355265Y160443D01*
X355996Y161004D01*
X356557Y161735D01*
X356910Y162586D01*
X356964Y163000D01*
D02*
G37*
G36*
X353000D02*
X350036D01*
X350090Y162586D01*
X350443Y161735D01*
X351004Y161004D01*
X351735Y160443D01*
X352586Y160090D01*
X353000Y160036D01*
Y163000D01*
D02*
G37*
G36*
X166000Y161195D02*
Y159500D01*
X167695D01*
X167620Y159878D01*
X167122Y160622D01*
X166378Y161119D01*
X166000Y161195D01*
D02*
G37*
G36*
X165000D02*
X164622Y161119D01*
X163878Y160622D01*
X163381Y159878D01*
X163305Y159500D01*
X165000D01*
Y161195D01*
D02*
G37*
G36*
X135695Y161000D02*
X134000D01*
Y159305D01*
X134378Y159380D01*
X135122Y159878D01*
X135619Y160622D01*
X135695Y161000D01*
D02*
G37*
G36*
X133000D02*
X131305D01*
X131380Y160622D01*
X131878Y159878D01*
X132622Y159380D01*
X133000Y159305D01*
Y161000D01*
D02*
G37*
G36*
X102000Y159695D02*
Y158000D01*
X103695D01*
X103620Y158378D01*
X103122Y159122D01*
X102378Y159619D01*
X102000Y159695D01*
D02*
G37*
G36*
X101000D02*
X100622Y159619D01*
X99878Y159122D01*
X99381Y158378D01*
X99305Y158000D01*
X101000D01*
Y159695D01*
D02*
G37*
G36*
X167695Y158500D02*
X166000D01*
Y156805D01*
X166378Y156880D01*
X167122Y157378D01*
X167620Y158122D01*
X167695Y158500D01*
D02*
G37*
G36*
X165000D02*
X163305D01*
X163381Y158122D01*
X163878Y157378D01*
X164622Y156880D01*
X165000Y156805D01*
Y158500D01*
D02*
G37*
G36*
X103695Y157000D02*
X102000D01*
Y155305D01*
X102378Y155380D01*
X103122Y155878D01*
X103620Y156622D01*
X103695Y157000D01*
D02*
G37*
G36*
X101000D02*
X99305D01*
X99381Y156622D01*
X99878Y155878D01*
X100622Y155380D01*
X101000Y155305D01*
Y157000D01*
D02*
G37*
G36*
X354000Y156964D02*
Y154000D01*
X356964D01*
X356910Y154414D01*
X356557Y155265D01*
X355996Y155996D01*
X355265Y156557D01*
X354414Y156910D01*
X354000Y156964D01*
D02*
G37*
G36*
X353000D02*
X352586Y156910D01*
X351735Y156557D01*
X351004Y155996D01*
X350443Y155265D01*
X350090Y154414D01*
X350036Y154000D01*
X353000D01*
Y156964D01*
D02*
G37*
G36*
X187000Y155464D02*
Y152500D01*
X189964D01*
X189910Y152914D01*
X189557Y153765D01*
X188996Y154496D01*
X188265Y155057D01*
X187414Y155410D01*
X187000Y155464D01*
D02*
G37*
G36*
X186000D02*
X185586Y155410D01*
X184735Y155057D01*
X184004Y154496D01*
X183443Y153765D01*
X183090Y152914D01*
X183036Y152500D01*
X186000D01*
Y155464D01*
D02*
G37*
G36*
X356964Y153000D02*
X354000D01*
Y150036D01*
X354414Y150090D01*
X355265Y150443D01*
X355996Y151004D01*
X356557Y151735D01*
X356910Y152586D01*
X356964Y153000D01*
D02*
G37*
G36*
X353000D02*
X350036D01*
X350090Y152586D01*
X350443Y151735D01*
X351004Y151004D01*
X351735Y150443D01*
X352586Y150090D01*
X353000Y150036D01*
Y153000D01*
D02*
G37*
G36*
X189964Y151500D02*
X187000D01*
Y148536D01*
X187414Y148590D01*
X188265Y148943D01*
X188996Y149504D01*
X189557Y150235D01*
X189910Y151086D01*
X189964Y151500D01*
D02*
G37*
G36*
X186000D02*
X183036D01*
X183090Y151086D01*
X183443Y150235D01*
X184004Y149504D01*
X184735Y148943D01*
X185586Y148590D01*
X186000Y148536D01*
Y151500D01*
D02*
G37*
G36*
X279500Y154475D02*
X278730Y154374D01*
X278012Y154077D01*
X277396Y153604D01*
X276923Y152988D01*
X276626Y152270D01*
X276524Y151500D01*
X276626Y150730D01*
X276923Y150012D01*
X277396Y149396D01*
X278012Y148923D01*
X278730Y148626D01*
X279500Y148524D01*
X280270Y148626D01*
X280988Y148923D01*
X281604Y149396D01*
X282077Y150012D01*
X282374Y150730D01*
X282475Y151500D01*
X282374Y152270D01*
X282077Y152988D01*
X281604Y153604D01*
X280988Y154077D01*
X280270Y154374D01*
X279500Y154475D01*
D02*
G37*
G36*
X171636Y156988D02*
X170876Y156837D01*
X170231Y156406D01*
X169800Y155761D01*
X169648Y155000D01*
X169800Y154239D01*
X170231Y153594D01*
X170515Y153404D01*
Y150687D01*
X170094Y150406D01*
X169663Y149761D01*
X169512Y149000D01*
X169663Y148239D01*
X170094Y147594D01*
X170739Y147163D01*
X171500Y147012D01*
X172261Y147163D01*
X172906Y147594D01*
X173337Y148239D01*
X173488Y149000D01*
X173337Y149761D01*
X172906Y150406D01*
X172758Y150505D01*
Y153404D01*
X173042Y153594D01*
X173473Y154239D01*
X173625Y155000D01*
X173473Y155761D01*
X173042Y156406D01*
X172397Y156837D01*
X171636Y156988D01*
D02*
G37*
G36*
X307500Y147437D02*
Y144472D01*
X310464D01*
X310410Y144886D01*
X310057Y145738D01*
X309496Y146469D01*
X308765Y147030D01*
X307914Y147382D01*
X307500Y147437D01*
D02*
G37*
G36*
X306500D02*
X306086Y147382D01*
X305235Y147030D01*
X304504Y146469D01*
X303943Y145738D01*
X303590Y144886D01*
X303536Y144472D01*
X306500D01*
Y147437D01*
D02*
G37*
G36*
X134000Y148476D02*
X133230Y148374D01*
X132512Y148077D01*
X131896Y147604D01*
X131423Y146988D01*
X131126Y146270D01*
X131025Y145500D01*
X131126Y144730D01*
X131423Y144012D01*
X131896Y143396D01*
X132512Y142923D01*
X133230Y142626D01*
X134000Y142525D01*
X134770Y142626D01*
X135488Y142923D01*
X136104Y143396D01*
X136577Y144012D01*
X136874Y144730D01*
X136976Y145500D01*
X136874Y146270D01*
X136577Y146988D01*
X136104Y147604D01*
X135488Y148077D01*
X134770Y148374D01*
X134000Y148476D01*
D02*
G37*
G36*
X338724Y144964D02*
Y142000D01*
X341689D01*
X341634Y142414D01*
X341282Y143265D01*
X340721Y143996D01*
X339989Y144557D01*
X339138Y144910D01*
X338724Y144964D01*
D02*
G37*
G36*
X337724D02*
X337311Y144910D01*
X336459Y144557D01*
X335728Y143996D01*
X335167Y143265D01*
X334815Y142414D01*
X334760Y142000D01*
X337724D01*
Y144964D01*
D02*
G37*
G36*
X310464Y143472D02*
X307500D01*
Y140508D01*
X307914Y140562D01*
X308765Y140915D01*
X309496Y141476D01*
X310057Y142207D01*
X310410Y143059D01*
X310464Y143472D01*
D02*
G37*
G36*
X306500D02*
X303536D01*
X303590Y143059D01*
X303943Y142207D01*
X304504Y141476D01*
X305235Y140915D01*
X306086Y140562D01*
X306500Y140508D01*
Y143472D01*
D02*
G37*
G36*
X128500Y144475D02*
X127730Y144374D01*
X127012Y144077D01*
X126396Y143604D01*
X125923Y142988D01*
X125626Y142270D01*
X125524Y141500D01*
X125626Y140730D01*
X125923Y140012D01*
X126396Y139396D01*
X127012Y138923D01*
X127730Y138626D01*
X128500Y138524D01*
X129270Y138626D01*
X129988Y138923D01*
X130604Y139396D01*
X131077Y140012D01*
X131374Y140730D01*
X131475Y141500D01*
X131374Y142270D01*
X131077Y142988D01*
X130604Y143604D01*
X129988Y144077D01*
X129270Y144374D01*
X128500Y144475D01*
D02*
G37*
G36*
X341689Y141000D02*
X338724D01*
Y138036D01*
X339138Y138090D01*
X339989Y138443D01*
X340721Y139004D01*
X341282Y139735D01*
X341634Y140586D01*
X341689Y141000D01*
D02*
G37*
G36*
X337724D02*
X334760D01*
X334815Y140586D01*
X335167Y139735D01*
X335728Y139004D01*
X336459Y138443D01*
X337311Y138090D01*
X337724Y138036D01*
Y141000D01*
D02*
G37*
G36*
X119000Y138976D02*
X118230Y138874D01*
X117512Y138577D01*
X116896Y138104D01*
X116423Y137488D01*
X116126Y136770D01*
X116024Y136000D01*
X116126Y135230D01*
X116423Y134512D01*
X116896Y133896D01*
X117512Y133423D01*
X118230Y133126D01*
X119000Y133025D01*
X119770Y133126D01*
X120488Y133423D01*
X121104Y133896D01*
X121577Y134512D01*
X121874Y135230D01*
X121976Y136000D01*
X121874Y136770D01*
X121577Y137488D01*
X121104Y138104D01*
X120488Y138577D01*
X119770Y138874D01*
X119000Y138976D01*
D02*
G37*
%LPD*%
D15*
X169000Y163000D02*
Y175000D01*
X183500Y170000D02*
Y177500D01*
X179000Y170000D02*
Y175000D01*
X174000Y165500D02*
Y175500D01*
Y165500D02*
X174050Y165450D01*
X142347Y205618D02*
X142732Y206004D01*
X141748Y205618D02*
X142347D01*
D55*
X140848D02*
X140984Y205754D01*
D56*
X171636Y149136D02*
Y155000D01*
X171500Y149000D02*
X171636Y149136D01*
X345000Y229673D02*
Y238000D01*
X344827Y229500D02*
X345000Y229673D01*
X343098Y239902D02*
X345000Y238000D01*
X337453Y239902D02*
X343098D01*
D57*
X286500Y234500D02*
Y243500D01*
D58*
X142732Y206004D02*
Y211524D01*
X139735Y194869D02*
X140366Y195500D01*
X126631Y194869D02*
X139735D01*
X126000Y195500D02*
X126631Y194869D01*
D59*
X142732Y211524D02*
D03*
D60*
Y189476D02*
D03*
D61*
X134268Y200500D02*
D03*
D62*
X298000Y208000D02*
D03*
X300500Y243500D02*
D03*
X286500Y234500D02*
D03*
X145000Y239000D02*
D03*
X346000Y219500D02*
D03*
X186500Y152000D02*
D03*
X117500Y258500D02*
D03*
X95500Y228783D02*
D03*
X307000Y143972D02*
D03*
X338224Y141500D02*
D03*
X353500Y153500D02*
D03*
Y163500D02*
D03*
X336500Y173500D02*
D03*
X145000Y229500D02*
D03*
X299500Y191000D02*
D03*
X339500Y190500D02*
D03*
X126000Y195500D02*
D03*
X124500Y218000D02*
D03*
X328000Y196474D02*
D03*
X337000Y219500D02*
D03*
X353500Y229000D02*
D03*
D63*
X165500Y159000D02*
D03*
X169000Y175000D02*
D03*
Y163000D02*
D03*
X183500Y177500D02*
D03*
Y170000D02*
D03*
X179000D02*
D03*
Y175000D02*
D03*
X174000Y175500D02*
D03*
X174050Y165450D02*
D03*
X87500Y171000D02*
D03*
X171636Y155000D02*
D03*
X171500Y149000D02*
D03*
X230500Y193280D02*
D03*
Y179500D02*
D03*
X308500Y238000D02*
D03*
X139059Y169280D02*
D03*
X118500Y188500D02*
D03*
X101500Y157500D02*
D03*
X133500Y161500D02*
D03*
X131500Y246500D02*
D03*
X95500D02*
D03*
X330000Y230000D02*
D03*
X337453Y239902D02*
D03*
X345000Y247500D02*
D03*
D64*
X286500Y243500D02*
D03*
X279500Y151500D02*
D03*
X126500Y182000D02*
D03*
X110000Y184000D02*
D03*
X95328D02*
D03*
X104000D02*
D03*
X134000Y145500D02*
D03*
X119000Y136000D02*
D03*
X128500Y141500D02*
D03*
X88500Y184000D02*
D03*
D65*
X131327Y228783D02*
D03*
X95500D02*
D03*
X131327Y246500D02*
D03*
X95500D02*
D03*
X309000Y247217D02*
D03*
X344827D02*
D03*
X309000Y229500D02*
D03*
X344827D02*
D03*
D66*
X141748Y205618D02*
D03*
Y203059D02*
D03*
Y200500D02*
D03*
Y197941D02*
D03*
Y195382D02*
D03*
M02*
