G04*
G04 #@! TF.GenerationSoftware,Altium Limited,Altium Designer,19.1.7 (138)*
G04*
G04 Layer_Physical_Order=2*
G04 Layer_Color=16711680*
%FSLAX25Y25*%
%MOIN*%
G70*
G01*
G75*
%ADD53C,0.02000*%
%ADD54C,0.01000*%
%ADD55C,0.00800*%
%ADD57C,0.01200*%
%ADD58O,0.04331X0.06693*%
%ADD59O,0.04331X0.07087*%
%ADD60O,0.04331X0.08661*%
%ADD61C,0.04500*%
%ADD62C,0.02500*%
%ADD63C,0.05000*%
%ADD64R,0.08268X0.05512*%
%ADD65R,0.05906X0.01772*%
G36*
X325367Y262945D02*
X328820Y262305D01*
X332191Y261325D01*
X335448Y260015D01*
X338560Y258388D01*
X341493Y256460D01*
X344221Y254250D01*
X346716Y251779D01*
X348953Y249073D01*
X350910Y246158D01*
X352568Y243063D01*
X353909Y239819D01*
X354922Y236457D01*
X355596Y233012D01*
X355924Y229516D01*
X355904Y226005D01*
X355534Y222514D01*
X354819Y219076D01*
X353766Y215727D01*
X352386Y212499D01*
X350692Y209424D01*
X348700Y206532D01*
X346431Y203853D01*
X343908Y201412D01*
X341154Y199234D01*
X339675Y198288D01*
X339653Y198267D01*
X339626Y198255D01*
X339439Y198061D01*
X339245Y197874D01*
X339233Y197847D01*
X339212Y197825D01*
X339114Y197574D01*
X339006Y197327D01*
X339006Y197297D01*
X338995Y197269D01*
X339000Y197000D01*
X338995Y196731D01*
X339006Y196703D01*
X339006Y196672D01*
X339114Y196426D01*
X339212Y196175D01*
X339233Y196153D01*
X339245Y196126D01*
X339439Y195939D01*
X339626Y195745D01*
X339653Y195733D01*
X339675Y195712D01*
X341154Y194765D01*
X343907Y192588D01*
X346431Y190147D01*
X348700Y187468D01*
X350692Y184576D01*
X352386Y181501D01*
X353766Y178273D01*
X354819Y174924D01*
X355534Y171486D01*
X355904Y167995D01*
X355924Y164484D01*
X355596Y160988D01*
X354922Y157543D01*
X353909Y154181D01*
X352568Y150937D01*
X350910Y147842D01*
X348953Y144927D01*
X346716Y142221D01*
X344221Y139750D01*
X341493Y137540D01*
X338559Y135612D01*
X335448Y133985D01*
X332191Y132675D01*
X328820Y131695D01*
X325367Y131055D01*
X321869Y130761D01*
X318358Y130816D01*
X314871Y131220D01*
X311440Y131968D01*
X308102Y133054D01*
X304887Y134466D01*
X301829Y136190D01*
X298957Y138210D01*
X296300Y140505D01*
X293884Y143053D01*
X291732Y145830D01*
X290793Y147317D01*
X290676Y147440D01*
X290581Y147581D01*
X290472Y147654D01*
X290382Y147749D01*
X290227Y147819D01*
X290085Y147913D01*
X289957Y147939D01*
X289837Y147992D01*
X289667Y147996D01*
X289500Y148029D01*
X187004Y148032D01*
X186972Y148532D01*
X187414Y148590D01*
X188265Y148943D01*
X188996Y149504D01*
X189557Y150235D01*
X189910Y151086D01*
X189964Y151500D01*
X183036D01*
X183090Y151086D01*
X183443Y150235D01*
X184004Y149504D01*
X184735Y148943D01*
X185586Y148590D01*
X186028Y148532D01*
X185995Y148032D01*
X145994Y148033D01*
X145825Y147999D01*
X145652Y147994D01*
X145535Y147942D01*
X145409Y147916D01*
X145265Y147820D01*
X145108Y147750D01*
X145020Y147656D01*
X144913Y147585D01*
X144817Y147441D01*
X144698Y147316D01*
X143766Y145828D01*
X141616Y143053D01*
X139200Y140505D01*
X136543Y138210D01*
X133671Y136190D01*
X130613Y134466D01*
X127398Y133054D01*
X124059Y131968D01*
X120629Y131220D01*
X117142Y130816D01*
X113631Y130761D01*
X110133Y131055D01*
X106680Y131695D01*
X103309Y132675D01*
X100052Y133985D01*
X96940Y135612D01*
X94007Y137540D01*
X91279Y139750D01*
X88784Y142221D01*
X86547Y144927D01*
X84590Y147842D01*
X82932Y150937D01*
X81590Y154181D01*
X80578Y157543D01*
X79904Y160988D01*
X79576Y164484D01*
X79597Y167995D01*
X79966Y171486D01*
X80681Y174924D01*
X81734Y178273D01*
X83114Y181501D01*
X84808Y184576D01*
X86800Y187468D01*
X89069Y190147D01*
X91592Y192588D01*
X94346Y194765D01*
X95825Y195712D01*
X95846Y195733D01*
X95874Y195745D01*
X96061Y195939D01*
X96255Y196126D01*
X96267Y196153D01*
X96288Y196175D01*
X96386Y196426D01*
X96494Y196672D01*
X96494Y196703D01*
X96505Y196731D01*
X96500Y197000D01*
X96505Y197269D01*
X96494Y197297D01*
X96494Y197327D01*
X96386Y197574D01*
X96288Y197825D01*
X96267Y197847D01*
X96255Y197874D01*
X96061Y198061D01*
X95874Y198255D01*
X95846Y198267D01*
X95825Y198288D01*
X94346Y199234D01*
X91592Y201412D01*
X89069Y203853D01*
X86800Y206532D01*
X84808Y209424D01*
X83114Y212499D01*
X81734Y215727D01*
X80681Y219076D01*
X79966Y222514D01*
X79597Y226005D01*
X79576Y229516D01*
X79904Y233012D01*
X80578Y236457D01*
X81590Y239819D01*
X82932Y243063D01*
X84590Y246158D01*
X86547Y249073D01*
X88784Y251779D01*
X91279Y254250D01*
X94007Y256460D01*
X96941Y258388D01*
X100052Y260015D01*
X103309Y261325D01*
X106680Y262305D01*
X110132Y262945D01*
X113631Y263239D01*
X117142Y263184D01*
X120629Y262780D01*
X124059Y262032D01*
X127398Y260946D01*
X130613Y259534D01*
X133671Y257810D01*
X136543Y255790D01*
X139200Y253495D01*
X141616Y250947D01*
X143768Y248170D01*
X144707Y246683D01*
X144824Y246560D01*
X144919Y246419D01*
X145028Y246346D01*
X145118Y246251D01*
X145273Y246182D01*
X145415Y246087D01*
X145544Y246061D01*
X145663Y246008D01*
X145833Y246004D01*
X146000Y245971D01*
X289506Y245967D01*
X289675Y246001D01*
X289848Y246006D01*
X289965Y246058D01*
X290091Y246083D01*
X290235Y246180D01*
X290392Y246250D01*
X290480Y246344D01*
X290587Y246415D01*
X290683Y246559D01*
X290802Y246684D01*
X291734Y248172D01*
X293884Y250947D01*
X296300Y253495D01*
X298957Y255790D01*
X301829Y257810D01*
X304887Y259534D01*
X308102Y260946D01*
X311440Y262032D01*
X314871Y262780D01*
X318358Y263184D01*
X321869Y263239D01*
X325367Y262945D01*
D02*
G37*
%LPC*%
G36*
X118000Y261964D02*
Y259000D01*
X120964D01*
X120910Y259414D01*
X120557Y260265D01*
X119996Y260996D01*
X119265Y261557D01*
X118414Y261910D01*
X118000Y261964D01*
D02*
G37*
G36*
X117000D02*
X116586Y261910D01*
X115735Y261557D01*
X115004Y260996D01*
X114443Y260265D01*
X114090Y259414D01*
X114036Y259000D01*
X117000D01*
Y261964D01*
D02*
G37*
G36*
X120964Y258000D02*
X118000D01*
Y255036D01*
X118414Y255090D01*
X119265Y255443D01*
X119996Y256004D01*
X120557Y256735D01*
X120910Y257586D01*
X120964Y258000D01*
D02*
G37*
G36*
X117000D02*
X114036D01*
X114090Y257586D01*
X114443Y256735D01*
X115004Y256004D01*
X115735Y255443D01*
X116586Y255090D01*
X117000Y255036D01*
Y258000D01*
D02*
G37*
G36*
X309334Y250672D02*
X299666D01*
Y244248D01*
X299666Y244238D01*
X299666Y244238D01*
X299666Y244000D01*
X299166Y243967D01*
X299118Y244335D01*
X298795Y245114D01*
X298282Y245782D01*
X297614Y246295D01*
X296835Y246618D01*
X296000Y246728D01*
X295165Y246618D01*
X294386Y246295D01*
X293718Y245782D01*
X293205Y245114D01*
X292882Y244335D01*
X292772Y243500D01*
X292882Y242665D01*
X293205Y241886D01*
X293718Y241218D01*
X294386Y240705D01*
X295165Y240382D01*
X296000Y240272D01*
X296835Y240382D01*
X297614Y240705D01*
X298282Y241218D01*
X298795Y241886D01*
X299118Y242665D01*
X299224Y243470D01*
X299228Y243500D01*
X299263Y243676D01*
X299698Y243761D01*
X300067Y243761D01*
X309334D01*
Y250672D01*
D02*
G37*
G36*
X345161D02*
X335493D01*
Y243761D01*
X345161D01*
Y250672D01*
D02*
G37*
G36*
X136161Y249956D02*
X126493D01*
Y243044D01*
X136161D01*
Y249956D01*
D02*
G37*
G36*
X100334D02*
X90666D01*
Y243044D01*
X100334D01*
Y249956D01*
D02*
G37*
G36*
X304500Y240195D02*
Y238500D01*
X306195D01*
X306119Y238878D01*
X305622Y239622D01*
X304878Y240120D01*
X304500Y240195D01*
D02*
G37*
G36*
X303500D02*
X303122Y240120D01*
X302378Y239622D01*
X301881Y238878D01*
X301805Y238500D01*
X303500D01*
Y240195D01*
D02*
G37*
G36*
X306195Y237500D02*
X304500D01*
Y235805D01*
X304878Y235880D01*
X305622Y236378D01*
X306119Y237122D01*
X306195Y237500D01*
D02*
G37*
G36*
X303500D02*
X301805D01*
X301881Y237122D01*
X302378Y236378D01*
X303122Y235880D01*
X303500Y235805D01*
Y237500D01*
D02*
G37*
G36*
X144500Y240728D02*
X143665Y240618D01*
X142886Y240295D01*
X142218Y239782D01*
X141705Y239114D01*
X141382Y238335D01*
X141272Y237500D01*
X141382Y236665D01*
X141705Y235886D01*
X142218Y235218D01*
X142886Y234705D01*
X143665Y234382D01*
X144500Y234272D01*
X145335Y234382D01*
X146114Y234705D01*
X146782Y235218D01*
X147295Y235886D01*
X147618Y236665D01*
X147728Y237500D01*
X147618Y238335D01*
X147295Y239114D01*
X146782Y239782D01*
X146114Y240295D01*
X145335Y240618D01*
X144500Y240728D01*
D02*
G37*
G36*
X326000Y232195D02*
Y230500D01*
X327695D01*
X327620Y230878D01*
X327122Y231622D01*
X326378Y232119D01*
X326000Y232195D01*
D02*
G37*
G36*
X325000D02*
X324622Y232119D01*
X323878Y231622D01*
X323380Y230878D01*
X323305Y230500D01*
X325000D01*
Y232195D01*
D02*
G37*
G36*
X282000Y244476D02*
X281230Y244374D01*
X280512Y244077D01*
X279896Y243604D01*
X279423Y242988D01*
X279126Y242270D01*
X279025Y241500D01*
X279126Y240730D01*
X279423Y240012D01*
X279896Y239396D01*
X280267Y239112D01*
Y235703D01*
X279718Y235282D01*
X279205Y234614D01*
X278882Y233835D01*
X278772Y233000D01*
X278882Y232165D01*
X279205Y231386D01*
X279718Y230718D01*
X280386Y230205D01*
X281165Y229882D01*
X282000Y229772D01*
X282835Y229882D01*
X283614Y230205D01*
X284282Y230718D01*
X284795Y231386D01*
X285118Y232165D01*
X285228Y233000D01*
X285118Y233835D01*
X284795Y234614D01*
X284282Y235282D01*
X283733Y235703D01*
Y239112D01*
X284104Y239396D01*
X284577Y240012D01*
X284874Y240730D01*
X284976Y241500D01*
X284874Y242270D01*
X284577Y242988D01*
X284104Y243604D01*
X283488Y244077D01*
X282770Y244374D01*
X282000Y244476D01*
D02*
G37*
G36*
X349500Y232464D02*
Y229500D01*
X352464D01*
X352410Y229914D01*
X352057Y230765D01*
X351496Y231496D01*
X350765Y232057D01*
X349914Y232410D01*
X349500Y232464D01*
D02*
G37*
G36*
X136461Y232539D02*
X131827D01*
Y229283D01*
X136461D01*
Y232539D01*
D02*
G37*
G36*
X100634D02*
X96000D01*
Y229283D01*
X100634D01*
Y232539D01*
D02*
G37*
G36*
X130827D02*
X126193D01*
Y229283D01*
X130827D01*
Y232539D01*
D02*
G37*
G36*
X95000D02*
X90366D01*
Y229283D01*
X95000D01*
Y232539D01*
D02*
G37*
G36*
X145000Y231464D02*
Y228500D01*
X147964D01*
X147910Y228914D01*
X147557Y229765D01*
X146996Y230496D01*
X146265Y231057D01*
X145414Y231410D01*
X145000Y231464D01*
D02*
G37*
G36*
X144000D02*
X143586Y231410D01*
X142735Y231057D01*
X142004Y230496D01*
X141443Y229765D01*
X141090Y228914D01*
X141036Y228500D01*
X144000D01*
Y231464D01*
D02*
G37*
G36*
X327695Y229500D02*
X326000D01*
Y227805D01*
X326378Y227881D01*
X327122Y228378D01*
X327620Y229122D01*
X327695Y229500D01*
D02*
G37*
G36*
X325000D02*
X323305D01*
X323380Y229122D01*
X323878Y228378D01*
X324622Y227881D01*
X325000Y227805D01*
Y229500D01*
D02*
G37*
G36*
X309334Y232956D02*
X299666D01*
Y226044D01*
X309334D01*
Y232956D01*
D02*
G37*
G36*
X352464Y228500D02*
X349500D01*
Y225536D01*
X349914Y225590D01*
X350765Y225943D01*
X351496Y226504D01*
X352057Y227235D01*
X352410Y228086D01*
X352464Y228500D01*
D02*
G37*
G36*
X332953Y241890D02*
X332192Y241739D01*
X331547Y241307D01*
X331116Y240662D01*
X330965Y239902D01*
X331116Y239141D01*
X331547Y238496D01*
X332192Y238065D01*
X332953Y237913D01*
X333714Y238065D01*
X334359Y238496D01*
X334549Y238780D01*
X338134D01*
X339378Y237535D01*
Y232956D01*
X335493D01*
Y226044D01*
X345161D01*
Y227817D01*
X345661Y227916D01*
X345943Y227235D01*
X346504Y226504D01*
X347235Y225943D01*
X348086Y225590D01*
X348500Y225536D01*
Y229000D01*
Y232464D01*
X348086Y232410D01*
X347235Y232057D01*
X346504Y231496D01*
X345943Y230765D01*
X345661Y230084D01*
X345161Y230184D01*
Y232956D01*
X341621D01*
Y238000D01*
X341536Y238429D01*
X341293Y238793D01*
X341293Y238793D01*
X339391Y240695D01*
X339028Y240938D01*
X338598Y241023D01*
X338598Y241023D01*
X334549D01*
X334359Y241307D01*
X333714Y241739D01*
X332953Y241890D01*
D02*
G37*
G36*
X136461Y228284D02*
X131827D01*
Y225028D01*
X136461D01*
Y228284D01*
D02*
G37*
G36*
X130827D02*
X126193D01*
Y225028D01*
X130827D01*
Y228284D01*
D02*
G37*
G36*
X100634D02*
X96000D01*
Y225028D01*
X100634D01*
Y228284D01*
D02*
G37*
G36*
X95000D02*
X90366D01*
Y225028D01*
X95000D01*
Y228284D01*
D02*
G37*
G36*
X147964Y227500D02*
X145000D01*
Y224536D01*
X145414Y224590D01*
X146265Y224943D01*
X146996Y225504D01*
X147557Y226235D01*
X147910Y227086D01*
X147964Y227500D01*
D02*
G37*
G36*
X144000D02*
X141036D01*
X141090Y227086D01*
X141443Y226235D01*
X142004Y225504D01*
X142735Y224943D01*
X143586Y224590D01*
X144000Y224536D01*
Y227500D01*
D02*
G37*
G36*
X125000Y223464D02*
Y220500D01*
X127964D01*
X127910Y220914D01*
X127557Y221765D01*
X126996Y222496D01*
X126265Y223057D01*
X125414Y223410D01*
X125000Y223464D01*
D02*
G37*
G36*
X124000D02*
X123586Y223410D01*
X122735Y223057D01*
X122004Y222496D01*
X121443Y221765D01*
X121090Y220914D01*
X121036Y220500D01*
X124000D01*
Y223464D01*
D02*
G37*
G36*
X127964Y219500D02*
X125000D01*
Y216536D01*
X125414Y216590D01*
X126265Y216943D01*
X126996Y217504D01*
X127557Y218235D01*
X127910Y219086D01*
X127964Y219500D01*
D02*
G37*
G36*
X124000D02*
X121036D01*
X121090Y219086D01*
X121443Y218235D01*
X122004Y217504D01*
X122735Y216943D01*
X123586Y216590D01*
X124000Y216536D01*
Y219500D01*
D02*
G37*
G36*
X95000Y218212D02*
Y215500D01*
X97712D01*
X97666Y215848D01*
X97339Y216639D01*
X96818Y217318D01*
X96139Y217839D01*
X95348Y218166D01*
X95000Y218212D01*
D02*
G37*
G36*
X94000D02*
X93652Y218166D01*
X92861Y217839D01*
X92182Y217318D01*
X91661Y216639D01*
X91334Y215848D01*
X91288Y215500D01*
X94000D01*
Y218212D01*
D02*
G37*
G36*
X143000Y216808D02*
Y213000D01*
X145693D01*
Y213681D01*
X145584Y214507D01*
X145265Y215277D01*
X144757Y215939D01*
X144096Y216446D01*
X143326Y216765D01*
X143000Y216808D01*
D02*
G37*
G36*
X142000D02*
X141674Y216765D01*
X140904Y216446D01*
X140243Y215939D01*
X139735Y215277D01*
X139416Y214507D01*
X139307Y213681D01*
Y213000D01*
X142000D01*
Y216808D01*
D02*
G37*
G36*
X97712Y214500D02*
X95000D01*
Y211788D01*
X95348Y211834D01*
X96139Y212161D01*
X96818Y212682D01*
X97339Y213361D01*
X97666Y214152D01*
X97712Y214500D01*
D02*
G37*
G36*
X94000D02*
X91288D01*
X91334Y214152D01*
X91661Y213361D01*
X92182Y212682D01*
X92861Y212161D01*
X93652Y211834D01*
X94000Y211788D01*
Y214500D01*
D02*
G37*
G36*
X334000Y217728D02*
X333165Y217618D01*
X332386Y217295D01*
X331718Y216782D01*
X331205Y216114D01*
X330882Y215335D01*
X330772Y214500D01*
X330882Y213665D01*
X331205Y212886D01*
X331718Y212218D01*
X332386Y211705D01*
X333165Y211382D01*
X334000Y211272D01*
X334835Y211382D01*
X335614Y211705D01*
X336282Y212218D01*
X336795Y212886D01*
X337118Y213665D01*
X337228Y214500D01*
X337118Y215335D01*
X336795Y216114D01*
X336282Y216782D01*
X335614Y217295D01*
X334835Y217618D01*
X334000Y217728D01*
D02*
G37*
G36*
X299500Y210464D02*
Y207500D01*
X302464D01*
X302410Y207914D01*
X302057Y208765D01*
X301496Y209496D01*
X300765Y210057D01*
X299914Y210410D01*
X299500Y210464D01*
D02*
G37*
G36*
X298500D02*
X298086Y210410D01*
X297235Y210057D01*
X296504Y209496D01*
X295943Y208765D01*
X295590Y207914D01*
X295536Y207500D01*
X298500D01*
Y210464D01*
D02*
G37*
G36*
X145693Y212000D02*
X142500D01*
X139307D01*
Y211319D01*
X139416Y210493D01*
X139735Y209723D01*
X140243Y209061D01*
X140348Y208980D01*
X140178Y208480D01*
X137563D01*
Y207095D01*
X141516D01*
X145468D01*
Y208480D01*
X144822D01*
X144652Y208980D01*
X144757Y209061D01*
X145265Y209723D01*
X145584Y210493D01*
X145693Y211319D01*
Y212000D01*
D02*
G37*
G36*
X302464Y206500D02*
X299500D01*
Y203536D01*
X299914Y203590D01*
X300765Y203943D01*
X301496Y204504D01*
X302057Y205235D01*
X302410Y206086D01*
X302464Y206500D01*
D02*
G37*
G36*
X298500D02*
X295536D01*
X295590Y206086D01*
X295943Y205235D01*
X296504Y204504D01*
X297235Y203943D01*
X298086Y203590D01*
X298500Y203536D01*
Y206500D01*
D02*
G37*
G36*
X134535Y206769D02*
Y201976D01*
X137228D01*
Y203642D01*
X137119Y204468D01*
X136800Y205238D01*
X136293Y205899D01*
X135632Y206407D01*
X134862Y206726D01*
X134535Y206769D01*
D02*
G37*
G36*
X133535D02*
X133209Y206726D01*
X132439Y206407D01*
X131778Y205899D01*
X131271Y205238D01*
X130952Y204468D01*
X130843Y203642D01*
Y201976D01*
X133535D01*
Y206769D01*
D02*
G37*
G36*
X330500Y200464D02*
Y197500D01*
X333464D01*
X333410Y197914D01*
X333057Y198765D01*
X332496Y199496D01*
X331765Y200057D01*
X330914Y200410D01*
X330500Y200464D01*
D02*
G37*
G36*
X329500D02*
X329086Y200410D01*
X328235Y200057D01*
X327504Y199496D01*
X326943Y198765D01*
X326590Y197914D01*
X326536Y197500D01*
X329500D01*
Y200464D01*
D02*
G37*
G36*
X145468Y206095D02*
X141516D01*
X137563D01*
Y204709D01*
X137863D01*
Y199891D01*
Y196195D01*
X135995D01*
X135826Y196695D01*
X136293Y197054D01*
X136800Y197715D01*
X137119Y198485D01*
X137228Y199311D01*
Y200976D01*
X134035D01*
X130843D01*
Y199311D01*
X130952Y198485D01*
X131271Y197715D01*
X131778Y197054D01*
X132245Y196695D01*
X132076Y196195D01*
X129180D01*
X128807Y196568D01*
X128874Y196730D01*
X128975Y197500D01*
X128874Y198270D01*
X128577Y198988D01*
X128104Y199604D01*
X127488Y200077D01*
X126770Y200374D01*
X126000Y200476D01*
X125230Y200374D01*
X124512Y200077D01*
X123896Y199604D01*
X123423Y198988D01*
X123126Y198270D01*
X123024Y197500D01*
X123126Y196730D01*
X123423Y196012D01*
X123896Y195396D01*
X124512Y194923D01*
X125230Y194626D01*
X126000Y194525D01*
X126770Y194626D01*
X126932Y194693D01*
X127693Y193932D01*
X128123Y193645D01*
X128631Y193544D01*
X139242D01*
X139576Y193044D01*
X139416Y192657D01*
X139307Y191831D01*
Y190953D01*
X142500D01*
X145693D01*
Y191831D01*
X145584Y192657D01*
X145265Y193427D01*
X144757Y194088D01*
X144518Y194272D01*
X144687Y194773D01*
X145168D01*
Y197332D01*
Y199891D01*
Y204709D01*
X145468D01*
Y206095D01*
D02*
G37*
G36*
X241000Y195474D02*
Y193780D01*
X242695D01*
X242619Y194157D01*
X242122Y194902D01*
X241378Y195399D01*
X241000Y195474D01*
D02*
G37*
G36*
X240000D02*
X239622Y195399D01*
X238878Y194902D01*
X238381Y194157D01*
X238305Y193780D01*
X240000D01*
Y195474D01*
D02*
G37*
G36*
X333464Y196500D02*
X330500D01*
Y193536D01*
X330914Y193590D01*
X331765Y193943D01*
X332496Y194504D01*
X333057Y195235D01*
X333410Y196086D01*
X333464Y196500D01*
D02*
G37*
G36*
X329500D02*
X326536D01*
X326590Y196086D01*
X326943Y195235D01*
X327504Y194504D01*
X328235Y193943D01*
X329086Y193590D01*
X329500Y193536D01*
Y196500D01*
D02*
G37*
G36*
X305000Y195209D02*
Y192244D01*
X307964D01*
X307910Y192658D01*
X307557Y193509D01*
X306996Y194240D01*
X306265Y194801D01*
X305414Y195154D01*
X305000Y195209D01*
D02*
G37*
G36*
X304000D02*
X303586Y195154D01*
X302735Y194801D01*
X302004Y194240D01*
X301443Y193509D01*
X301090Y192658D01*
X301036Y192244D01*
X304000D01*
Y195209D01*
D02*
G37*
G36*
X242695Y192780D02*
X241000D01*
Y191085D01*
X241378Y191160D01*
X242122Y191657D01*
X242619Y192402D01*
X242695Y192780D01*
D02*
G37*
G36*
X240000D02*
X238305D01*
X238381Y192402D01*
X238878Y191657D01*
X239622Y191160D01*
X240000Y191085D01*
Y192780D01*
D02*
G37*
G36*
X119000Y192695D02*
Y191000D01*
X120695D01*
X120619Y191378D01*
X120122Y192122D01*
X119378Y192620D01*
X119000Y192695D01*
D02*
G37*
G36*
X118000D02*
X117622Y192620D01*
X116878Y192122D01*
X116381Y191378D01*
X116305Y191000D01*
X118000D01*
Y192695D01*
D02*
G37*
G36*
X120695Y190000D02*
X119000D01*
Y188305D01*
X119378Y188381D01*
X120122Y188878D01*
X120619Y189622D01*
X120695Y190000D01*
D02*
G37*
G36*
X118000D02*
X116305D01*
X116381Y189622D01*
X116878Y188878D01*
X117622Y188381D01*
X118000Y188305D01*
Y190000D01*
D02*
G37*
G36*
X307964Y191244D02*
X305000D01*
Y188280D01*
X305414Y188334D01*
X306265Y188687D01*
X306996Y189248D01*
X307557Y189979D01*
X307910Y190830D01*
X307964Y191244D01*
D02*
G37*
G36*
X304000D02*
X301036D01*
X301090Y190830D01*
X301443Y189979D01*
X302004Y189248D01*
X302735Y188687D01*
X303586Y188334D01*
X304000Y188280D01*
Y191244D01*
D02*
G37*
G36*
X145693Y189953D02*
X143000D01*
Y185948D01*
X143326Y185991D01*
X144096Y186310D01*
X144757Y186817D01*
X145265Y187478D01*
X145584Y188249D01*
X145693Y189075D01*
Y189953D01*
D02*
G37*
G36*
X142000D02*
X139307D01*
Y189075D01*
X139416Y188249D01*
X139735Y187478D01*
X140243Y186817D01*
X140904Y186310D01*
X141674Y185991D01*
X142000Y185948D01*
Y189953D01*
D02*
G37*
G36*
X110500Y188476D02*
X109730Y188374D01*
X109012Y188077D01*
X108396Y187604D01*
X107923Y186988D01*
X107626Y186270D01*
X107525Y185500D01*
X107626Y184730D01*
X107923Y184012D01*
X108396Y183396D01*
X109012Y182923D01*
X109730Y182626D01*
X110500Y182525D01*
X111270Y182626D01*
X111988Y182923D01*
X112604Y183396D01*
X113077Y184012D01*
X113374Y184730D01*
X113476Y185500D01*
X113374Y186270D01*
X113077Y186988D01*
X112604Y187604D01*
X111988Y188077D01*
X111270Y188374D01*
X110500Y188476D01*
D02*
G37*
G36*
X103000D02*
X102230Y188374D01*
X101512Y188077D01*
X100896Y187604D01*
X100423Y186988D01*
X100126Y186270D01*
X100024Y185500D01*
X100126Y184730D01*
X100423Y184012D01*
X100896Y183396D01*
X101512Y182923D01*
X102230Y182626D01*
X103000Y182525D01*
X103770Y182626D01*
X104488Y182923D01*
X105104Y183396D01*
X105577Y184012D01*
X105874Y184730D01*
X105975Y185500D01*
X105874Y186270D01*
X105577Y186988D01*
X105104Y187604D01*
X104488Y188077D01*
X103770Y188374D01*
X103000Y188476D01*
D02*
G37*
G36*
X91547Y187976D02*
X90777Y187874D01*
X90060Y187577D01*
X89443Y187104D01*
X88970Y186488D01*
X88673Y185770D01*
X88572Y185000D01*
X88673Y184230D01*
X88970Y183512D01*
X89443Y182896D01*
X90060Y182423D01*
X90777Y182126D01*
X91547Y182025D01*
X92317Y182126D01*
X93035Y182423D01*
X93651Y182896D01*
X94124Y183512D01*
X94421Y184230D01*
X94523Y185000D01*
X94421Y185770D01*
X94124Y186488D01*
X93651Y187104D01*
X93035Y187577D01*
X92317Y187874D01*
X91547Y187976D01*
D02*
G37*
G36*
X301500Y183964D02*
Y181000D01*
X304464D01*
X304410Y181414D01*
X304057Y182265D01*
X303496Y182996D01*
X302765Y183557D01*
X301914Y183910D01*
X301500Y183964D01*
D02*
G37*
G36*
X300500D02*
X300086Y183910D01*
X299235Y183557D01*
X298504Y182996D01*
X297943Y182265D01*
X297590Y181414D01*
X297536Y181000D01*
X300500D01*
Y183964D01*
D02*
G37*
G36*
X241000Y181695D02*
Y180000D01*
X242695D01*
X242619Y180378D01*
X242122Y181122D01*
X241378Y181620D01*
X241000Y181695D01*
D02*
G37*
G36*
X240000D02*
X239622Y181620D01*
X238878Y181122D01*
X238381Y180378D01*
X238305Y180000D01*
X240000D01*
Y181695D01*
D02*
G37*
G36*
X126500Y185476D02*
X125730Y185374D01*
X125012Y185077D01*
X124396Y184604D01*
X123923Y183988D01*
X123626Y183270D01*
X123524Y182500D01*
X123626Y181730D01*
X123923Y181012D01*
X124396Y180396D01*
X125012Y179923D01*
X125730Y179626D01*
X126500Y179525D01*
X127270Y179626D01*
X127988Y179923D01*
X128604Y180396D01*
X129077Y181012D01*
X129374Y181730D01*
X129475Y182500D01*
X129374Y183270D01*
X129077Y183988D01*
X128604Y184604D01*
X127988Y185077D01*
X127270Y185374D01*
X126500Y185476D01*
D02*
G37*
G36*
X242695Y179000D02*
X241000D01*
Y177305D01*
X241378Y177381D01*
X242122Y177878D01*
X242619Y178622D01*
X242695Y179000D01*
D02*
G37*
G36*
X240000D02*
X238305D01*
X238381Y178622D01*
X238878Y177878D01*
X239622Y177381D01*
X240000Y177305D01*
Y179000D01*
D02*
G37*
G36*
X304464Y180000D02*
X301500D01*
Y177036D01*
X301914Y177090D01*
X302765Y177443D01*
X303496Y178004D01*
X304057Y178735D01*
X304410Y179586D01*
X304464Y180000D01*
D02*
G37*
G36*
X300500D02*
X297536D01*
X297590Y179586D01*
X297943Y178735D01*
X298504Y178004D01*
X299235Y177443D01*
X300086Y177090D01*
X300500Y177036D01*
Y180000D01*
D02*
G37*
G36*
X336000Y176964D02*
Y174000D01*
X338964D01*
X338910Y174414D01*
X338557Y175265D01*
X337996Y175996D01*
X337265Y176557D01*
X336414Y176910D01*
X336000Y176964D01*
D02*
G37*
G36*
X335000D02*
X334586Y176910D01*
X333735Y176557D01*
X333004Y175996D01*
X332443Y175265D01*
X332090Y174414D01*
X332036Y174000D01*
X335000D01*
Y176964D01*
D02*
G37*
G36*
X139500Y173695D02*
Y172000D01*
X141195D01*
X141120Y172378D01*
X140622Y173122D01*
X139878Y173619D01*
X139500Y173695D01*
D02*
G37*
G36*
X138500D02*
X138122Y173619D01*
X137378Y173122D01*
X136881Y172378D01*
X136805Y172000D01*
X138500D01*
Y173695D01*
D02*
G37*
G36*
X88000Y173195D02*
Y171500D01*
X89695D01*
X89619Y171878D01*
X89122Y172622D01*
X88378Y173119D01*
X88000Y173195D01*
D02*
G37*
G36*
X87000D02*
X86622Y173119D01*
X85878Y172622D01*
X85381Y171878D01*
X85305Y171500D01*
X87000D01*
Y173195D01*
D02*
G37*
G36*
X338964Y173000D02*
X336000D01*
Y170036D01*
X336414Y170090D01*
X337265Y170443D01*
X337996Y171004D01*
X338557Y171735D01*
X338910Y172586D01*
X338964Y173000D01*
D02*
G37*
G36*
X335000D02*
X332036D01*
X332090Y172586D01*
X332443Y171735D01*
X333004Y171004D01*
X333735Y170443D01*
X334586Y170090D01*
X335000Y170036D01*
Y173000D01*
D02*
G37*
G36*
X141195Y171000D02*
X139500D01*
Y169305D01*
X139878Y169380D01*
X140622Y169878D01*
X141120Y170622D01*
X141195Y171000D01*
D02*
G37*
G36*
X138500D02*
X136805D01*
X136881Y170622D01*
X137378Y169878D01*
X138122Y169380D01*
X138500Y169305D01*
Y171000D01*
D02*
G37*
G36*
X89695Y170500D02*
X88000D01*
Y168805D01*
X88378Y168880D01*
X89122Y169378D01*
X89619Y170122D01*
X89695Y170500D01*
D02*
G37*
G36*
X87000D02*
X85305D01*
X85381Y170122D01*
X85878Y169378D01*
X86622Y168880D01*
X87000Y168805D01*
Y170500D01*
D02*
G37*
G36*
X183500Y179488D02*
X182739Y179337D01*
X182094Y178906D01*
X181663Y178261D01*
X181512Y177500D01*
X181663Y176739D01*
X182094Y176094D01*
X182378Y175904D01*
Y171596D01*
X182094Y171406D01*
X181663Y170761D01*
X181512Y170000D01*
X181663Y169239D01*
X182094Y168594D01*
X182739Y168163D01*
X183500Y168012D01*
X184261Y168163D01*
X184906Y168594D01*
X185337Y169239D01*
X185488Y170000D01*
X185337Y170761D01*
X184906Y171406D01*
X184622Y171596D01*
Y175904D01*
X184906Y176094D01*
X185337Y176739D01*
X185488Y177500D01*
X185337Y178261D01*
X184906Y178906D01*
X184261Y179337D01*
X183500Y179488D01*
D02*
G37*
G36*
X179000Y176988D02*
X178239Y176837D01*
X177594Y176406D01*
X177163Y175761D01*
X177012Y175000D01*
X177163Y174239D01*
X177594Y173594D01*
X177878Y173404D01*
Y171596D01*
X177594Y171406D01*
X177163Y170761D01*
X177012Y170000D01*
X177163Y169239D01*
X177594Y168594D01*
X178239Y168163D01*
X179000Y168012D01*
X179761Y168163D01*
X180406Y168594D01*
X180837Y169239D01*
X180988Y170000D01*
X180837Y170761D01*
X180406Y171406D01*
X180122Y171596D01*
Y173404D01*
X180406Y173594D01*
X180837Y174239D01*
X180988Y175000D01*
X180837Y175761D01*
X180406Y176406D01*
X179761Y176837D01*
X179000Y176988D01*
D02*
G37*
G36*
X218000Y165988D02*
X217239Y165837D01*
X216594Y165406D01*
X216472Y165224D01*
X213028D01*
X212906Y165406D01*
X212261Y165837D01*
X211500Y165988D01*
X210739Y165837D01*
X210094Y165406D01*
X209663Y164761D01*
X209512Y164000D01*
X209663Y163239D01*
X210094Y162594D01*
X210739Y162163D01*
X211500Y162012D01*
X212261Y162163D01*
X212906Y162594D01*
X213028Y162777D01*
X216472D01*
X216594Y162594D01*
X217239Y162163D01*
X218000Y162012D01*
X218761Y162163D01*
X219406Y162594D01*
X219837Y163239D01*
X219988Y164000D01*
X219837Y164761D01*
X219406Y165406D01*
X218761Y165837D01*
X218000Y165988D01*
D02*
G37*
G36*
X349500Y166964D02*
Y164000D01*
X352464D01*
X352410Y164414D01*
X352057Y165265D01*
X351496Y165996D01*
X350765Y166557D01*
X349914Y166910D01*
X349500Y166964D01*
D02*
G37*
G36*
X348500D02*
X348086Y166910D01*
X347235Y166557D01*
X346504Y165996D01*
X345943Y165265D01*
X345590Y164414D01*
X345536Y164000D01*
X348500D01*
Y166964D01*
D02*
G37*
G36*
X174000Y177488D02*
X173239Y177337D01*
X172594Y176906D01*
X172163Y176261D01*
X172012Y175500D01*
X172163Y174739D01*
X172594Y174094D01*
X172878Y173904D01*
Y167012D01*
X172644Y166856D01*
X172213Y166211D01*
X172062Y165450D01*
X172213Y164689D01*
X172644Y164044D01*
X173289Y163613D01*
X174050Y163462D01*
X174811Y163613D01*
X175456Y164044D01*
X175887Y164689D01*
X176038Y165450D01*
X175887Y166211D01*
X175456Y166856D01*
X175122Y167079D01*
Y173904D01*
X175406Y174094D01*
X175837Y174739D01*
X175988Y175500D01*
X175837Y176261D01*
X175406Y176906D01*
X174761Y177337D01*
X174000Y177488D01*
D02*
G37*
G36*
X134000Y164695D02*
Y163000D01*
X135695D01*
X135619Y163378D01*
X135122Y164122D01*
X134378Y164620D01*
X134000Y164695D01*
D02*
G37*
G36*
X133000D02*
X132622Y164620D01*
X131878Y164122D01*
X131380Y163378D01*
X131305Y163000D01*
X133000D01*
Y164695D01*
D02*
G37*
G36*
X169000Y176988D02*
X168239Y176837D01*
X167594Y176406D01*
X167163Y175761D01*
X167012Y175000D01*
X167163Y174239D01*
X167594Y173594D01*
X167878Y173404D01*
Y164596D01*
X167594Y164406D01*
X167163Y163761D01*
X167012Y163000D01*
X167163Y162239D01*
X167594Y161594D01*
X168239Y161163D01*
X169000Y161012D01*
X169761Y161163D01*
X170406Y161594D01*
X170837Y162239D01*
X170988Y163000D01*
X170837Y163761D01*
X170406Y164406D01*
X170122Y164596D01*
Y173404D01*
X170406Y173594D01*
X170837Y174239D01*
X170988Y175000D01*
X170837Y175761D01*
X170406Y176406D01*
X169761Y176837D01*
X169000Y176988D01*
D02*
G37*
G36*
X135695Y162000D02*
X134000D01*
Y160305D01*
X134378Y160380D01*
X135122Y160878D01*
X135619Y161622D01*
X135695Y162000D01*
D02*
G37*
G36*
X133000D02*
X131305D01*
X131380Y161622D01*
X131878Y160878D01*
X132622Y160380D01*
X133000Y160305D01*
Y162000D01*
D02*
G37*
G36*
X352464Y163000D02*
X349500D01*
Y160036D01*
X349914Y160090D01*
X350765Y160443D01*
X351496Y161004D01*
X352057Y161735D01*
X352410Y162586D01*
X352464Y163000D01*
D02*
G37*
G36*
X348500D02*
X345536D01*
X345590Y162586D01*
X345943Y161735D01*
X346504Y161004D01*
X347235Y160443D01*
X348086Y160090D01*
X348500Y160036D01*
Y163000D01*
D02*
G37*
G36*
X102000Y160695D02*
Y159000D01*
X103695D01*
X103620Y159378D01*
X103122Y160122D01*
X102378Y160619D01*
X102000Y160695D01*
D02*
G37*
G36*
X101000D02*
X100622Y160619D01*
X99878Y160122D01*
X99381Y159378D01*
X99305Y159000D01*
X101000D01*
Y160695D01*
D02*
G37*
G36*
X103695Y158000D02*
X102000D01*
Y156305D01*
X102378Y156380D01*
X103122Y156878D01*
X103620Y157622D01*
X103695Y158000D01*
D02*
G37*
G36*
X101000D02*
X99305D01*
X99381Y157622D01*
X99878Y156878D01*
X100622Y156380D01*
X101000Y156305D01*
Y158000D01*
D02*
G37*
G36*
X349500Y156964D02*
Y154000D01*
X352464D01*
X352410Y154414D01*
X352057Y155265D01*
X351496Y155996D01*
X350765Y156557D01*
X349914Y156910D01*
X349500Y156964D01*
D02*
G37*
G36*
X348500D02*
X348086Y156910D01*
X347235Y156557D01*
X346504Y155996D01*
X345943Y155265D01*
X345590Y154414D01*
X345536Y154000D01*
X348500D01*
Y156964D01*
D02*
G37*
G36*
X277500Y159476D02*
X276730Y159374D01*
X276012Y159077D01*
X275396Y158604D01*
X274923Y157988D01*
X274626Y157270D01*
X274524Y156500D01*
X274626Y155730D01*
X274923Y155012D01*
X275396Y154396D01*
X276012Y153923D01*
X276730Y153626D01*
X277500Y153524D01*
X278270Y153626D01*
X278988Y153923D01*
X279604Y154396D01*
X280077Y155012D01*
X280374Y155730D01*
X280475Y156500D01*
X280374Y157270D01*
X280077Y157988D01*
X279604Y158604D01*
X278988Y159077D01*
X278270Y159374D01*
X277500Y159476D01*
D02*
G37*
G36*
X187000Y155464D02*
Y152500D01*
X189964D01*
X189910Y152914D01*
X189557Y153765D01*
X188996Y154496D01*
X188265Y155057D01*
X187414Y155410D01*
X187000Y155464D01*
D02*
G37*
G36*
X186000D02*
X185586Y155410D01*
X184735Y155057D01*
X184004Y154496D01*
X183443Y153765D01*
X183090Y152914D01*
X183036Y152500D01*
X186000D01*
Y155464D01*
D02*
G37*
G36*
X352464Y153000D02*
X349500D01*
Y150036D01*
X349914Y150090D01*
X350765Y150443D01*
X351496Y151004D01*
X352057Y151735D01*
X352410Y152586D01*
X352464Y153000D01*
D02*
G37*
G36*
X348500D02*
X345536D01*
X345590Y152586D01*
X345943Y151735D01*
X346504Y151004D01*
X347235Y150443D01*
X348086Y150090D01*
X348500Y150036D01*
Y153000D01*
D02*
G37*
G36*
X303000Y147437D02*
Y144472D01*
X305964D01*
X305910Y144886D01*
X305557Y145738D01*
X304996Y146469D01*
X304265Y147030D01*
X303414Y147382D01*
X303000Y147437D01*
D02*
G37*
G36*
X302000D02*
X301586Y147382D01*
X300735Y147030D01*
X300004Y146469D01*
X299443Y145738D01*
X299090Y144886D01*
X299036Y144472D01*
X302000D01*
Y147437D01*
D02*
G37*
G36*
X134000Y149476D02*
X133230Y149374D01*
X132512Y149077D01*
X131896Y148604D01*
X131423Y147988D01*
X131126Y147270D01*
X131025Y146500D01*
X131126Y145730D01*
X131423Y145012D01*
X131896Y144396D01*
X132512Y143923D01*
X133230Y143626D01*
X134000Y143525D01*
X134770Y143626D01*
X135488Y143923D01*
X136104Y144396D01*
X136577Y145012D01*
X136874Y145730D01*
X136976Y146500D01*
X136874Y147270D01*
X136577Y147988D01*
X136104Y148604D01*
X135488Y149077D01*
X134770Y149374D01*
X134000Y149476D01*
D02*
G37*
G36*
X334224Y144964D02*
Y142000D01*
X337189D01*
X337134Y142414D01*
X336782Y143265D01*
X336221Y143996D01*
X335490Y144557D01*
X334638Y144910D01*
X334224Y144964D01*
D02*
G37*
G36*
X333224D02*
X332811Y144910D01*
X331959Y144557D01*
X331228Y143996D01*
X330667Y143265D01*
X330314Y142414D01*
X330260Y142000D01*
X333224D01*
Y144964D01*
D02*
G37*
G36*
X305964Y143472D02*
X303000D01*
Y140508D01*
X303414Y140562D01*
X304265Y140915D01*
X304996Y141476D01*
X305557Y142207D01*
X305910Y143059D01*
X305964Y143472D01*
D02*
G37*
G36*
X302000D02*
X299036D01*
X299090Y143059D01*
X299443Y142207D01*
X300004Y141476D01*
X300735Y140915D01*
X301586Y140562D01*
X302000Y140508D01*
Y143472D01*
D02*
G37*
G36*
X128500Y145475D02*
X127730Y145374D01*
X127012Y145077D01*
X126396Y144604D01*
X125923Y143988D01*
X125626Y143270D01*
X125524Y142500D01*
X125626Y141730D01*
X125923Y141012D01*
X126396Y140396D01*
X127012Y139923D01*
X127730Y139626D01*
X128500Y139524D01*
X129270Y139626D01*
X129988Y139923D01*
X130604Y140396D01*
X131077Y141012D01*
X131374Y141730D01*
X131475Y142500D01*
X131374Y143270D01*
X131077Y143988D01*
X130604Y144604D01*
X129988Y145077D01*
X129270Y145374D01*
X128500Y145475D01*
D02*
G37*
G36*
X337189Y141000D02*
X334224D01*
Y138036D01*
X334638Y138090D01*
X335490Y138443D01*
X336221Y139004D01*
X336782Y139735D01*
X337134Y140586D01*
X337189Y141000D01*
D02*
G37*
G36*
X333224D02*
X330260D01*
X330314Y140586D01*
X330667Y139735D01*
X331228Y139004D01*
X331959Y138443D01*
X332811Y138090D01*
X333224Y138036D01*
Y141000D01*
D02*
G37*
G36*
X119000Y139976D02*
X118230Y139874D01*
X117512Y139577D01*
X116896Y139104D01*
X116423Y138488D01*
X116126Y137770D01*
X116024Y137000D01*
X116126Y136230D01*
X116423Y135512D01*
X116896Y134896D01*
X117512Y134423D01*
X118230Y134126D01*
X119000Y134025D01*
X119770Y134126D01*
X120488Y134423D01*
X121104Y134896D01*
X121577Y135512D01*
X121874Y136230D01*
X121976Y137000D01*
X121874Y137770D01*
X121577Y138488D01*
X121104Y139104D01*
X120488Y139577D01*
X119770Y139874D01*
X119000Y139976D01*
D02*
G37*
%LPD*%
D53*
X282000Y233000D02*
Y241500D01*
D54*
X211500Y164000D02*
X218000D01*
X174000Y165500D02*
X174050Y165450D01*
D55*
X169000Y163000D02*
Y175000D01*
X183500Y170000D02*
Y177500D01*
X179000Y170000D02*
Y175000D01*
X174000Y165500D02*
Y175500D01*
X340500Y229673D02*
Y238000D01*
X340327Y229500D02*
X340500Y229673D01*
X338598Y239902D02*
X340500Y238000D01*
X332953Y239902D02*
X338598D01*
D57*
X141224Y196358D02*
X141516D01*
Y206594D02*
X142732Y207811D01*
X128631Y194869D02*
X139735D01*
X141224Y196358D01*
X142732Y207811D02*
Y211524D01*
X126000Y197500D02*
X128631Y194869D01*
D58*
X142500Y212500D02*
D03*
D59*
Y190453D02*
D03*
D60*
X134035Y201476D02*
D03*
D61*
X282000Y241500D02*
D03*
X277500Y156500D02*
D03*
X128500Y142500D02*
D03*
X126000Y197500D02*
D03*
X126500Y182500D02*
D03*
X94500Y215000D02*
D03*
X91547Y185000D02*
D03*
X110500Y185500D02*
D03*
X103000D02*
D03*
X134000Y146500D02*
D03*
X119000Y137000D02*
D03*
D62*
X211500Y164000D02*
D03*
X218000D02*
D03*
X183500Y170000D02*
D03*
X174050Y165450D02*
D03*
X179000Y170000D02*
D03*
X139000Y171500D02*
D03*
X169000Y163000D02*
D03*
X240500Y179500D02*
D03*
Y193280D02*
D03*
X133500Y162500D02*
D03*
X169000Y175000D02*
D03*
X183500Y177500D02*
D03*
X179000Y175000D02*
D03*
X174000Y175500D02*
D03*
X87500Y171000D02*
D03*
X304000Y238000D02*
D03*
X118500Y190500D02*
D03*
X101500Y158500D02*
D03*
X131500Y246500D02*
D03*
X95500D02*
D03*
X325500Y230000D02*
D03*
X332953Y239902D02*
D03*
X340500Y247500D02*
D03*
D63*
X144500Y237500D02*
D03*
X282000Y233000D02*
D03*
X299000Y207000D02*
D03*
X330000Y197000D02*
D03*
X301000Y180500D02*
D03*
X334000Y214500D02*
D03*
X296000Y243500D02*
D03*
X186500Y152000D02*
D03*
X117500Y258500D02*
D03*
X95500Y228783D02*
D03*
X302500Y143972D02*
D03*
X333724Y141500D02*
D03*
X349000Y153500D02*
D03*
Y163500D02*
D03*
X335500Y173500D02*
D03*
X144500Y228000D02*
D03*
X124500Y220000D02*
D03*
X304500Y191744D02*
D03*
X349000Y229000D02*
D03*
D64*
X131327Y228783D02*
D03*
X95500D02*
D03*
X131327Y246500D02*
D03*
X95500D02*
D03*
X304500Y247217D02*
D03*
X340327D02*
D03*
X304500Y229500D02*
D03*
X340327D02*
D03*
D65*
X141516Y206594D02*
D03*
Y204035D02*
D03*
Y201476D02*
D03*
Y198917D02*
D03*
Y196358D02*
D03*
M02*
