G04*
G04 #@! TF.GenerationSoftware,Altium Limited,Altium Designer,19.1.8 (144)*
G04*
G04 Layer_Physical_Order=1*
G04 Layer_Color=255*
%FSLAX25Y25*%
%MOIN*%
G70*
G01*
G75*
%ADD16C,0.00600*%
%ADD41R,0.03543X0.02756*%
%ADD42R,0.03150X0.03543*%
%ADD43O,0.01772X0.05512*%
%ADD44R,0.06693X0.01378*%
%ADD45R,0.01772X0.05709*%
%ADD46R,0.07087X0.15748*%
%ADD47R,0.03543X0.03150*%
%ADD48R,0.02756X0.03543*%
%ADD49R,0.03543X0.03150*%
G04:AMPARAMS|DCode=50|XSize=23.62mil|YSize=57.09mil|CornerRadius=2.01mil|HoleSize=0mil|Usage=FLASHONLY|Rotation=90.000|XOffset=0mil|YOffset=0mil|HoleType=Round|Shape=RoundedRectangle|*
%AMROUNDEDRECTD50*
21,1,0.02362,0.05307,0,0,90.0*
21,1,0.01961,0.05709,0,0,90.0*
1,1,0.00402,0.02653,0.00980*
1,1,0.00402,0.02653,-0.00980*
1,1,0.00402,-0.02653,-0.00980*
1,1,0.00402,-0.02653,0.00980*
%
%ADD50ROUNDEDRECTD50*%
%ADD51O,0.05315X0.02165*%
%ADD52O,0.02165X0.05315*%
%ADD53R,0.02756X0.05118*%
%ADD54R,0.03150X0.02362*%
%ADD55C,0.02000*%
%ADD56C,0.01200*%
%ADD57C,0.01000*%
%ADD58C,0.01500*%
%ADD59C,0.00800*%
%ADD60C,0.06000*%
%ADD61C,0.04724*%
%ADD62R,0.04724X0.04724*%
%ADD63O,0.04331X0.06693*%
%ADD64O,0.04331X0.07087*%
%ADD65O,0.04331X0.08661*%
%ADD66C,0.07874*%
%ADD67C,0.02500*%
%ADD68C,0.05000*%
%ADD69C,0.04500*%
G36*
X128000Y183000D02*
D01*
D02*
G37*
G36*
X144500Y237500D02*
D01*
D02*
G37*
G36*
X313000Y223500D02*
X313000Y208200D01*
X311300Y206500D01*
X311300Y199876D01*
X310924Y199500D01*
X309300D01*
X308300Y200500D01*
X303000D01*
X302000Y201500D01*
X302000Y205881D01*
X302084Y206084D01*
X302500Y206500D01*
Y216500D01*
X302000Y217000D01*
X297000Y217000D01*
X296500Y217500D01*
X296500Y221500D01*
X299500Y224500D01*
X312000D01*
X313000Y223500D01*
D02*
G37*
D16*
X163000Y150500D02*
X169453Y156953D01*
X152500Y150500D02*
X163000D01*
X151839Y151161D02*
X152500Y150500D01*
X145224Y149000D02*
X166000D01*
X132674Y136450D02*
X145224Y149000D01*
X166000D02*
X168024Y151024D01*
X176976D01*
X177000Y151047D01*
X180500Y164000D02*
X211500D01*
X115650Y133850D02*
X117000Y132500D01*
X115650Y133850D02*
Y142587D01*
X117000Y132500D02*
X123307D01*
X183476Y157976D02*
X183500Y157953D01*
X141602Y177614D02*
Y178114D01*
X146721Y177614D02*
Y178114D01*
X151839Y177614D02*
Y178114D01*
X118874Y186374D02*
X122000Y189500D01*
X127500D01*
X118874Y176339D02*
Y186374D01*
X140905Y182500D02*
X141602Y181803D01*
X138000Y182500D02*
X140905D01*
X134000Y178500D02*
X138000Y182500D01*
X137000Y184000D02*
X144523D01*
X136000Y185500D02*
X149000D01*
X126913Y176413D02*
X136000Y185500D01*
X149000D02*
X151839Y182661D01*
Y178114D02*
Y182661D01*
X132000Y179000D02*
X137000Y184000D01*
X144523D02*
X146721Y181803D01*
Y178114D02*
Y181803D01*
X132000Y172013D02*
Y179000D01*
X122024Y175875D02*
X122562Y176413D01*
X126913D01*
X131010Y171024D02*
X132000Y172013D01*
X134000Y171000D02*
Y178500D01*
X127339Y171024D02*
X131010D01*
X141602Y178114D02*
Y181803D01*
X177000Y160500D02*
X180500Y164000D01*
X177000Y156953D02*
Y160500D01*
X169453Y156953D02*
X177000D01*
X151839Y151161D02*
Y154886D01*
X183500Y155500D02*
Y157953D01*
X179047Y151047D02*
X183500Y155500D01*
X177000Y151047D02*
X179047D01*
X127257Y136450D02*
X132674D01*
X130874Y167874D02*
X134000Y171000D01*
X123307Y132500D02*
X127257Y136450D01*
X115650Y142587D02*
X115724Y142661D01*
X122024Y175339D02*
Y175875D01*
X127339Y167874D02*
X130874D01*
D41*
X317500Y242094D02*
D03*
Y248000D02*
D03*
X327500Y247953D02*
D03*
Y242047D02*
D03*
X312000Y156953D02*
D03*
Y151047D02*
D03*
X177000D02*
D03*
Y156953D02*
D03*
X111500Y219453D02*
D03*
Y213547D02*
D03*
X104500Y197047D02*
D03*
Y202953D02*
D03*
D42*
X317756Y231000D02*
D03*
X312244D02*
D03*
X121756Y182500D02*
D03*
X116244D02*
D03*
X320744Y138000D02*
D03*
X326256D02*
D03*
X323744Y173500D02*
D03*
X329256D02*
D03*
X127500Y189500D02*
D03*
X133012D02*
D03*
X156717Y190224D02*
D03*
X151205D02*
D03*
D43*
X156957Y178114D02*
D03*
X154398D02*
D03*
X151839D02*
D03*
X149279D02*
D03*
X146721D02*
D03*
X144161D02*
D03*
X141602D02*
D03*
X139043D02*
D03*
X156957Y154886D02*
D03*
X154398D02*
D03*
X151839D02*
D03*
X149279D02*
D03*
X146721D02*
D03*
X144161D02*
D03*
X141602D02*
D03*
X139043D02*
D03*
D44*
X233500Y190476D02*
D03*
Y187721D02*
D03*
Y182209D02*
D03*
Y184965D02*
D03*
Y179453D02*
D03*
Y201500D02*
D03*
Y198744D02*
D03*
Y193232D02*
D03*
Y195988D02*
D03*
Y207012D02*
D03*
Y204256D02*
D03*
Y209768D02*
D03*
Y212524D02*
D03*
D45*
X315500Y203000D02*
D03*
X318059D02*
D03*
X312941D02*
D03*
X310382D02*
D03*
Y185677D02*
D03*
X312941D02*
D03*
X318059D02*
D03*
X315500D02*
D03*
D46*
X320500Y216000D02*
D03*
X308500D02*
D03*
D47*
X304500Y203000D02*
D03*
Y197488D02*
D03*
X118500Y214244D02*
D03*
Y219756D02*
D03*
X133500Y152244D02*
D03*
Y157756D02*
D03*
X87500Y160744D02*
D03*
Y166256D02*
D03*
X305000Y156756D02*
D03*
Y151244D02*
D03*
X299000Y156756D02*
D03*
Y151244D02*
D03*
Y213744D02*
D03*
Y219256D02*
D03*
X330000Y185744D02*
D03*
Y191256D02*
D03*
X324500Y185744D02*
D03*
Y191256D02*
D03*
D48*
X285047Y156500D02*
D03*
X290953D02*
D03*
X298047Y173500D02*
D03*
X303953D02*
D03*
X102500Y191000D02*
D03*
X96595D02*
D03*
X214500Y154500D02*
D03*
X208594D02*
D03*
X320547Y144000D02*
D03*
X326453D02*
D03*
X189453Y158000D02*
D03*
X183547D02*
D03*
X307047Y179000D02*
D03*
X312953D02*
D03*
X318000Y179000D02*
D03*
X323905D02*
D03*
D49*
X202437Y154500D02*
D03*
X194563Y150760D02*
D03*
Y158240D02*
D03*
D50*
X320272Y166000D02*
D03*
Y161000D02*
D03*
Y156000D02*
D03*
Y151000D02*
D03*
X341728Y166000D02*
D03*
Y161000D02*
D03*
Y156000D02*
D03*
Y151000D02*
D03*
D51*
X94661Y171024D02*
D03*
Y167874D02*
D03*
Y164724D02*
D03*
Y161575D02*
D03*
Y158425D02*
D03*
Y155276D02*
D03*
Y152126D02*
D03*
Y148976D02*
D03*
X127339D02*
D03*
Y152126D02*
D03*
Y155276D02*
D03*
Y158425D02*
D03*
Y161575D02*
D03*
Y164724D02*
D03*
Y167874D02*
D03*
Y171024D02*
D03*
D52*
X99976Y143661D02*
D03*
X103126D02*
D03*
X106276D02*
D03*
X109425D02*
D03*
X112575D02*
D03*
X115724D02*
D03*
X118874D02*
D03*
X122024D02*
D03*
Y176339D02*
D03*
X118874D02*
D03*
X115724D02*
D03*
X112575D02*
D03*
X109425D02*
D03*
X106276D02*
D03*
X103126D02*
D03*
X99976D02*
D03*
D53*
X111260Y206724D02*
D03*
X118740D02*
D03*
Y197276D02*
D03*
X115000D02*
D03*
X111260D02*
D03*
D54*
X104500Y216209D02*
D03*
Y210500D02*
D03*
D55*
X89000Y239000D02*
X101500Y251500D01*
X89000Y210500D02*
Y239000D01*
X101500Y251500D02*
X129000D01*
X96595Y190547D02*
X97500Y191453D01*
X323744Y167799D02*
Y173500D01*
X321945Y166000D02*
X323744Y167799D01*
X304179Y173524D02*
X323744D01*
X129000Y251500D02*
X137000Y243500D01*
X156722D01*
X160222Y240000D01*
X161000D01*
X284500Y229000D02*
X290000Y223500D01*
X161000Y229000D02*
X284500D01*
X290000Y181500D02*
Y223500D01*
X83500Y172172D02*
X91500Y180172D01*
X83500Y162490D02*
Y172172D01*
Y162490D02*
X85246Y160744D01*
X290953Y156500D02*
X291081Y156628D01*
X298872D01*
X299000Y156756D01*
X320272Y166000D02*
X321945D01*
X323744Y173500D02*
X323825Y173581D01*
Y178919D01*
X323905Y179000D01*
X304155Y173547D02*
X304179Y173524D01*
X290000Y181500D02*
X297953Y173547D01*
X277500Y156500D02*
X285047D01*
X285047Y156500D01*
X96547Y190500D02*
X96595Y190547D01*
Y191000D01*
Y190047D02*
Y190547D01*
X312953Y179000D02*
X312953Y179000D01*
X318000D01*
X324500Y191256D02*
X330000D01*
X324467Y185711D02*
X324500Y185744D01*
X324203Y185447D02*
X324467Y185711D01*
X323905Y179000D02*
X324203Y179297D01*
Y185447D01*
X318173Y185711D02*
X324467D01*
X324500Y185744D02*
X330000D01*
X91500Y180172D02*
Y184500D01*
X91547Y185000D02*
X96595Y190047D01*
X97500Y191453D02*
Y202000D01*
X89000Y210500D02*
X97500Y202000D01*
X320272Y161000D02*
Y166000D01*
X85246Y160744D02*
X87500D01*
X299000Y156756D02*
X305000D01*
X305098Y156854D01*
X311902D01*
X312000Y156953D01*
X312394D01*
X313347Y156000D01*
X320272D01*
Y151000D02*
X320409Y150862D01*
Y144138D02*
X320547Y144000D01*
X104500Y202953D02*
Y210500D01*
D56*
X94661Y155460D02*
X100540D01*
X127398Y152185D02*
X133500D01*
X317628Y231128D02*
X317756Y231000D01*
X317500Y242094D02*
X317628Y241967D01*
X139000Y171500D02*
X139022Y171522D01*
Y177593D02*
X139043Y177614D01*
X139022Y171522D02*
Y177593D01*
X156957Y177614D02*
Y178114D01*
X313488Y197488D02*
X315500Y199500D01*
X310988Y197488D02*
X313488D01*
X315500Y199500D02*
Y203000D01*
X310988Y197488D02*
X312941Y199441D01*
Y203000D01*
X305244Y191744D02*
X310988Y197488D01*
X304500Y191744D02*
X305244D01*
X326453Y139000D02*
X327453Y138000D01*
X150268Y189976D02*
X150744Y189500D01*
X132756Y189476D02*
X141524D01*
X218465Y184965D02*
X233500D01*
X142500Y190453D02*
X142976Y189976D01*
X150268D01*
X156717Y190224D02*
X156957Y189984D01*
X156476Y190465D02*
X156717Y190224D01*
X156957Y178114D02*
Y189984D01*
X302500Y179000D02*
X307047D01*
X301000Y180500D02*
X302500Y179000D01*
X312947Y179006D02*
X312953Y179000D01*
X312947Y179006D02*
Y185671D01*
X312941Y185677D02*
X312947Y185671D01*
X127919Y143081D02*
X128500Y142500D01*
X133148Y162500D02*
X133500D01*
X132223Y161575D02*
X133148Y162500D01*
X127339Y161575D02*
X132223D01*
X141524Y189476D02*
X142500Y190453D01*
X133500Y157756D02*
Y162500D01*
Y156756D02*
Y157756D01*
X133500Y162500D02*
X133500Y162500D01*
X87500Y160744D02*
X88146Y161390D01*
X94477D01*
X94661Y161575D01*
X90776Y164724D02*
X94661D01*
X89724Y155276D02*
X94661D01*
X87631Y157369D02*
X89724Y155276D01*
X87500Y166256D02*
Y171000D01*
Y166256D02*
X87500Y166256D01*
X186500Y152000D02*
X187120Y151380D01*
X193943D01*
X194563Y150760D01*
X214500Y181000D02*
X218465Y184965D01*
X214500Y155000D02*
Y181000D01*
X189573Y158120D02*
X194203D01*
X189453Y158000D02*
X189573Y158120D01*
X194203D02*
X194323Y158000D01*
X111031Y197047D02*
X111260Y197276D01*
X104500Y197047D02*
X111031D01*
X89244Y166256D02*
X90776Y164724D01*
X87500Y166256D02*
X89244D01*
X118740Y196095D02*
Y197276D01*
X202437Y154500D02*
X208594D01*
X122024Y143527D02*
X122470Y143081D01*
X122024Y143527D02*
Y143661D01*
X132756Y189500D02*
Y189697D01*
X100540Y155460D02*
X103874Y152126D01*
X127339D01*
X101463Y158463D02*
X101500Y158500D01*
X94699Y158463D02*
X101463D01*
X94661Y158425D02*
X94699Y158463D01*
X87631Y160387D02*
Y160613D01*
X87500Y160744D02*
X87631Y160613D01*
Y157369D02*
Y160387D01*
X106138Y176476D02*
X106276Y176339D01*
X118740Y206724D02*
X122776D01*
X126000Y203500D01*
Y197500D02*
Y203500D01*
X302500Y143972D02*
X305000Y146472D01*
Y151244D01*
X299000Y147472D02*
Y151244D01*
Y147472D02*
X302500Y143972D01*
X330224Y138000D02*
X333724Y141500D01*
X327453Y138000D02*
X330224D01*
X320646Y138098D02*
X320744Y138000D01*
X320646Y138098D02*
Y143902D01*
X320547Y144000D02*
X320646Y143902D01*
X320248Y151024D02*
X320272Y151000D01*
X312024Y151024D02*
X320248D01*
X312000Y151047D02*
X312024Y151024D01*
X320409Y144138D02*
Y150862D01*
X326453Y144000D02*
X331224D01*
X333724Y141500D01*
X341728Y156000D02*
X346500D01*
X349000Y153500D01*
X341728Y151000D02*
X346500D01*
X349000Y153500D01*
X346500Y161000D02*
X349000Y163500D01*
X341728Y161000D02*
X346500D01*
Y166000D02*
X349000Y163500D01*
X341728Y166000D02*
X346500D01*
X329256Y173500D02*
X335500D01*
D57*
X327894Y232606D02*
Y242047D01*
X166000Y236000D02*
X174500Y244500D01*
X156500Y236000D02*
X166000D01*
X152500Y240000D02*
X156500Y236000D01*
X327894Y232606D02*
X336000Y224500D01*
Y188000D02*
Y224500D01*
X333744Y185744D02*
X336000Y188000D01*
X327500Y242047D02*
X327894D01*
X330000Y185744D02*
X333744D01*
X315094Y244500D02*
X317500Y242094D01*
X174500Y244500D02*
X315094D01*
X102500Y247000D02*
X127000D01*
X99650Y244150D02*
X102500Y247000D01*
X99650Y217650D02*
Y244150D01*
X134000Y240000D02*
X152500D01*
X127000Y247000D02*
X134000Y240000D01*
X237469Y187531D02*
X240000Y185000D01*
X233689Y187531D02*
X237469D01*
X298047Y170547D02*
Y173500D01*
X288000Y160500D02*
X298047Y170547D01*
X288000Y153000D02*
Y160500D01*
X286500Y151500D02*
X288000Y153000D01*
X251000Y151500D02*
X286500D01*
X238500Y164000D02*
X251000Y151500D01*
X218000Y164000D02*
X238500D01*
X237398Y182398D02*
X240000Y185000D01*
X233689Y182398D02*
X237398D01*
X233500Y182209D02*
X233689Y182398D01*
X233500Y187721D02*
X233689Y187531D01*
X233500Y179453D02*
X240453D01*
X233500Y193232D02*
X240453D01*
X115803Y216500D02*
X118303Y214000D01*
X121756Y182500D02*
X127000D01*
X121756D02*
X121756D01*
X122756Y183500D01*
X121756Y182500D02*
X121756Y182500D01*
X118303Y214000D02*
X118500D01*
X118740Y213760D01*
X104791Y216500D02*
X115803D01*
D58*
X219000Y233000D02*
X286500D01*
X217500Y234500D02*
X219000Y233000D01*
X217500Y234500D02*
Y238500D01*
X286500Y233000D02*
X299000Y220500D01*
X151000Y233000D02*
X208000D01*
X148500Y235500D02*
X151000Y233000D01*
X144500Y235500D02*
X148500D01*
X130000Y221000D02*
X144500Y235500D01*
X130000Y194500D02*
Y221000D01*
X128000Y240000D02*
X132500Y235500D01*
X144500D01*
X208000Y233000D02*
X209626Y234626D01*
X105000Y240000D02*
X128000D01*
X327453Y248047D02*
X327500Y248095D01*
X317547Y248047D02*
X327453D01*
X299000Y219256D02*
Y220500D01*
X127351Y191851D02*
X130000Y194500D01*
X304858Y230642D02*
X311886D01*
X312244Y231000D01*
X317628Y231128D02*
Y241967D01*
X304500Y248000D02*
X317500D01*
X327547Y248047D02*
X340453D01*
X327500Y248095D02*
X327547Y248047D01*
X317500Y248000D02*
X317547Y248047D01*
X126006Y192994D02*
X127256Y191744D01*
X121841Y192994D02*
X126006D01*
X118740Y196095D02*
X121841Y192994D01*
X209626Y234626D02*
Y238500D01*
X237500Y219500D02*
X246000Y211000D01*
X182000Y219500D02*
X237500D01*
X156476Y193976D02*
X182000Y219500D01*
X274500Y156500D02*
X277500D01*
X246000Y185000D02*
X274500Y156500D01*
X246000Y185000D02*
Y211000D01*
X320500Y207409D02*
Y216000D01*
X318059Y204969D02*
X320500Y207409D01*
X318059Y203000D02*
Y204969D01*
X299000Y207000D02*
X299000Y207000D01*
X156476Y190465D02*
Y193976D01*
X240000Y185000D02*
X246000D01*
X330000Y191256D02*
Y197000D01*
X299000Y207000D02*
Y213744D01*
X115000Y194000D02*
X118500Y190500D01*
X115000Y194000D02*
Y197276D01*
X87500Y160256D02*
X87631Y160387D01*
X87692Y160448D01*
X127351Y189595D02*
Y191851D01*
X329256Y173500D02*
X329256Y173500D01*
X111500Y219453D02*
X111652Y219604D01*
X118348D01*
X118500Y219756D01*
X118622Y219878D02*
X124378D01*
X118500Y219756D02*
X118622Y219878D01*
X111380Y213427D02*
X111500Y213547D01*
X304500Y191744D02*
Y197488D01*
X111380Y206844D02*
Y213427D01*
X111260Y206724D02*
X111380Y206844D01*
X118740Y206724D02*
Y213760D01*
D59*
X303823Y185677D02*
X310382D01*
X299500Y190000D02*
X303823Y185677D01*
X299500Y190000D02*
Y201500D01*
X301000Y203000D01*
X304500D01*
X99650Y175665D02*
Y217650D01*
X139043Y151416D02*
Y154886D01*
X134127Y146500D02*
X139043Y151416D01*
X144161Y151661D02*
Y154886D01*
X131550Y139050D02*
X144161Y151661D01*
X141602Y154386D02*
Y157602D01*
X149450Y165450D01*
X174050D01*
X146721Y154386D02*
Y157720D01*
X152000Y163000D01*
X169000D01*
X144161Y173339D02*
Y178114D01*
Y173339D02*
X149700Y167800D01*
X176808D01*
X177608Y167000D01*
X180500D01*
X183500Y170000D01*
X149279Y172721D02*
Y178114D01*
X152000Y170000D02*
X179000D01*
X149279Y172721D02*
X152000Y170000D01*
X213488Y195988D02*
X233500D01*
X210744Y198744D02*
X233500D01*
X207500Y201500D02*
X233500D01*
X202756Y204256D02*
X233500D01*
X199512Y207012D02*
X233500D01*
X126050Y139050D02*
X131550D01*
X156000Y172500D02*
X190000D01*
X154398Y174102D02*
X156000Y172500D01*
X154398Y174102D02*
Y178114D01*
X113303Y181803D02*
X115744D01*
X112500Y191000D02*
X115744Y187756D01*
X102500Y191000D02*
X112500D01*
X115744Y182500D02*
Y187756D01*
Y181803D02*
Y182500D01*
X109425Y176339D02*
Y177925D01*
Y175339D02*
Y176339D01*
X106138Y181138D02*
X110500Y185500D01*
X103000Y177465D02*
Y185500D01*
X99650Y175665D02*
X99976Y175339D01*
X102500Y176965D02*
X103000Y177465D01*
X102500Y176965D02*
X103126Y176339D01*
X169000Y176500D02*
X199512Y207012D01*
X169000Y175000D02*
Y176500D01*
X174000Y175500D02*
X202756Y204256D01*
X187000Y175000D02*
X210744Y198744D01*
X179000Y175000D02*
X187000D01*
X183500Y177500D02*
X207500Y201500D01*
X190000Y172500D02*
X213488Y195988D01*
X194323Y158000D02*
X194563Y158240D01*
X109425Y177925D02*
X113303Y181803D01*
X106138Y176476D02*
Y181138D01*
X128500Y146500D02*
X134000D01*
X134127D01*
X127339Y147661D02*
X128500Y146500D01*
X122470Y143081D02*
X127919D01*
X124000Y137000D02*
X126050Y139050D01*
X119000Y137000D02*
X124000D01*
X119000D02*
Y143535D01*
X118874Y143661D02*
X119000Y143535D01*
X127339Y147661D02*
Y148976D01*
D60*
X225374Y238500D02*
D03*
X209626D02*
D03*
X217500D02*
D03*
D61*
X105000Y232126D02*
D03*
D62*
Y240000D02*
D03*
D63*
X142500Y212500D02*
D03*
D64*
Y190453D02*
D03*
D65*
X134035Y201476D02*
D03*
D66*
X201358Y238500D02*
D03*
X233642D02*
D03*
D67*
X211500Y164000D02*
D03*
X340453Y248047D02*
D03*
X304500Y248000D02*
D03*
X169000Y163000D02*
D03*
X139000Y171500D02*
D03*
X179000Y170000D02*
D03*
X174050Y165450D02*
D03*
X183500Y170000D02*
D03*
X218000Y164000D02*
D03*
X240500Y179500D02*
D03*
Y193280D02*
D03*
X133500Y162500D02*
D03*
X169000Y175000D02*
D03*
X183500Y177500D02*
D03*
X179000Y175000D02*
D03*
X174000Y175500D02*
D03*
X87500Y171000D02*
D03*
X118500Y190500D02*
D03*
X101500Y158500D02*
D03*
D68*
X144500Y235500D02*
D03*
X161000Y240000D02*
D03*
Y229000D02*
D03*
X144500Y228000D02*
D03*
X304500Y230283D02*
D03*
X299000Y207000D02*
D03*
X330000Y197000D02*
D03*
X301000Y180500D02*
D03*
X186500Y152000D02*
D03*
X302500Y143972D02*
D03*
X333724Y141500D02*
D03*
X349000Y153500D02*
D03*
Y163500D02*
D03*
X335500Y173500D02*
D03*
X124500Y220000D02*
D03*
X304500Y191744D02*
D03*
D69*
X277500Y156500D02*
D03*
X128500Y142500D02*
D03*
X126000Y197500D02*
D03*
X127000Y182500D02*
D03*
X94500Y215000D02*
D03*
X91547Y185000D02*
D03*
X110500Y185500D02*
D03*
X103000D02*
D03*
X134000Y146500D02*
D03*
X119000Y137000D02*
D03*
M02*
