M48
;Layer_Color=9474304
;FILE_FORMAT=2:5
INCH,TZ
;TYPE=PLATED
T1F00S00C0.01500
T3F00S00C0.02800
T4F00S00C0.03000
%
T01
X325500Y230000
X332953Y239902
X340500Y247500
X304000Y238000
X240500Y193280
Y179500
X218000Y164000
X211500
X183500Y170000
X179000
Y175000
X174000Y175500
X169000Y175000
Y163000
X174050Y165450
X183500Y177500
X139000Y171500
X133500Y162500
X101500Y158500
X87500Y171000
X118500Y190500
X131500Y246500
X95500
T03
X119000Y137000
X128500Y142500
X134000Y146500
X186500Y152000
X302500Y143972
X333724Y141500
X349000Y153500
Y163500
X335500Y173500
X330000Y197000
X334000Y214500
X349000Y229000
X296000Y243500
X282000Y241500
Y233000
X299000Y207000
X304500Y191744
X301000Y180500
X277500Y156500
X126500Y182500
X126000Y197500
X124500Y220000
X94500Y215000
X95500Y228783
X91547Y185000
X103000Y185500
X110500
X117500Y258500
T04
X144500Y228000
Y237500
M30
